<svg width="124" height="43" viewBox="0 0 124 43" fill="none" xmlns="http://www.w3.org/2000/svg">
<g clip-path="url(#clip0_122_755)">
<path fill-rule="evenodd" clip-rule="evenodd" d="M68.369 26.4391C67.5727 26.8658 66.7351 27.1803 65.855 27.3834C64.9752 27.5866 64.0851 27.688 63.184 27.688C62.1017 27.688 61.1117 27.5171 60.2145 27.1753C59.3173 26.8335 58.5405 26.3528 57.8839 25.7337C57.2276 25.1143 56.7162 24.3713 56.3495 23.5048C55.9831 22.6382 55.7998 21.6839 55.7998 20.6414C55.7998 19.5788 55.9917 18.6141 56.3758 17.7476C56.7596 16.8813 57.2905 16.1416 57.9677 15.5287C58.645 14.9164 59.4324 14.4389 60.3299 14.0974C61.2272 13.7557 62.1997 13.5845 63.2469 13.5845C64.1615 13.5845 65.0381 13.7181 65.876 13.9857C66.7142 14.2529 67.4644 14.7082 68.1278 15.3513L66.9025 16.6001C66.4343 16.1061 65.8657 15.7271 65.1952 15.463C64.5244 15.199 63.8371 15.0669 63.1317 15.0669C62.3355 15.0669 61.5986 15.2058 60.9213 15.4832C60.244 15.7608 59.6544 16.1466 59.1513 16.6406C58.6486 17.135 58.2577 17.7221 57.9787 18.4024C57.6988 19.0827 57.5594 19.8289 57.5594 20.6414C57.5594 21.4334 57.6988 22.1696 57.9787 22.8499C58.2577 23.5302 58.6486 24.1209 59.1513 24.6218C59.6544 25.1229 60.2564 25.512 60.9582 25.7896C61.66 26.0672 62.4335 26.2059 63.2785 26.2059C63.8371 26.2059 64.4237 26.1396 65.0381 26.0075C65.6522 25.8756 66.2146 25.6811 66.7242 25.4239V21.3217H63.5401V19.8393H68.369V26.4391Z" fill="#007EB5"/>
<path fill-rule="evenodd" clip-rule="evenodd" d="M77.5251 26.0688C78.3281 26.0688 79.065 25.9234 79.7349 25.6322C80.4057 25.3412 80.9814 24.9433 81.4635 24.4392C81.9454 23.9348 82.3203 23.3441 82.5896 22.6674C82.8585 21.9903 82.9926 21.2695 82.9926 20.5044C82.9926 19.733 82.8585 19.0087 82.5896 18.3313C82.3203 17.6549 81.9454 17.0642 81.4635 16.5598C80.9814 16.0554 80.4057 15.6578 79.7349 15.3665C79.065 15.0756 78.3281 14.9299 77.5251 14.9299C76.7152 14.9299 75.9751 15.0756 75.3049 15.3665C74.6344 15.6578 74.0566 16.0554 73.5712 16.5598C73.0859 17.0642 72.7103 17.6549 72.4455 18.3313C72.1798 19.0087 72.0472 19.733 72.0472 20.5044C72.0472 21.2695 72.1798 21.9903 72.4455 22.6674C72.7103 23.3441 73.0859 23.9348 73.5712 24.4392C74.0566 24.9433 74.6344 25.3412 75.3049 25.6322C75.9751 25.9234 76.7152 26.0688 77.5251 26.0688ZM77.5251 27.5512C76.4637 27.5512 75.4929 27.3736 74.6134 27.0182C73.7333 26.6625 72.9722 26.172 72.3298 25.5458C71.6876 24.9196 71.1863 24.1752 70.8267 23.3119C70.4671 22.4489 70.2876 21.5131 70.2876 20.5044C70.2876 19.4891 70.4671 18.5498 70.8267 17.6868C71.1863 16.8238 71.6876 16.0794 72.3298 15.4529C72.9722 14.827 73.7333 14.3362 74.6134 13.9805C75.4929 13.6251 76.4637 13.4478 77.5251 13.4478C78.5797 13.4478 79.5448 13.6251 80.4213 13.9805C81.2976 14.3362 82.0587 14.827 82.7044 15.4529C83.3507 16.0794 83.8529 16.8238 84.2131 17.6868C84.5724 18.5498 84.7525 19.4891 84.7525 20.5044C84.7525 21.5131 84.5724 22.4489 84.2131 23.3119C83.8529 24.1752 83.3507 24.9196 82.7044 25.5458C82.0587 26.172 81.2976 26.6625 80.4213 27.0182C79.5448 27.3736 78.5797 27.5512 77.5251 27.5512Z" fill="#007EB5"/>
<path fill-rule="evenodd" clip-rule="evenodd" d="M84.8193 13.793H86.6838L90.9367 24.8202H90.9786L95.3774 13.793H97.1054L91.701 27.2061H90.1195L84.8193 13.793Z" fill="#007EB5"/>
<path fill-rule="evenodd" clip-rule="evenodd" d="M96.4215 25.0532C96.7501 25.0532 97.0276 25.1614 97.2547 25.3781C97.4811 25.5949 97.5951 25.8621 97.5951 26.1805C97.5951 26.4987 97.4743 26.7677 97.2337 26.9874C96.9925 27.2076 96.7218 27.3176 96.4215 27.3176C96.1213 27.3176 95.8511 27.2076 95.6099 26.9874C95.3693 26.7677 95.2485 26.4987 95.2485 26.1805C95.2485 25.8621 95.3643 25.5949 95.594 25.3781C95.8245 25.1614 96.1003 25.0532 96.4215 25.0532Z" fill="#007EB5"/>
<path fill-rule="evenodd" clip-rule="evenodd" d="M107.184 16.1589C106.904 15.7255 106.536 15.4124 106.079 15.2196C105.621 15.0265 105.144 14.9302 104.649 14.9302C104.286 14.9302 103.928 14.9745 103.575 15.0623C103.223 15.1501 102.907 15.2823 102.627 15.4582C102.348 15.6344 102.125 15.868 101.957 16.1589C101.789 16.4498 101.705 16.7919 101.705 17.1842C101.705 17.4887 101.754 17.7581 101.852 17.9916C101.95 18.2249 102.109 18.4369 102.329 18.6264C102.549 18.8156 102.847 18.9918 103.224 19.1544C103.602 19.3167 104.066 19.4826 104.618 19.6517C105.148 19.8075 105.665 19.9817 106.168 20.1747C106.67 20.3678 107.113 20.6079 107.498 20.8955C107.881 21.1832 108.187 21.5454 108.415 21.982C108.641 22.4184 108.755 22.9654 108.755 23.6217C108.755 24.2923 108.618 24.8744 108.346 25.3685C108.074 25.8625 107.713 26.2705 107.262 26.5919C106.812 26.9135 106.295 27.1536 105.712 27.313C105.129 27.472 104.52 27.5513 103.884 27.5513C103.5 27.5513 103.102 27.5158 102.69 27.4448C102.278 27.3739 101.887 27.2654 101.517 27.1199C101.147 26.9744 100.8 26.7849 100.475 26.5511C100.15 26.3178 99.8692 26.0319 99.6318 25.6934L101.035 24.566C101.342 25.0604 101.761 25.4344 102.292 25.6883C102.823 25.942 103.388 26.0691 103.989 26.0691C104.338 26.0691 104.692 26.0183 105.052 25.9169C105.412 25.8152 105.734 25.6665 106.021 25.4699C106.307 25.2735 106.541 25.0317 106.723 24.744C106.904 24.4564 106.995 24.1193 106.995 23.7335C106.995 23.3208 106.923 22.9858 106.78 22.7283C106.637 22.4714 106.417 22.2461 106.121 22.053C105.823 21.8602 105.445 21.6891 104.984 21.5403C104.523 21.3913 103.989 21.2154 103.381 21.0123C102.886 20.8633 102.43 20.6895 102.015 20.4893C101.599 20.2897 101.238 20.0497 100.931 19.7685C100.623 19.4879 100.382 19.1476 100.208 18.7479C100.033 18.3488 99.9457 17.8713 99.9457 17.3164C99.9457 16.6665 100.077 16.103 100.339 15.6258C100.601 15.1486 100.952 14.7492 101.391 14.4275C101.831 14.1062 102.332 13.8626 102.894 13.6967C103.457 13.5308 104.042 13.4478 104.649 13.4478C105.431 13.4478 106.145 13.5663 106.791 13.8031C107.436 14.0402 108.015 14.4465 108.524 15.0218L107.184 16.1589Z" fill="#007EB5"/>
<path fill-rule="evenodd" clip-rule="evenodd" d="M116.184 15.8339H116.152L113.272 22.4337H118.928L116.184 15.8339ZM115.44 13.793H116.99L122.867 27.2061H120.96L119.546 23.9164H112.623L111.209 27.2061H109.344L115.44 13.793Z" fill="#007EB5"/>
<mask id="mask0_122_755" style="mask-type:luminance" maskUnits="userSpaceOnUse" x="4" y="0" width="31" height="27">
<path d="M4.37259 2.35249C3.99203 3.5351 4.63565 4.8067 5.8166 5.1878C6.84993 5.52514 7.94526 5.07279 8.46164 4.16484H17.4401L32.4441 25.8835C32.6596 26.2001 33.008 26.3654 33.362 26.3654C33.5808 26.3654 33.8022 26.3033 33.9968 26.1673C34.5019 25.8155 34.6289 25.1207 34.2776 24.6151L18.9429 2.41458C18.7333 2.11302 18.3908 1.93296 18.0247 1.93296H8.45898C8.19327 1.46258 7.75927 1.09006 7.20717 0.909711C6.97364 0.832842 6.7404 0.797363 6.51041 0.797363C5.56269 0.797363 4.68288 1.40345 4.37259 2.35249Z" fill="url(#paint0_linear_122_755)"/>
</mask>
<g mask="url(#mask0_122_755)">
<path fill-rule="evenodd" clip-rule="evenodd" d="M4.37259 2.35249C3.99203 3.5351 4.63565 4.8067 5.8166 5.1878C6.84993 5.52514 7.94526 5.07279 8.46164 4.16484H17.4401L32.4441 25.8835C32.6596 26.2001 33.008 26.3654 33.362 26.3654C33.5808 26.3654 33.8022 26.3033 33.9968 26.1673C34.5019 25.8155 34.6289 25.1207 34.2776 24.6151L18.9429 2.41458C18.7333 2.11302 18.3908 1.93296 18.0247 1.93296H8.45898C8.19327 1.46258 7.75927 1.09006 7.20717 0.909711C6.97364 0.832842 6.7404 0.797363 6.51041 0.797363C5.56269 0.797363 4.68288 1.40345 4.37259 2.35249Z" fill="url(#paint1_linear_122_755)"/>
</g>
<path d="M4.37259 2.35249C3.99203 3.5351 4.63565 4.8067 5.8166 5.1878C6.84993 5.52514 7.94526 5.07279 8.46164 4.16484H17.4401L32.4441 25.8835C32.6596 26.2001 33.008 26.3654 33.362 26.3654C33.5808 26.3654 33.8022 26.3033 33.9968 26.1673C34.5019 25.8155 34.6289 25.1207 34.2776 24.6151L18.9429 2.41458C18.7333 2.11302 18.3908 1.93296 18.0247 1.93296H8.45898C8.19327 1.46258 7.75927 1.09006 7.20717 0.909711C6.97364 0.832842 6.7404 0.797363 6.51041 0.797363C5.56269 0.797363 4.68288 1.40345 4.37259 2.35249Z" fill="url(#paint2_linear_122_755)"/>
<mask id="mask1_122_755" style="mask-type:luminance" maskUnits="userSpaceOnUse" x="4" y="0" width="31" height="27">
<path d="M4.37259 2.35249C3.99203 3.5351 4.63565 4.8067 5.8166 5.1878C6.84993 5.52514 7.94526 5.07279 8.46164 4.16484H17.4401L32.4441 25.8835C32.6596 26.2001 33.008 26.3654 33.362 26.3654C33.5808 26.3654 33.8022 26.3033 33.9968 26.1673C34.5019 25.8155 34.6289 25.1207 34.2776 24.6151L18.9429 2.41458C18.7333 2.11302 18.3908 1.93296 18.0247 1.93296H8.45898C8.19327 1.46258 7.75927 1.09006 7.20717 0.909711C6.97364 0.832842 6.7404 0.797363 6.51041 0.797363C5.56269 0.797363 4.68288 1.40345 4.37259 2.35249Z" fill="#606060"/>
</mask>
<g mask="url(#mask1_122_755)">
<path fill-rule="evenodd" clip-rule="evenodd" d="M28.7398 37.1768C28.3563 38.3586 29.0023 39.6281 30.1826 40.0121C31.363 40.3965 32.6307 39.7496 33.0139 38.5676C33.3975 37.3856 32.7515 36.116 31.5711 35.732C31.3405 35.6569 31.1064 35.6211 30.8764 35.6211C29.929 35.6211 29.0483 36.2257 28.7398 37.1768ZM27.302 8.65113C26.9185 9.83315 27.5641 11.1027 28.7445 11.4864C29.9249 11.8705 31.1926 11.2236 31.5764 10.0416C31.9597 8.85986 31.3137 7.59033 30.1333 7.20628C29.9027 7.13118 29.6686 7.0957 29.4386 7.0957C28.4915 7.09541 27.6105 7.70002 27.302 8.65113ZM20.2676 16.4729C19.7613 16.8241 19.6352 17.5204 19.986 18.0271L23.9053 23.6924C24.122 24.0058 24.4695 24.1735 24.8232 24.1735C25.0422 24.1735 25.2637 24.109 25.4573 23.9745C25.964 23.6233 26.0897 22.9273 25.739 22.4202L21.8197 16.755C21.603 16.4422 21.2552 16.2742 20.9018 16.2742C20.6827 16.2742 20.4613 16.3387 20.2676 16.4729ZM28.8047 8.42762C28.2978 8.77856 28.1715 9.47452 28.5216 9.98186L39.5062 25.8844C39.7147 26.1863 40.0577 26.366 40.4238 26.366H46.354L44.1066 30.446L24.2395 30.4401L13.1102 14.4101C12.7585 13.9037 12.0636 13.7786 11.5575 14.1307C11.0518 14.4829 10.9269 15.1788 11.2785 15.6853L22.7405 32.1948C22.9487 32.4949 23.2909 32.6741 23.6558 32.6741L44.7647 32.6803C45.171 32.6803 45.5453 32.4588 45.7417 32.1029L49.2196 25.7886C49.4103 25.4427 49.4041 25.0217 49.2036 24.6814C49.0029 24.3408 48.6376 24.1324 48.2429 24.1324H41.0084L30.3565 8.71085C30.1398 8.39746 29.792 8.22923 29.4383 8.22923C29.2195 8.22923 28.9984 8.29369 28.8047 8.42762ZM1.2233 8.22953C0.808196 8.22953 0.427634 8.46014 0.235434 8.82823C0.0426437 9.19631 0.0701005 9.64097 0.306586 9.98275L20.0412 38.496C20.2493 38.7973 20.5918 38.9768 20.9579 38.9768H30.0288C30.6447 38.9768 31.1442 38.4765 31.1442 37.8598C31.1442 37.2431 30.6447 36.7428 30.0288 36.7428H21.5419L3.35344 10.4632H15.3115C15.9273 10.4632 16.4269 9.96323 16.4269 9.3465C16.4269 8.72977 15.9273 8.22953 15.3115 8.22953H1.2233Z" fill="#606060"/>
</g>
<mask id="mask2_122_755" style="mask-type:luminance" maskUnits="userSpaceOnUse" x="0" y="7" width="50" height="34">
<path d="M27.3019 8.65113C26.9183 9.83315 27.564 11.1027 28.7444 11.4864C29.0396 11.5825 29.3408 11.6139 29.6316 11.589L39.5061 25.8844C39.7148 26.1863 40.0579 26.366 40.4237 26.366H46.3539L44.1065 30.446L24.2396 30.4401L13.1101 14.4101C12.7584 13.9037 12.0634 13.7786 11.5574 14.1307C11.0517 14.4829 10.9268 15.1788 11.2784 15.6853L22.7404 32.1948C22.9486 32.4949 23.291 32.6741 23.6557 32.6741L44.7646 32.6803H44.7649C45.1711 32.6803 45.5452 32.4588 45.7415 32.1029L49.2194 25.7886C49.4102 25.4427 49.404 25.0217 49.2035 24.6814C49.0027 24.3408 48.6375 24.1321 48.2428 24.1321H41.0083L31.4665 10.3177C31.5084 10.2293 31.5453 10.1374 31.5763 10.0416C31.9595 8.85986 31.3135 7.59033 30.1332 7.20628C29.9026 7.13118 29.6685 7.0957 29.4385 7.0957C28.4914 7.09541 27.6104 7.70002 27.3019 8.65113ZM1.22347 8.22953C0.808074 8.22953 0.427512 8.46014 0.235312 8.82823C0.0425213 9.19631 0.0702736 9.64097 0.306759 9.98275L20.0414 38.496C20.2492 38.7973 20.5917 38.9768 20.9581 38.9768H28.9192C29.1861 39.451 29.6245 39.8306 30.1825 40.0121C31.3629 40.3965 32.6309 39.7496 33.0138 38.5673C33.3973 37.3856 32.7514 36.116 31.571 35.732C31.3404 35.6569 31.1063 35.6211 30.8763 35.6211C30.0827 35.6211 29.3355 36.0454 28.9325 36.7428H21.5418L3.35332 10.4632H15.3116C15.9272 10.4632 16.4268 9.96294 16.4268 9.3465C16.4268 8.72977 15.9272 8.22953 15.3116 8.22953H1.22347ZM20.2675 16.4729C19.7612 16.8241 19.6351 17.5204 19.9859 18.0271L23.9051 23.6924C24.1218 24.0058 24.4693 24.1735 24.823 24.1735C25.0421 24.1735 25.2635 24.109 25.4572 23.9745C25.9641 23.6233 26.0896 22.9273 25.7389 22.4202L21.8196 16.755C21.6029 16.4422 21.2551 16.2742 20.9017 16.2742C20.6826 16.2742 20.4615 16.3387 20.2675 16.4729Z" fill="url(#paint3_linear_122_755)"/>
</mask>
<g mask="url(#mask2_122_755)">
<path d="M27.3019 8.65113C26.9183 9.83315 27.564 11.1027 28.7444 11.4864C29.0396 11.5825 29.3408 11.6139 29.6316 11.589L39.5061 25.8844C39.7148 26.1863 40.0579 26.366 40.4237 26.366H46.3539L44.1065 30.446L24.2396 30.4401L13.1101 14.4101C12.7584 13.9037 12.0634 13.7786 11.5574 14.1307C11.0517 14.4829 10.9268 15.1788 11.2784 15.6853L22.7404 32.1948C22.9486 32.4949 23.291 32.6741 23.6557 32.6741L44.7646 32.6803C45.1708 32.6803 45.5452 32.4588 45.7415 32.1029L49.2194 25.7886C49.4102 25.4427 49.404 25.0217 49.2035 24.6814C49.0027 24.3408 48.6375 24.1321 48.2428 24.1321H41.0083L31.4665 10.3177C31.5084 10.2293 31.5453 10.1374 31.5763 10.0416C31.9595 8.85986 31.3135 7.59033 30.1332 7.20628C29.9026 7.13118 29.6685 7.0957 29.4385 7.0957C28.4914 7.09541 27.6104 7.70002 27.3019 8.65113ZM1.22347 8.22953C0.808074 8.22953 0.427512 8.46014 0.235312 8.82823C0.0425213 9.19631 0.0702736 9.64097 0.306759 9.98275L20.0414 38.496C20.2492 38.7973 20.5917 38.9768 20.9581 38.9768H28.9192C29.1861 39.451 29.6245 39.8306 30.1825 40.0121C31.3629 40.3965 32.6309 39.7496 33.0138 38.5673C33.3973 37.3856 32.7514 36.116 31.571 35.732C31.3404 35.6569 31.1063 35.6211 30.8763 35.6211C30.0827 35.6211 29.3355 36.0454 28.9325 36.7428H21.5418L3.35332 10.4632H15.3116C15.9272 10.4632 16.4268 9.96294 16.4268 9.3465C16.4268 8.72977 15.9272 8.22953 15.3116 8.22953H1.22347ZM20.2675 16.4729C19.7612 16.8241 19.6351 17.5204 19.9859 18.0271L23.9051 23.6924C24.1218 24.0058 24.4693 24.1735 24.823 24.1735C25.0421 24.1735 25.2635 24.109 25.4572 23.9745C25.9641 23.6233 26.0896 22.9273 25.7389 22.4202L21.8196 16.755C21.6029 16.4422 21.2551 16.2742 20.9017 16.2742C20.6826 16.2742 20.4615 16.3387 20.2675 16.4729Z" fill="url(#paint4_linear_122_755)"/>
</g>
<mask id="mask3_122_755" style="mask-type:luminance" maskUnits="userSpaceOnUse" x="0" y="0" width="124" height="41">
<path d="M0 40.7736H124V0.564941H0V40.7736Z" fill="#37326D"/>
</mask>
<g mask="url(#mask3_122_755)">
<path d="M57.9278 38.8256C58.2219 38.8256 58.4716 38.7779 58.6771 38.6826C58.8825 38.5874 59.049 38.4601 59.1766 38.301C59.3042 38.1418 59.3977 37.9572 59.4572 37.7472C59.5166 37.5371 59.5463 37.3141 59.5463 37.0781V34.4243H59.0371V37.0034C59.0371 37.1809 59.0187 37.3498 58.982 37.5101C58.9452 37.6703 58.8847 37.8132 58.8003 37.9388C58.716 38.0644 58.6019 38.1646 58.4581 38.2393C58.3143 38.314 58.1376 38.3513 57.9278 38.3513C57.7137 38.3513 57.5364 38.314 57.3959 38.2393C57.2553 38.1646 57.1423 38.0644 57.0569 37.9388C56.9715 37.8132 56.9109 37.6703 56.8753 37.5101C56.8396 37.3498 56.8217 37.1809 56.8217 37.0034V34.4243H56.3125V37.0781C56.3125 37.3141 56.3417 37.5371 56.4001 37.7472C56.4585 37.9572 56.5509 38.1418 56.6774 38.301C56.8039 38.4601 56.9704 38.5874 57.1769 38.6826C57.3834 38.7779 57.6337 38.8256 57.9278 38.8256ZM60.9735 38.7151V37.3347C60.9735 37.1723 60.9908 37.0245 61.0254 36.8913C61.06 36.7581 61.1125 36.6434 61.1827 36.547C61.253 36.4506 61.3438 36.3754 61.4552 36.3212C61.5666 36.2671 61.699 36.24 61.8525 36.24C62.0753 36.24 62.2385 36.3083 62.3423 36.4447C62.4461 36.5811 62.498 36.7706 62.498 37.0131V38.7151H62.9716V36.9644C62.9716 36.7933 62.9505 36.6363 62.9083 36.4934C62.8662 36.3505 62.8007 36.2281 62.7121 36.1264C62.6234 36.0246 62.511 35.9455 62.3748 35.8892C62.2385 35.8329 62.0774 35.8048 61.8915 35.8048C61.7769 35.8048 61.6687 35.8205 61.5671 35.8519C61.4655 35.8833 61.3746 35.9239 61.2946 35.9737C61.2146 36.0235 61.1449 36.0803 61.0854 36.1442C61.026 36.2081 60.9811 36.2747 60.9508 36.344H60.9378C60.9378 36.2639 60.9357 36.1854 60.9314 36.1085C60.927 36.0316 60.9249 35.9553 60.9249 35.8795H60.4773C60.4773 35.9726 60.481 36.0755 60.4886 36.1881C60.4962 36.3007 60.5 36.4219 60.5 36.5519V38.7151H60.9735ZM64.1425 35.1129C64.242 35.1129 64.3236 35.081 64.3874 35.0171C64.4512 34.9532 64.4831 34.8715 64.4831 34.7719C64.4831 34.6788 64.4501 34.5976 64.3842 34.5283C64.3182 34.459 64.2377 34.4243 64.1425 34.4243C64.0452 34.4243 63.963 34.459 63.896 34.5283C63.829 34.5976 63.7954 34.6788 63.7954 34.7719C63.7954 34.8715 63.8279 34.9532 63.8928 35.0171C63.9576 35.081 64.0409 35.1129 64.1425 35.1129ZM64.376 38.7151V35.8795H63.9057V38.7151H64.376ZM66.0238 38.7151V36.279H66.7114V35.8795H66.0238V35.3436C66.0238 35.2245 66.027 35.1119 66.0335 35.0058C66.04 34.8997 66.0605 34.8098 66.0951 34.7362C66.1297 34.6625 66.1806 34.6046 66.2476 34.5624C66.3146 34.5202 66.4098 34.499 66.533 34.499C66.6368 34.499 66.7428 34.5185 66.8509 34.5575L66.919 34.1353C66.8736 34.1093 66.8168 34.0903 66.7487 34.0784C66.6806 34.0665 66.6163 34.0605 66.5557 34.0605C66.3676 34.0605 66.2087 34.0903 66.0789 34.1499C65.9492 34.2094 65.8448 34.2912 65.7659 34.3951C65.687 34.499 65.6313 34.6225 65.5989 34.7654C65.5664 34.9083 65.5502 35.0664 65.5502 35.2396V35.8795H64.9339V36.279H65.5502V38.7151H66.0238ZM67.3828 35.1129C67.4866 35.1129 67.5704 35.081 67.6342 35.0171C67.698 34.9532 67.7299 34.8715 67.7299 34.7719C67.7299 34.6788 67.6969 34.5976 67.631 34.5283C67.565 34.459 67.4823 34.4243 67.3828 34.4243C67.2877 34.4243 67.2072 34.459 67.1412 34.5283C67.0752 34.5976 67.0423 34.6788 67.0423 34.7719C67.0423 34.8715 67.0742 34.9532 67.138 35.0171C67.2017 35.081 67.2834 35.1129 67.3828 35.1129ZM67.6196 38.7151V35.8795H67.1493V38.7151H67.6196ZM69.8285 38.7898C70.0966 38.7898 70.3313 38.7465 70.5324 38.6599C70.7335 38.5733 70.9184 38.4195 71.087 38.1987L70.7335 37.9226C70.6189 38.0633 70.4913 38.17 70.3507 38.2425C70.2102 38.3151 70.0361 38.3513 69.8285 38.3513C69.7009 38.3513 69.5825 38.327 69.4733 38.2782C69.3641 38.2295 69.269 38.164 69.1879 38.0817C69.1068 37.9995 69.0409 37.9025 68.99 37.791C68.9392 37.6795 68.9106 37.5631 68.9041 37.4419H71.1908V37.2924C71.1908 37.0564 71.1589 36.8469 71.0951 36.6639C71.0313 36.4809 70.9394 36.3256 70.8194 36.1978C70.6994 36.0701 70.5567 35.9726 70.3913 35.9055C70.2259 35.8384 70.0447 35.8048 69.848 35.8048C69.6382 35.8048 69.4447 35.8416 69.2674 35.9152C69.0901 35.9889 68.9365 36.0912 68.8068 36.2222C68.677 36.3532 68.5759 36.5102 68.5035 36.6932C68.4311 36.8761 68.3948 37.0781 68.3948 37.2989C68.3948 37.5025 68.4284 37.6957 68.4954 37.8787C68.5624 38.0617 68.6576 38.2198 68.7808 38.353C68.9041 38.4861 69.0544 38.5922 69.2317 38.6713C69.409 38.7503 69.6079 38.7898 69.8285 38.7898ZM70.6816 37.0423H68.9041C68.9344 36.7998 69.0295 36.6055 69.1895 36.4593C69.3495 36.3131 69.5625 36.24 69.8285 36.24C70.0966 36.24 70.3037 36.3131 70.4497 36.4593C70.5956 36.6055 70.6729 36.7998 70.6816 37.0423ZM73.1694 38.7898C73.4246 38.7898 73.6484 38.7341 73.8408 38.6225C74.0333 38.511 74.1738 38.3741 74.2625 38.2117H74.2722V38.7151H74.7458V34.1353H74.2722V36.292H74.2625C74.1306 36.1383 73.9792 36.0186 73.8084 35.9331C73.6376 35.8476 73.4494 35.8048 73.244 35.8048C73.0213 35.8048 72.8185 35.8427 72.6358 35.9185C72.4531 35.9943 72.2969 36.0987 72.1671 36.2319C72.0374 36.3651 71.9363 36.5221 71.8639 36.7029C71.7914 36.8837 71.7552 37.0824 71.7552 37.2989C71.7552 37.5111 71.7914 37.7087 71.8639 37.8917C71.9363 38.0747 72.0363 38.2328 72.1639 38.3659C72.2915 38.4991 72.4407 38.6031 72.6115 38.6778C72.7823 38.7525 72.9683 38.7898 73.1694 38.7898ZM73.2667 38.3513C73.1132 38.3513 72.9753 38.3243 72.8532 38.2701C72.731 38.216 72.6256 38.1413 72.5369 38.046C72.4482 37.9507 72.3807 37.8397 72.3342 37.7131C72.2877 37.5864 72.2644 37.4483 72.2644 37.2989C72.2644 37.1474 72.2877 37.0082 72.3342 36.8816C72.3807 36.7549 72.4482 36.6439 72.5369 36.5486C72.6256 36.4533 72.731 36.3781 72.8532 36.3229C72.9753 36.2677 73.1132 36.24 73.2667 36.24C73.4224 36.24 73.5613 36.2677 73.6835 36.3229C73.8057 36.3781 73.9111 36.4533 73.9998 36.5486C74.0884 36.6439 74.156 36.7549 74.2025 36.8816C74.249 37.0082 74.2722 37.1474 74.2722 37.2989C74.2722 37.4483 74.249 37.5864 74.2025 37.7131C74.156 37.8397 74.0884 37.9507 73.9998 38.046C73.9111 38.1413 73.8057 38.216 73.6835 38.2701C73.5613 38.3243 73.4224 38.3513 73.2667 38.3513ZM77.5028 38.7151V35.1519H77.5126L79.9971 38.7151H80.6361V34.4243H80.1301V37.9875H80.1171L77.6358 34.4243H76.9936V38.7151H77.5028ZM82.5044 38.7898C82.7228 38.7898 82.9099 38.7427 83.0656 38.6485C83.2213 38.5543 83.3456 38.4358 83.4386 38.2929H83.4516C83.4516 38.3513 83.4526 38.4201 83.4548 38.4991C83.457 38.5782 83.4656 38.6502 83.4807 38.7151H83.9349C83.924 38.6415 83.9143 38.5614 83.9057 38.4748C83.897 38.3881 83.8927 38.3048 83.8927 38.2247V37.0034C83.8927 36.6028 83.8008 36.3028 83.617 36.1036C83.4332 35.9044 83.1294 35.8048 82.7055 35.8048C82.5001 35.8048 82.2979 35.8405 82.099 35.912C81.9 35.9834 81.727 36.0928 81.58 36.24L81.8752 36.5519C81.9898 36.4479 82.1206 36.37 82.2676 36.318C82.4147 36.266 82.565 36.24 82.7185 36.24C82.9412 36.24 83.1142 36.2931 83.2375 36.3992C83.3607 36.5053 83.4224 36.6612 83.4224 36.8669V36.9514H83.2375C83.0645 36.9514 82.8742 36.9595 82.6666 36.9757C82.459 36.992 82.2655 37.0326 82.086 37.0976C81.9065 37.1625 81.7562 37.2616 81.6351 37.3948C81.5141 37.5279 81.4535 37.7114 81.4535 37.9453C81.4535 38.0839 81.4816 38.2052 81.5378 38.3091C81.5941 38.413 81.6698 38.5007 81.7649 38.5722C81.86 38.6437 81.9714 38.6978 82.099 38.7346C82.2266 38.7714 82.3617 38.7898 82.5044 38.7898ZM82.5855 38.3871C82.4082 38.3871 82.2601 38.3502 82.1411 38.2766C82.0222 38.203 81.9628 38.0774 81.9628 37.8998C81.9628 37.7028 82.0514 37.562 82.2287 37.4776C82.406 37.3931 82.6461 37.3509 82.9488 37.3509H83.4224V37.5328C83.418 37.6497 83.3975 37.7596 83.3607 37.8625C83.324 37.9653 83.271 38.0552 83.2018 38.1321C83.1326 38.209 83.0472 38.2707 82.9456 38.3172C82.8439 38.3638 82.7239 38.3871 82.5855 38.3871ZM85.774 38.7898C85.8626 38.7898 85.9561 38.7812 86.0545 38.7638C86.1529 38.7465 86.2421 38.7205 86.3221 38.6859L86.3059 38.2539C86.2432 38.2864 86.1751 38.3107 86.1016 38.327C86.028 38.3432 85.9567 38.3513 85.8875 38.3513C85.7837 38.3513 85.7031 38.334 85.6458 38.2994C85.5885 38.2647 85.5464 38.2182 85.5193 38.1597C85.4923 38.1012 85.4766 38.0325 85.4723 37.9534C85.468 37.8744 85.4658 37.7894 85.4658 37.6985V36.279H86.2994V35.8795H85.4658V35.074H84.9923V35.8795H84.376V36.279H84.9923V37.8349C84.9923 37.9821 85.0014 38.1153 85.0198 38.2344C85.0382 38.3535 85.076 38.4536 85.1334 38.5348C85.1907 38.6161 85.2696 38.6789 85.3701 38.7232C85.4707 38.7676 85.6053 38.7898 85.774 38.7898ZM87.159 35.1129C87.2584 35.1129 87.3401 35.081 87.4039 35.0171C87.4676 34.9532 87.4995 34.8715 87.4995 34.7719C87.4995 34.6788 87.4666 34.5976 87.4006 34.5283C87.3347 34.459 87.2541 34.4243 87.159 34.4243C87.0617 34.4243 86.9795 34.459 86.9125 34.5283C86.8454 34.5976 86.8119 34.6788 86.8119 34.7719C86.8119 34.8715 86.8443 34.9532 86.9092 35.0171C86.9741 35.081 87.0573 35.1129 87.159 35.1129ZM87.3925 38.7151V35.8795H86.9222V38.7151H87.3925ZM89.676 38.7898C89.8965 38.7898 90.0993 38.753 90.2842 38.6794C90.469 38.6058 90.628 38.5035 90.761 38.3724C90.894 38.2414 90.9988 38.085 91.0756 37.9031C91.1524 37.7212 91.1907 37.5198 91.1907 37.2989C91.1907 37.0759 91.1524 36.8734 91.0756 36.6915C90.9988 36.5096 90.894 36.3532 90.761 36.2222C90.628 36.0912 90.469 35.9889 90.2842 35.9152C90.0993 35.8416 89.8965 35.8048 89.676 35.8048C89.4576 35.8048 89.2559 35.8416 89.0711 35.9152C88.8862 35.9889 88.7272 36.0912 88.5943 36.2222C88.4613 36.3532 88.3564 36.5096 88.2796 36.6915C88.2029 36.8734 88.1645 37.0759 88.1645 37.2989C88.1645 37.5198 88.2029 37.7212 88.2796 37.9031C88.3564 38.085 88.4613 38.2414 88.5943 38.3724C88.7272 38.5035 88.8862 38.6058 89.0711 38.6794C89.2559 38.753 89.4576 38.7898 89.676 38.7898ZM89.676 38.3513C89.5225 38.3513 89.3846 38.3243 89.2624 38.2701C89.1403 38.216 89.0348 38.1413 88.9462 38.046C88.8575 37.9507 88.79 37.8397 88.7435 37.7131C88.697 37.5864 88.6737 37.4483 88.6737 37.2989C88.6737 37.1474 88.697 37.0082 88.7435 36.8816C88.79 36.7549 88.8575 36.6439 88.9462 36.5486C89.0348 36.4533 89.1403 36.3781 89.2624 36.3229C89.3846 36.2677 89.5225 36.24 89.676 36.24C89.8317 36.24 89.9706 36.2677 90.0928 36.3229C90.215 36.3781 90.3204 36.4533 90.409 36.5486C90.4977 36.6439 90.5653 36.7549 90.6118 36.8816C90.6583 37.0082 90.6815 37.1474 90.6815 37.2989C90.6815 37.4483 90.6583 37.5864 90.6118 37.7131C90.5653 37.8397 90.4977 37.9507 90.409 38.046C90.3204 38.1413 90.215 38.216 90.0928 38.2701C89.9706 38.3243 89.8317 38.3513 89.676 38.3513ZM92.3909 38.7151V37.3347C92.3909 37.1723 92.4082 37.0245 92.4428 36.8913C92.4774 36.7581 92.5298 36.6434 92.6001 36.547C92.6704 36.4506 92.7612 36.3754 92.8725 36.3212C92.9839 36.2671 93.1164 36.24 93.2699 36.24C93.4926 36.24 93.6559 36.3083 93.7597 36.4447C93.8635 36.5811 93.9154 36.7706 93.9154 37.0131V38.7151H94.3889V36.9644C94.3889 36.7933 94.3678 36.6363 94.3257 36.4934C94.2835 36.3505 94.2181 36.2281 94.1294 36.1264C94.0408 36.0246 93.9283 35.9455 93.7921 35.8892C93.6559 35.8329 93.4948 35.8048 93.3088 35.8048C93.1942 35.8048 93.0861 35.8205 92.9844 35.8519C92.8828 35.8833 92.792 35.9239 92.712 35.9737C92.632 36.0235 92.5622 36.0803 92.5028 36.1442C92.4433 36.2081 92.3984 36.2747 92.3682 36.344H92.3552C92.3552 36.2639 92.353 36.1854 92.3487 36.1085C92.3444 36.0316 92.3422 35.9553 92.3422 35.8795H91.8946C91.8946 35.9726 91.8984 36.0755 91.906 36.1881C91.9135 36.3007 91.9173 36.4219 91.9173 36.5519V38.7151H92.3909ZM96.1664 38.7898C96.3848 38.7898 96.5718 38.7427 96.7275 38.6485C96.8832 38.5543 97.0076 38.4358 97.1005 38.2929H97.1135C97.1135 38.3513 97.1146 38.4201 97.1168 38.4991C97.1189 38.5782 97.1276 38.6502 97.1427 38.7151H97.5968C97.586 38.6415 97.5763 38.5614 97.5676 38.4748C97.559 38.3881 97.5546 38.3048 97.5546 38.2247V37.0034C97.5546 36.6028 97.4627 36.3028 97.2789 36.1036C97.0951 35.9044 96.7913 35.8048 96.3675 35.8048C96.1621 35.8048 95.9599 35.8405 95.7609 35.912C95.562 35.9834 95.389 36.0928 95.242 36.24L95.5371 36.5519C95.6518 36.4479 95.7826 36.37 95.9296 36.318C96.0767 36.266 96.2269 36.24 96.3805 36.24C96.6032 36.24 96.7762 36.2931 96.8995 36.3992C97.0227 36.5053 97.0843 36.6612 97.0843 36.8669V36.9514H96.8995C96.7265 36.9514 96.5362 36.9595 96.3286 36.9757C96.121 36.992 95.9275 37.0326 95.748 37.0976C95.5685 37.1625 95.4182 37.2616 95.2971 37.3948C95.176 37.5279 95.1155 37.7114 95.1155 37.9453C95.1155 38.0839 95.1436 38.2052 95.1998 38.3091C95.256 38.413 95.3317 38.5007 95.4269 38.5722C95.522 38.6437 95.6334 38.6978 95.7609 38.7346C95.8885 38.7714 96.0237 38.7898 96.1664 38.7898ZM96.2475 38.3871C96.0702 38.3871 95.922 38.3502 95.8031 38.2766C95.6842 38.203 95.6247 38.0774 95.6247 37.8998C95.6247 37.7028 95.7134 37.562 95.8907 37.4776C96.068 37.3931 96.308 37.3509 96.6108 37.3509H97.0843V37.5328C97.08 37.6497 97.0595 37.7596 97.0227 37.8625C96.9859 37.9653 96.933 38.0552 96.8638 38.1321C96.7946 38.209 96.7092 38.2707 96.6075 38.3172C96.5059 38.3638 96.3859 38.3871 96.2475 38.3871ZM98.9299 38.7151V34.1353H98.4564V38.7151H98.9299ZM101.755 38.7151V36.789H102.615C102.764 36.789 102.921 36.7706 103.087 36.7338C103.252 36.6969 103.404 36.6341 103.544 36.5454C103.683 36.4566 103.797 36.3353 103.886 36.1816C103.975 36.0278 104.019 35.834 104.019 35.6002C104.019 35.3793 103.977 35.1925 103.894 35.0399C103.811 34.8872 103.7 34.7659 103.562 34.6761C103.423 34.5862 103.264 34.5218 103.083 34.4828C102.903 34.4438 102.714 34.4243 102.517 34.4243H101.246V38.7151H101.755ZM102.615 36.3148H101.755V34.8986H102.615C102.868 34.8986 103.074 34.9554 103.234 35.0691C103.394 35.1828 103.474 35.362 103.474 35.6067C103.474 35.8492 103.394 36.0278 103.234 36.1426C103.074 36.2574 102.868 36.3148 102.615 36.3148ZM105.261 38.7151V34.1353H104.788V38.7151H105.261ZM107.084 38.7898C107.303 38.7898 107.49 38.7427 107.645 38.6485C107.801 38.5543 107.925 38.4358 108.018 38.2929H108.031C108.031 38.3513 108.033 38.4201 108.035 38.4991C108.037 38.5782 108.045 38.6502 108.061 38.7151H108.515C108.504 38.6415 108.494 38.5614 108.486 38.4748C108.477 38.3881 108.473 38.3048 108.473 38.2247V37.0034C108.473 36.6028 108.381 36.3028 108.197 36.1036C108.013 35.9044 107.709 35.8048 107.285 35.8048C107.08 35.8048 106.878 35.8405 106.679 35.912C106.48 35.9834 106.307 36.0928 106.16 36.24L106.455 36.5519C106.57 36.4479 106.7 36.37 106.848 36.318C106.995 36.266 107.145 36.24 107.298 36.24C107.521 36.24 107.694 36.2931 107.817 36.3992C107.941 36.5053 108.002 36.6612 108.002 36.8669V36.9514H107.817C107.644 36.9514 107.454 36.9595 107.246 36.9757C107.039 36.992 106.845 37.0326 106.666 37.0976C106.486 37.1625 106.336 37.2616 106.215 37.3948C106.094 37.5279 106.033 37.7114 106.033 37.9453C106.033 38.0839 106.061 38.2052 106.118 38.3091C106.174 38.413 106.25 38.5007 106.345 38.5722C106.44 38.6437 106.551 38.6978 106.679 38.7346C106.806 38.7714 106.942 38.7898 107.084 38.7898ZM107.165 38.3871C106.988 38.3871 106.84 38.3502 106.721 38.2766C106.602 38.203 106.543 38.0774 106.543 37.8998C106.543 37.7028 106.631 37.562 106.809 37.4776C106.986 37.3931 107.226 37.3509 107.529 37.3509H108.002V37.5328C107.998 37.6497 107.977 37.7596 107.941 37.8625C107.904 37.9653 107.851 38.0552 107.782 38.1321C107.712 38.209 107.627 38.2707 107.525 38.3172C107.424 38.3638 107.304 38.3871 107.165 38.3871ZM110.354 38.7898C110.442 38.7898 110.536 38.7812 110.634 38.7638C110.733 38.7465 110.822 38.7205 110.902 38.6859L110.886 38.2539C110.823 38.2864 110.755 38.3107 110.681 38.327C110.608 38.3432 110.537 38.3513 110.467 38.3513C110.364 38.3513 110.283 38.334 110.226 38.2994C110.168 38.2647 110.126 38.2182 110.099 38.1597C110.072 38.1012 110.056 38.0325 110.052 37.9534C110.048 37.8744 110.046 37.7894 110.046 37.6985V36.279H110.879V35.8795H110.046V35.074H109.572V35.8795H108.956V36.279H109.572V37.8349C109.572 37.9821 109.581 38.1153 109.6 38.2344C109.618 38.3535 109.656 38.4536 109.713 38.5348C109.771 38.6161 109.849 38.6789 109.95 38.7232C110.051 38.7676 110.185 38.7898 110.354 38.7898ZM112.17 38.7151V36.279H112.858V35.8795H112.17V35.3436C112.17 35.2245 112.173 35.1119 112.18 35.0058C112.186 34.8997 112.207 34.8098 112.242 34.7362C112.276 34.6625 112.327 34.6046 112.394 34.5624C112.461 34.5202 112.556 34.499 112.679 34.499C112.783 34.499 112.889 34.5185 112.997 34.5575L113.065 34.1353C113.02 34.1093 112.963 34.0903 112.895 34.0784C112.827 34.0665 112.763 34.0605 112.702 34.0605C112.514 34.0605 112.355 34.0903 112.225 34.1499C112.096 34.2094 111.991 34.2912 111.912 34.3951C111.833 34.499 111.778 34.6225 111.745 34.7654C111.713 34.9083 111.697 35.0664 111.697 35.2396V35.8795H111.08V36.279H111.697V38.7151H112.17ZM114.71 38.7898C114.931 38.7898 115.133 38.753 115.318 38.6794C115.503 38.6058 115.662 38.5035 115.795 38.3724C115.928 38.2414 116.033 38.085 116.11 37.9031C116.186 37.7212 116.225 37.5198 116.225 37.2989C116.225 37.0759 116.186 36.8734 116.11 36.6915C116.033 36.5096 115.928 36.3532 115.795 36.2222C115.662 36.0912 115.503 35.9889 115.318 35.9152C115.133 35.8416 114.931 35.8048 114.71 35.8048C114.492 35.8048 114.29 35.8416 114.105 35.9152C113.92 35.9889 113.761 36.0912 113.628 36.2222C113.495 36.3532 113.39 36.5096 113.314 36.6915C113.237 36.8734 113.198 37.0759 113.198 37.2989C113.198 37.5198 113.237 37.7212 113.314 37.9031C113.39 38.085 113.495 38.2414 113.628 38.3724C113.761 38.5035 113.92 38.6058 114.105 38.6794C114.29 38.753 114.492 38.7898 114.71 38.7898ZM114.71 38.3513C114.556 38.3513 114.419 38.3243 114.296 38.2701C114.174 38.216 114.069 38.1413 113.98 38.046C113.891 37.9507 113.824 37.8397 113.777 37.7131C113.731 37.5864 113.708 37.4483 113.708 37.2989C113.708 37.1474 113.731 37.0082 113.777 36.8816C113.824 36.7549 113.891 36.6439 113.98 36.5486C114.069 36.4533 114.174 36.3781 114.296 36.3229C114.419 36.2677 114.556 36.24 114.71 36.24C114.866 36.24 115.005 36.2677 115.127 36.3229C115.249 36.3781 115.354 36.4533 115.443 36.5486C115.532 36.6439 115.599 36.7549 115.646 36.8816C115.692 37.0082 115.715 37.1474 115.715 37.2989C115.715 37.4483 115.692 37.5864 115.646 37.7131C115.599 37.8397 115.532 37.9507 115.443 38.046C115.354 38.1413 115.249 38.216 115.127 38.2701C115.005 38.3243 114.866 38.3513 114.71 38.3513ZM117.425 38.7151V37.3347C117.425 37.0055 117.49 36.7473 117.621 36.56C117.752 36.3727 117.963 36.279 118.255 36.279C118.344 36.279 118.428 36.2909 118.508 36.3148L118.541 35.8373C118.482 35.8156 118.416 35.8048 118.343 35.8048C118.228 35.8048 118.12 35.8205 118.018 35.8519C117.917 35.8833 117.826 35.9239 117.746 35.9737C117.666 36.0235 117.596 36.0803 117.537 36.1442C117.477 36.2081 117.432 36.2747 117.402 36.344H117.389C117.389 36.2639 117.387 36.1854 117.383 36.1085C117.378 36.0316 117.376 35.9553 117.376 35.8795H116.929C116.929 35.9726 116.932 36.0755 116.94 36.1881C116.947 36.3007 116.951 36.4219 116.951 36.5519V38.7151H117.425ZM119.549 38.7151V37.3347C119.549 37.1723 119.567 37.0245 119.601 36.8913C119.636 36.7581 119.688 36.6434 119.759 36.547C119.829 36.4506 119.92 36.3754 120.031 36.3212C120.142 36.2671 120.275 36.24 120.428 36.24C120.621 36.24 120.759 36.3061 120.844 36.4382C120.928 36.5703 120.97 36.7933 120.97 37.1073V38.7151H121.444V37.0781C121.444 36.9546 121.463 36.8409 121.502 36.737C121.541 36.6331 121.593 36.5448 121.659 36.4723C121.725 36.3997 121.803 36.3429 121.891 36.3018C121.98 36.2606 122.075 36.24 122.177 36.24C122.313 36.24 122.426 36.2622 122.516 36.3066C122.605 36.351 122.676 36.41 122.728 36.4837C122.78 36.5573 122.816 36.6401 122.835 36.7321C122.855 36.8242 122.864 36.92 122.864 37.0196V38.7151H123.338V36.9936C123.338 36.8117 123.32 36.6471 123.283 36.4999C123.246 36.3526 123.185 36.2276 123.101 36.1247C123.017 36.0219 122.906 35.9428 122.769 35.8876C122.631 35.8324 122.461 35.8048 122.258 35.8048C122.042 35.8048 121.865 35.8524 121.729 35.9477C121.593 36.043 121.471 36.1751 121.363 36.344C121.339 36.2963 121.308 36.2411 121.27 36.1783C121.232 36.1155 121.179 36.0571 121.111 36.0029C121.043 35.9488 120.957 35.9022 120.853 35.8633C120.75 35.8243 120.621 35.8048 120.467 35.8048C120.353 35.8048 120.245 35.8205 120.143 35.8519C120.041 35.8833 119.951 35.9239 119.87 35.9737C119.79 36.0235 119.721 36.0803 119.661 36.1442C119.602 36.2081 119.557 36.2747 119.527 36.344H119.514C119.514 36.2639 119.512 36.1854 119.507 36.1085C119.503 36.0316 119.501 35.9553 119.501 35.8795H119.053C119.053 35.9726 119.057 36.0755 119.064 36.1881C119.072 36.3007 119.076 36.4219 119.076 36.5519V38.7151H119.549Z" fill="#37326D"/>
</g>
</g>
<defs>
<linearGradient id="paint0_linear_122_755" x1="-654.104" y1="1943.46" x2="4756.63" y2="1943.46" gradientUnits="userSpaceOnUse">
<stop stop-color="#1A9382"/>
<stop offset="1" stop-color="#04443D"/>
</linearGradient>
<linearGradient id="paint1_linear_122_755" x1="-654.104" y1="1943.46" x2="4756.63" y2="1943.46" gradientUnits="userSpaceOnUse">
<stop stop-color="#1A9382"/>
<stop offset="1" stop-color="#04443D"/>
</linearGradient>
<linearGradient id="paint2_linear_122_755" x1="1514.94" y1="399.688" x2="1514.94" y2="3170.28" gradientUnits="userSpaceOnUse">
<stop stop-color="#29B3B4"/>
<stop offset="0.2747" stop-color="#0F92B5"/>
<stop offset="0.4756" stop-color="#007EB5"/>
<stop offset="1" stop-color="#6F4B99"/>
</linearGradient>
<linearGradient id="paint3_linear_122_755" x1="2462.63" y1="-690.79" x2="2462.63" y2="2607.5" gradientUnits="userSpaceOnUse">
<stop stop-color="#29B3B4"/>
<stop offset="0.438567" stop-color="#0F92B5"/>
<stop offset="0.709862" stop-color="#007EB5"/>
<stop offset="1" stop-color="#6F4B99"/>
</linearGradient>
<linearGradient id="paint4_linear_122_755" x1="2462.63" y1="-690.79" x2="2462.63" y2="2607.5" gradientUnits="userSpaceOnUse">
<stop stop-color="#29B3B4"/>
<stop offset="0.438567" stop-color="#0F92B5"/>
<stop offset="0.709862" stop-color="#007EB5"/>
<stop offset="1" stop-color="#6F4B99"/>
</linearGradient>
<clipPath id="clip0_122_755">
<rect width="124" height="42" fill="white" transform="translate(0 0.280273)"/>
</clipPath>
</defs>
</svg>
