<svg width="46" height="46" viewBox="0 0 46 46" fill="none" xmlns="http://www.w3.org/2000/svg">
<path d="M28.625 38.75C30.4889 38.75 32 40.2611 32 42.125C32 43.9889 30.4889 45.5 28.625 45.5C26.7611 45.5 25.25 43.9889 25.25 42.125C25.25 40.2611 26.7611 38.75 28.625 38.75ZM19.625 34.25C21.4889 34.25 23 35.7611 23 37.625C23 39.4889 21.4889 41 19.625 41C17.761 41 16.25 39.4889 16.25 37.625C16.25 35.7611 17.761 34.25 19.625 34.25ZM28.625 29.75C30.4889 29.75 32 31.2611 32 33.125C32 34.9889 30.4889 36.5 28.625 36.5C26.7611 36.5 25.25 34.9889 25.25 33.125C25.25 31.2611 26.7611 29.75 28.625 29.75ZM21.875 0.5C28.1426 0.5 33.485 4.44096 35.5676 9.97695C41.2925 11.5422 45.5 16.7779 45.5 23C45.5 27.4181 43.3753 31.3407 40.1013 33.7998C39.1077 34.5461 37.6972 34.3456 36.9509 33.352C36.2046 32.3587 36.4051 30.9481 37.3987 30.2018C39.5897 28.5559 41 25.943 41 23C41 18.5326 37.7429 14.8218 33.4742 14.1198C32.5971 13.9756 31.8823 13.3324 31.6492 12.4711C30.4835 8.16492 26.546 5 21.875 5C16.2831 5 11.75 9.53312 11.75 15.125C11.75 15.5055 11.7709 15.8802 11.8114 16.2483C11.9366 17.3856 11.199 18.4275 10.1041 18.7016C7.17053 19.4358 5 22.0921 5 25.25C5 28.3921 7.14902 31.0381 10.0608 31.7874C11.2642 32.0972 11.9887 33.3239 11.679 34.5272C11.3693 35.7307 10.1426 36.4552 8.93917 36.1454C4.08744 34.8966 0.5 30.4952 0.5 25.25C0.5 20.6343 3.27803 16.6719 7.25119 14.9363C7.35222 6.94611 13.8608 0.5 21.875 0.5ZM19.625 25.25C21.4889 25.25 23 26.7611 23 28.625C23 30.4889 21.4889 32 19.625 32C17.761 32 16.25 30.4889 16.25 28.625C16.25 26.7611 17.761 25.25 19.625 25.25Z" fill="#FD5D63"/>
</svg>
