<svg width="152" height="61" viewBox="0 0 152 61" fill="none" xmlns="http://www.w3.org/2000/svg">
<path d="M26.6609 2.25705C29.5489 2.40955 32.3153 2.92804 34.9601 4.08704C41.0401 6.77105 44.8705 11.407 46.4817 17.8425C47.4849 21.838 47.2721 25.8335 46.2993 29.7985C44.8705 35.6545 41.9825 40.7175 37.9697 45.1095C33.6225 49.837 28.4545 53.375 22.3745 55.51C18.9393 56.6995 15.4129 57.3095 11.7953 57.2485C9.60651 57.218 7.44811 57.1875 5.25931 57.157C5.19851 57.157 5.10731 57.157 5.01611 57.157C5.04651 57.0045 5.16811 56.9435 5.25931 56.8825C6.77931 55.6625 8.29931 54.4425 9.78891 53.192C10.0321 53.009 10.2449 52.9175 10.5489 52.948C11.9473 52.9785 13.3153 53.0396 14.7137 52.948C17.8145 52.7955 20.7633 52.094 23.5905 50.8435C31.1601 47.5495 36.8145 42.212 40.3713 34.709C41.9825 31.2625 42.8641 27.6025 42.7729 23.79C42.6513 18.9405 40.9793 14.701 37.4529 11.3155C35.0817 9.02804 32.2241 7.65554 29.0017 6.95404C27.6641 6.67954 26.2961 6.52704 24.9281 6.49654C22.4657 6.46604 20.0033 6.43554 17.5713 6.37455C17.4801 6.37455 17.3889 6.37454 17.2065 6.34404C17.6321 6.00854 17.9665 5.70354 18.3313 5.42904C19.6081 4.42254 20.9153 3.35504 22.1921 2.31804C22.2225 2.28754 22.2529 2.25704 22.2833 2.19604C22.6481 2.19604 23.0129 2.19604 23.3777 2.19604C23.7121 2.28754 24.0769 2.19605 24.4113 2.22655C24.7761 2.22655 25.1105 2.22655 25.4753 2.22655C25.7185 2.22655 25.9617 2.22655 26.2049 2.22655C26.3569 2.25705 26.5089 2.22655 26.6609 2.25705Z" fill="#FD5D63"/>
<path d="M0.972783 49.1966C1.27678 48.3731 1.39838 47.4886 1.61118 46.6346C1.85438 45.6891 1.82398 45.6891 2.76638 45.6891C9.97118 45.6891 17.176 45.6891 24.3504 45.6891C24.472 45.6891 24.624 45.6891 24.7456 45.6891C24.7456 45.8416 24.624 45.8416 24.5632 45.8721C21.2192 47.4581 17.6928 48.4951 14.0144 48.9831C12.4336 49.1966 10.8224 49.2881 9.21118 49.2576C6.44478 49.2576 3.67838 49.2576 0.942383 49.2576C0.972783 49.2576 0.972783 49.2271 0.972783 49.1966Z" fill="#5C4C8B"/>
<path d="M25.5057 2.25705C25.1409 2.25705 24.7761 2.25705 24.4113 2.25705C24.3809 2.25705 24.3809 2.22655 24.3809 2.22655C24.3809 2.19605 24.4113 2.19604 24.4113 2.19604C24.7761 2.19604 25.1409 2.19604 25.5057 2.19604C25.5361 2.22654 25.5361 2.22655 25.5057 2.25705Z" fill="#FDA3A7"/>
<path d="M24.411 2.19604C24.411 2.22654 24.411 2.22655 24.411 2.25705C24.0766 2.22655 23.7118 2.34854 23.3774 2.19604C23.7118 2.19604 24.0766 2.19604 24.411 2.19604Z" fill="#FD8489"/>
<path d="M25.5054 2.25705C25.5054 2.22655 25.5054 2.22654 25.5054 2.19604C25.7486 2.19604 25.9918 2.19604 26.235 2.19604C26.2654 2.19604 26.2654 2.22655 26.2654 2.22655C26.2654 2.22655 26.2654 2.25705 26.235 2.25705C25.9918 2.25705 25.7486 2.25705 25.5054 2.25705Z" fill="#FEC3C5"/>
<path d="M26.2354 2.25705C26.2354 2.22655 26.2354 2.22654 26.2354 2.19604C26.3874 2.19604 26.5393 2.19604 26.6609 2.19604C26.6609 2.22654 26.6609 2.22655 26.6609 2.25705C26.5089 2.25705 26.3874 2.25705 26.2354 2.25705Z" fill="#FEE6E7"/>
<path d="M38.8513 31.5066C38.4257 32.7571 37.8785 33.8856 37.2401 34.9836C37.1793 35.0751 37.1185 35.1056 37.0273 35.1056C36.9361 35.1056 36.8449 35.1056 36.7841 35.1056C26.1441 35.1056 15.5041 35.1056 4.86412 35.1056C4.40812 35.1056 4.40812 35.1056 4.49932 34.6786C4.74252 33.7026 4.98572 32.7571 5.19852 31.7811C5.22892 31.5981 5.32012 31.5066 5.50252 31.5371C5.56332 31.5371 5.65452 31.5371 5.71532 31.5371C16.5985 31.5371 27.5121 31.5371 38.3953 31.5371C38.5473 31.5066 38.6689 31.5066 38.8513 31.5066Z" fill="#5C4C8B"/>
<path d="M6.08008 27.9685C6.35368 26.8095 6.62728 25.742 6.87048 24.644C6.90088 24.461 6.96168 24.4 7.14408 24.4C7.20488 24.4 7.29608 24.4 7.35688 24.4C17.9969 24.4 28.6369 24.4 39.2769 24.4C39.6113 24.4 39.7329 24.4915 39.7633 24.827C39.8241 25.803 39.8545 26.779 39.7329 27.755C39.7025 27.9075 39.6721 27.999 39.4897 27.999C39.4289 27.999 39.3377 27.999 39.2769 27.999C28.3633 27.999 17.4193 27.999 6.50568 27.999C6.38408 27.9685 6.26248 27.9685 6.08008 27.9685Z" fill="#5C4C8B"/>
<path d="M34.5346 38.613C33.7746 39.4975 33.0146 40.2295 32.2242 40.931C31.7378 41.358 31.2818 41.9375 30.6738 42.151C30.1266 42.334 29.4578 42.212 28.8194 42.212C20.2466 42.212 11.6738 42.212 3.10099 42.212C2.79699 42.212 2.64499 42.1815 2.76659 41.8155C3.00979 40.87 3.22259 39.9245 3.43539 38.9485C3.49619 38.7045 3.58739 38.6435 3.86099 38.6435C13.9538 38.6435 24.0466 38.6435 34.1394 38.6435C34.261 38.613 34.3522 38.613 34.5346 38.613Z" fill="#5C4C8B"/>
<path d="M38.7295 20.8621C38.6079 20.8621 38.4559 20.8621 38.3343 20.8621C28.3023 20.8621 18.2399 20.8621 8.20794 20.8621C7.78234 20.8621 7.78234 20.8621 7.90394 20.4351C8.11674 19.4896 8.35994 18.5441 8.57274 17.5681C8.63354 17.3546 8.72474 17.2936 8.93754 17.2936C18.0879 17.2936 27.2383 17.2936 36.3887 17.2936C36.5103 17.2936 36.6319 17.2936 36.7535 17.4156C37.5743 18.4526 38.2431 19.5506 38.7295 20.7706C38.7295 20.7706 38.7295 20.8011 38.7295 20.8621Z" fill="#5C4C8B"/>
<path d="M32.4368 13.7556C32.3152 13.7556 32.224 13.7556 32.1024 13.7556C24.7152 13.7556 17.328 13.7556 9.94078 13.7556C9.48478 13.7556 9.48478 13.7556 9.57598 13.3286C9.78878 12.3831 10.032 11.4071 10.2448 10.4616C10.2752 10.2786 10.3664 10.1871 10.6096 10.1871C13.7104 10.1871 16.8112 10.1566 19.912 10.2176C24.2288 10.3091 28.3632 11.2546 32.1328 13.4811C32.2544 13.5421 32.3456 13.6336 32.4672 13.6946C32.4672 13.6946 32.4368 13.7251 32.4368 13.7556Z" fill="#5C4C8B"/>
<path d="M63.5966 27.8464C61.9854 27.8464 61.0126 26.9619 61.0126 25.5284C61.0126 25.1929 61.043 24.7964 61.1038 24.5524L61.2254 23.9119H61.1038C59.675 26.8094 58.0334 28.2734 55.3582 28.2734C52.075 28.2734 50.251 25.6809 50.251 21.7464C50.251 15.5244 53.443 9.69891 58.7326 9.69891C61.0126 9.69891 62.8974 11.0104 63.2622 13.0844H63.4446L65.5118 2.59241H69.0382L64.5694 24.8879H66.8494L66.2718 27.8464H63.5966ZM60.1614 23.5154C61.1038 22.4784 61.803 21.1669 62.107 19.5809L62.7454 16.3479C63.1406 14.3349 61.9854 12.7184 59.3406 12.7184C56.8174 12.7184 55.1758 14.3959 54.5678 17.5069L54.051 20.0079C53.9598 20.5569 53.8686 21.2584 53.8686 21.8379C53.8686 23.8204 54.811 25.2234 56.7566 25.2234C58.1854 25.2234 59.2798 24.4609 60.1614 23.5154Z" fill="#5C4C8B"/>
<path d="M70.2236 20.74C70.2236 14.945 73.9324 9.66846 79.6172 9.66846C82.4748 9.66846 85.5756 11.041 85.5756 14.518C85.5756 18.2695 81.9276 20.313 73.8412 20.496C73.7804 20.9535 73.75 21.35 73.75 21.6245C73.75 23.8205 74.9356 25.254 77.4892 25.254C79.4348 25.254 80.9548 24.4 82.414 22.6005L84.6636 24.4915C82.4444 27.267 80.0124 28.2735 77.246 28.2735C72.6556 28.2735 70.2236 25.498 70.2236 20.74ZM74.3884 17.1105L74.206 17.995C80.6812 17.7205 82.0492 16.6835 82.0492 14.6705C82.0492 12.9015 80.6508 12.4745 79.3132 12.4745C76.8812 12.505 74.9356 14.335 74.3884 17.1105Z" fill="#5C4C8B"/>
<path d="M91.595 27.8465C89.4062 27.8465 88.4334 26.8095 88.4334 25.1625C88.4334 24.7965 88.4942 24.278 88.555 23.851L90.7438 13.054H88.1294L88.707 10.0955H90.0446C91.3822 10.0955 91.6862 9.57697 91.9294 8.35697L92.5374 5.24597H95.851L94.8478 10.0955H98.3742L97.7966 13.054H94.2398L91.9294 24.888H95.3342L94.7566 27.8465H91.595Z" fill="#5C4C8B"/>
<path d="M112.145 27.8465C110.534 27.8465 109.561 26.962 109.561 25.5285C109.561 25.193 109.592 24.7965 109.653 24.5525L109.774 23.912H109.653C108.224 26.8095 106.582 28.2735 103.907 28.2735C100.624 28.2735 98.7998 25.681 98.7998 21.7465C98.7998 15.5245 101.992 9.69897 107.281 9.69897C109.561 9.69897 111.446 11.0105 111.811 13.0845H111.993L112.571 10.126H116.097L113.149 24.9185H115.429L114.851 27.877H112.145V27.8465ZM108.71 23.5155C109.683 22.448 110.352 21.1365 110.656 19.5505L111.385 15.9515C111.689 14.3655 110.352 12.7185 107.981 12.7185C105.366 12.7185 103.755 14.396 103.147 17.507L102.63 20.008C102.539 20.557 102.448 21.3195 102.448 21.838C102.448 23.8205 103.39 25.2235 105.275 25.2235C106.734 25.2235 107.798 24.4915 108.71 23.5155Z" fill="#5C4C8B"/>
<path d="M121.448 27.8465C119.745 27.8465 118.803 26.8705 118.803 25.4675C118.803 25.193 118.833 24.949 118.894 24.6135L121.782 10.0955H125.308L122.36 24.888H124.64L124.062 27.8465H121.448ZM122.42 5.48996C122.42 5.21546 122.481 4.81896 122.603 4.30046C122.846 3.23296 123.454 2.47046 125.065 2.47046C126.403 2.47046 126.95 3.08046 126.95 3.90396C126.95 4.17846 126.889 4.57496 126.768 5.09346C126.524 6.16096 125.916 6.92346 124.305 6.92346C122.937 6.92346 122.42 6.28296 122.42 5.48996Z" fill="#5C4C8B"/>
<path d="M130.659 27.8464C128.957 27.8464 128.014 26.8704 128.014 25.4674C128.014 25.1929 128.045 24.9489 128.105 24.6134L132.483 2.59241H136.009L131.541 24.8879H134.003L133.425 27.8464H130.659Z" fill="#5C4C8B"/>
<path d="M136.07 25.071L138.381 22.9665C139.506 24.461 140.934 25.315 142.971 25.315C145.221 25.315 146.558 24.217 146.558 22.5395C146.558 21.594 146.072 20.8315 144.37 20.5265L142.85 20.252C140.022 19.764 138.107 18.483 138.107 15.616C138.107 12.4745 140.326 9.66846 144.978 9.66846C147.653 9.66846 149.69 10.5835 151.118 12.3525L148.808 14.457C147.987 13.359 146.65 12.566 144.795 12.566C142.637 12.566 141.573 13.6335 141.573 15.128C141.573 16.104 142.09 16.836 143.762 17.141L145.282 17.385C148.2 17.9035 150.024 19.215 150.024 22.1125C150.024 25.62 147.288 28.2125 142.941 28.2125C140.114 28.2735 137.53 27.145 136.07 25.071Z" fill="#5C4C8B"/>
<path d="M59.7969 52.8565C58.8849 52.8565 58.4289 52.3685 58.4289 51.6365C58.4289 51.4535 58.4593 51.24 58.5201 50.9655L58.7329 49.837H58.6721C57.5473 52.0635 56.1489 53.192 54.0209 53.192C51.3761 53.192 49.7041 51.0875 49.7041 47.946C49.7041 43.4625 51.9841 38.6435 56.4833 38.6435C58.3985 38.6435 59.9185 39.6195 60.3745 41.3275H60.4657L62.1681 32.7875H63.6577L59.9185 51.545H62.0161L61.7425 52.887L59.7969 52.8565ZM57.2737 50.569C58.2465 49.715 59.0369 48.4645 59.3409 46.848L59.9793 43.615C60.3441 41.846 59.3713 40.016 56.6049 40.016C54.0209 40.016 52.2881 41.8765 51.6801 44.896L51.3457 46.5125C51.2545 47.031 51.2241 47.519 51.2241 48.129C51.2241 50.2335 52.1665 51.85 54.3553 51.85C55.5409 51.8195 56.4225 51.362 57.2737 50.569Z" fill="#777777"/>
<path d="M66.6673 52.8565C65.7553 52.8565 65.2993 52.3685 65.2993 51.606C65.2993 51.4535 65.2993 51.301 65.3601 51.057L67.7921 38.9485H69.2817L66.7585 51.5145H68.8561L68.5825 52.8565H66.6673ZM68.4305 34.4345C68.4305 34.3125 68.4305 34.221 68.5217 33.8245C68.6433 33.2755 68.9777 32.9705 69.6769 32.9705C70.3457 32.9705 70.5889 33.3365 70.5889 33.733C70.5889 33.855 70.5889 33.9465 70.4977 34.343C70.3761 34.892 70.0417 35.197 69.3425 35.197C68.6737 35.197 68.4305 34.831 68.4305 34.4345Z" fill="#777777"/>
<path d="M75.8179 58.621C72.2611 58.621 70.4067 57.4925 70.4067 55.4795C70.4067 53.924 71.4403 52.7955 73.2339 52.216L73.2643 52.0635C72.5347 51.7585 72.1699 51.179 72.1699 50.386C72.1699 49.044 73.2339 48.19 74.9363 47.7935L74.9667 47.641C73.6899 47.031 73.0211 45.7805 73.0211 44.286C73.0211 40.9615 75.3619 38.7045 78.6451 38.7045C79.7395 38.7045 80.6819 39.0095 81.3507 39.467L81.4723 38.674C81.5939 37.82 82.0803 37.3015 82.9619 37.3015H85.1507L84.9075 38.6435H82.3539L82.0803 40.1685C82.5971 40.8395 82.8707 41.663 82.8707 42.6085C82.8707 45.9025 80.4995 48.1595 77.1859 48.1595C76.7907 48.1595 76.4259 48.129 76.0611 48.0375C74.4499 48.4035 73.5683 48.983 73.5683 49.959C73.5683 50.63 74.0547 51.057 75.3923 51.057H78.7363C81.7763 51.057 82.9619 52.1855 82.9619 54.1375C82.9619 56.6995 80.9555 58.621 75.8179 58.621ZM78.6451 52.399H74.1459C72.7779 52.887 71.9267 53.7715 71.9267 55.0525C71.9267 56.5165 73.0211 57.3705 75.3619 57.3705H76.4563C79.6483 57.3705 81.4115 56.2725 81.4115 54.3205C81.4115 53.131 80.7123 52.399 78.6451 52.399ZM81.1379 43.8895C81.2899 42.944 81.3507 42.6695 81.3507 42.3645C81.3507 40.9005 80.3779 39.8635 78.4627 39.8635C76.3043 39.8635 75.0579 41.0835 74.7235 42.883C74.5411 43.8285 74.4803 44.1335 74.4803 44.408C74.4803 45.9025 75.4531 46.909 77.3683 46.909C79.5571 46.8785 80.8035 45.6585 81.1379 43.8895Z" fill="#777777"/>
<path d="M87.0355 52.8565C86.1235 52.8565 85.6675 52.3685 85.6675 51.606C85.6675 51.4535 85.6675 51.301 85.7283 51.057L88.1603 38.9485H89.6499L87.1267 51.5145H89.2243L88.9507 52.8565H87.0355ZM88.7987 34.4345C88.7987 34.3125 88.7987 34.221 88.8899 33.8245C89.0115 33.2755 89.3459 32.9705 90.0451 32.9705C90.7139 32.9705 90.9571 33.3365 90.9571 33.733C90.9571 33.855 90.9571 33.9465 90.8659 34.343C90.7443 34.892 90.4099 35.197 89.7107 35.197C89.0419 35.197 88.7987 34.831 88.7987 34.4345Z" fill="#777777"/>
<path d="M94.4227 52.8564C93.4195 52.8564 93.0243 52.3684 93.0243 51.6364C93.0243 51.3619 93.0547 51.0874 93.1155 50.8739L95.2131 40.3209H92.9331L93.2067 38.9484H94.5747C95.3955 38.9484 95.6083 38.6434 95.7299 37.8504L96.3075 35.0444H97.7059L96.9155 38.9179H99.9859L99.7123 40.2599H96.6419L94.3923 51.4839H97.2499L96.9763 52.8259L94.4227 52.8564Z" fill="#777777"/>
<path d="M110.99 52.8564C110.078 52.8564 109.622 52.3684 109.622 51.6364C109.622 51.4534 109.653 51.2094 109.714 50.9654L109.926 49.8369H109.835C108.71 52.0634 107.312 53.1919 105.184 53.1919C102.539 53.1919 100.867 51.0874 100.867 47.9459C100.867 43.4624 103.147 38.6434 107.646 38.6434C109.562 38.6434 111.082 39.6194 111.538 41.3274H111.629L112.085 38.9789H113.574L111.082 51.5449H113.179L112.906 52.8869H110.99V52.8564ZM108.467 50.5689C109.44 49.7149 110.23 48.4644 110.534 46.8479L111.173 43.6149C111.538 41.8459 110.565 40.0159 107.798 40.0159C105.214 40.0159 103.482 41.8764 102.874 44.8959L102.539 46.5124C102.448 47.0309 102.418 47.5189 102.418 48.1289C102.418 50.2334 103.36 51.8499 105.549 51.8499C106.704 51.8194 107.616 51.3619 108.467 50.5689Z" fill="#777777"/>
<path d="M117.861 52.8565C116.949 52.8565 116.493 52.3685 116.493 51.606C116.493 51.4535 116.493 51.362 116.553 51.057L120.201 32.757H121.691L117.952 51.545H120.141L119.867 52.887L117.861 52.8565Z" fill="#777777"/>
</svg>
