<svg width="54" height="54" viewBox="0 0 54 54" fill="none" xmlns="http://www.w3.org/2000/svg">
<path d="M27 6.75C27.6212 6.75 28.125 6.24632 28.125 5.625C28.125 5.00368 27.6212 4.5 27 4.5C26.3788 4.5 25.875 5.00368 25.875 5.625C25.875 6.24632 26.3788 6.75 27 6.75ZM27 49.5C27.6212 49.5 28.125 48.9962 28.125 48.375C28.125 47.7538 27.6212 47.25 27 47.25C26.3788 47.25 25.875 47.7538 25.875 48.375C25.875 48.9962 26.3788 49.5 27 49.5ZM27 13.5C28.2427 13.5 29.25 12.4926 29.25 11.25C29.25 10.0074 28.2427 9 27 9C25.7573 9 24.75 10.0074 24.75 11.25C24.75 12.4926 25.7573 13.5 27 13.5ZM27 45C28.2427 45 29.25 43.9927 29.25 42.75C29.25 41.5073 28.2427 40.5 27 40.5C25.7573 40.5 24.75 41.5073 24.75 42.75C24.75 43.9927 25.7573 45 27 45ZM33.1875 16.2829C34.8019 17.2149 35.3549 19.279 34.423 20.8933C33.491 22.5074 31.4269 23.0605 29.8125 22.1286C28.1984 21.1966 27.6453 19.1325 28.5773 17.5183C29.5092 15.904 31.5734 15.3509 33.1875 16.2829ZM21.375 27C21.375 28.8639 19.864 30.375 18 30.375C16.136 30.375 14.625 28.8639 14.625 27C14.625 25.1359 16.136 23.625 18 23.625C19.864 23.625 21.375 25.1359 21.375 27ZM39.375 27C39.375 28.8639 37.8639 30.375 36 30.375C34.1361 30.375 32.625 28.8639 32.625 27C32.625 25.1359 34.1361 23.625 36 23.625C37.8639 23.625 39.375 25.1359 39.375 27ZM25.423 36.4817C26.3549 34.8676 25.8019 32.8034 24.1875 31.8715C22.5734 30.9395 20.5092 31.4926 19.5772 33.1067C18.6453 34.7211 19.1983 36.785 20.8126 37.7172C22.4268 38.6492 24.491 38.0961 25.423 36.4817ZM34.423 33.1067C33.491 31.4926 31.4269 30.9395 29.8125 31.8715C28.1984 32.8034 27.6453 34.8676 28.5773 36.4817C29.5092 38.0961 31.5734 38.6492 33.1875 37.7172C34.8019 36.785 35.3549 34.7211 34.423 33.1067ZM20.8126 16.2829C22.4268 15.3509 24.491 15.904 25.423 17.5183C26.3549 19.1325 25.8019 21.1966 24.1875 22.1286C22.5734 23.0605 20.5092 22.5074 19.5772 20.8933C18.6453 19.279 19.1983 17.2149 20.8126 16.2829ZM39.7278 17.4539C38.8492 18.3326 37.4245 18.3326 36.5458 17.4539C35.6672 16.5753 35.6672 15.1506 36.5458 14.272C37.4245 13.3933 38.8492 13.3933 39.7278 14.272C40.6064 15.1506 40.6064 16.5753 39.7278 17.4539ZM17.454 39.7278C16.5753 40.6064 15.1507 40.6064 14.272 39.7278C13.3933 38.8492 13.3933 37.4245 14.272 36.5458C15.1507 35.6672 16.5753 35.6672 17.454 36.5458C18.3326 37.4245 18.3326 38.8492 17.454 39.7278ZM40.5 27C40.5 28.2427 41.5073 29.25 42.75 29.25C43.9927 29.25 45 28.2427 45 27C45 25.7573 43.9927 24.75 42.75 24.75C41.5073 24.75 40.5 25.7573 40.5 27ZM9 27C9 28.2427 10.0073 29.25 11.25 29.25C12.4927 29.25 13.5 28.2427 13.5 27C13.5 25.7573 12.4927 24.75 11.25 24.75C10.0073 24.75 9 25.7573 9 27ZM36.5461 39.7278C35.6675 38.8492 35.6675 37.4245 36.5461 36.5458C37.4247 35.6672 38.8494 35.6672 39.728 36.5458C40.6067 37.4245 40.6067 38.8492 39.728 39.7278C38.8494 40.6064 37.4247 40.6064 36.5461 39.7278ZM14.2722 17.454C13.3935 16.5753 13.3935 15.1507 14.2722 14.272C15.1509 13.3933 16.5755 13.3933 17.4542 14.272C18.3329 15.1507 18.3329 16.5753 17.4542 17.454C16.5755 18.3326 15.1509 18.3326 14.2722 17.454ZM38.6615 9.05143C38.3508 9.5895 37.663 9.77387 37.1248 9.46321C36.5868 9.15255 36.4023 8.4645 36.713 7.92643C37.0238 7.38835 37.7118 7.20398 38.2498 7.51464C38.788 7.8253 38.9722 8.51335 38.6615 9.05143ZM17.2866 46.0739C16.9759 46.6121 16.2879 46.7964 15.7498 46.4859C15.2117 46.1752 15.0273 45.4871 15.338 44.9489C15.6487 44.4109 16.3367 44.2267 16.8748 44.5372C17.4129 44.8479 17.5972 45.5359 17.2866 46.0739ZM44.5374 16.8748C44.8479 17.4129 45.5359 17.5972 46.0742 17.2866C46.6121 16.9759 46.7966 16.2879 46.4859 15.7498C46.1752 15.2117 45.4871 15.0273 44.9492 15.338C44.4109 15.6487 44.2267 16.3367 44.5374 16.8748ZM7.51475 38.2498C7.82541 38.788 8.51346 38.9722 9.05155 38.6615C9.58961 38.3508 9.77398 37.663 9.46332 37.1248C9.15266 36.5868 8.46461 36.4023 7.92655 36.713C7.38846 37.0238 7.20409 37.7118 7.51475 38.2498ZM48.375 28.125C47.7538 28.125 47.25 27.6212 47.25 27C47.25 26.3788 47.7538 25.875 48.375 25.875C48.9962 25.875 49.5 26.3788 49.5 27C49.5 27.6212 48.9962 28.125 48.375 28.125ZM5.625 28.125C5.00368 28.125 4.5 27.6212 4.5 27C4.5 26.3788 5.00368 25.875 5.625 25.875C6.24632 25.875 6.75 26.3788 6.75 27C6.75 27.6212 6.24632 28.125 5.625 28.125ZM44.5367 37.1248C44.2262 37.663 44.4105 38.3508 44.9485 38.6615C45.4867 38.9722 46.1747 38.788 46.4855 38.2498C46.796 37.7118 46.6117 37.0238 46.0735 36.713C45.5355 36.4023 44.8475 36.5868 44.5367 37.1248ZM7.51421 15.7498C7.20355 16.2879 7.3879 16.9759 7.92599 17.2866C8.46407 17.5972 9.1521 17.4129 9.46276 16.8748C9.77341 16.3367 9.58907 15.6487 9.05098 15.338C8.51292 15.0273 7.82487 15.2117 7.51421 15.7498ZM36.7135 46.0742C36.4028 45.5359 36.587 44.8479 37.1252 44.5374C37.6632 44.2267 38.3512 44.4109 38.662 44.9492C38.9727 45.4871 38.7882 46.1752 38.2502 46.4859C37.712 46.7966 37.0242 46.6121 36.7135 46.0742ZM15.3384 9.05155C15.0278 8.51346 15.2121 7.82541 15.7502 7.51475C16.2883 7.20409 16.9763 7.38846 17.287 7.92655C17.5977 8.46461 17.4133 9.15266 16.8752 9.46332C16.3371 9.77398 15.6491 9.58961 15.3384 9.05155Z" fill="#FD5D63"/>
</svg>
