<svg width="54" height="54" viewBox="0 0 54 54" fill="none" xmlns="http://www.w3.org/2000/svg">
<g clip-path="url(#clip0_122_150)">
<path fill-rule="evenodd" clip-rule="evenodd" d="M27 4.5C39.4263 4.5 49.5 14.5736 49.5 27C49.5 39.4263 39.4263 49.5 27 49.5C14.5736 49.5 4.5 39.4263 4.5 27C4.5 14.5736 14.5736 4.5 27 4.5ZM31.844 33.75H22.156L20.4837 43.7843C22.5043 44.5693 24.7019 45 27 45C29.0109 45 30.9448 44.6703 32.7505 44.0619L33.5165 43.7843L31.844 33.75ZM27 9C17.0589 9 9 17.0589 9 27C9 32.9362 11.8736 38.2014 16.3056 41.4801L17.7173 33.0102C17.9675 31.5088 18.9436 30.2848 20.25 29.673V22.514C20.25 21.6531 20.7363 20.8663 21.5062 20.4813L30.4612 16.0038C31.972 15.2483 33.75 16.347 33.75 18.0364V29.673C35.0564 30.2848 36.0324 31.5088 36.2828 33.0102L37.6945 41.4801C42.1263 38.2014 45 32.9362 45 27C45 17.0589 36.9412 9 27 9ZM29.25 21.6406L24.75 23.8905V29.25H29.25V21.6406Z" fill="#FD5D63"/>
</g>
<defs>
<clipPath id="clip0_122_150">
<rect width="54" height="54" fill="white"/>
</clipPath>
</defs>
</svg>
