<svg width="508" height="468" viewBox="0 0 508 468" fill="none" xmlns="http://www.w3.org/2000/svg">
<path d="M-82.16 1.01733L-82.1845 1.01404L-82.1177 0.518521C-83.0793 0.388891 -84.041 0.388891 -85.0027 0.388891C-85.9644 0.388891 -86.926 0.388891 -87.8877 0.259261L-82.16 1.01733ZM-82.16 1.01733L-82.1354 1.01821M-82.16 1.01733L-82.1354 1.01821M-82.1354 1.01821C-45.62 2.31352 -10.6593 6.71709 22.755 16.5538C99.5934 39.3408 147.902 78.6661 168.216 133.175L168.216 133.176M-82.1354 1.01821L168.216 133.176M168.216 133.176C180.859 167.001 178.186 200.838 165.907 234.459L165.907 234.46M168.216 133.176L165.907 234.46M165.907 234.46C147.871 284.118 111.405 327.081 60.6832 364.375C5.73438 404.518 -59.5961 434.566 -136.469 452.7C-179.899 462.802 -224.48 467.983 -270.214 467.465H-270.215C-283.609 467.339 -296.913 467.214 -310.215 467.088L-311.566 467.076C-325.318 466.946 -339.07 466.816 -352.918 466.687H-352.923H-352.927H-352.932H-352.936H-352.941H-352.945H-352.95H-352.954H-352.959H-352.964H-352.968H-352.973H-352.977H-352.982H-352.987H-352.991H-352.996H-353.001H-353.005H-353.01H-353.015H-353.019H-353.024H-353.029H-353.033H-353.038H-353.043H-353.048H-353.052H-353.057H-353.062H-353.067H-353.071H-353.076H-353.081H-353.086H-353.091H-353.095H-353.1H-353.105H-353.11H-353.115H-353.12H-353.124H-353.129H-353.134H-353.139H-353.144H-353.149H-353.154H-353.159H-353.164H-353.169H-353.174H-353.178H-353.183H-353.188H-353.193H-353.198H-353.203H-353.208H-353.213H-353.218H-353.223H-353.228H-353.233H-353.239H-353.244H-353.249H-353.254H-353.259H-353.264H-353.269H-353.274H-353.279H-353.284H-353.289H-353.295H-353.3H-353.305H-353.31H-353.315H-353.32H-353.326H-353.331H-353.336H-353.341H-353.346H-353.351H-353.357H-353.362H-353.367H-353.372H-353.378H-353.383H-353.388H-353.393H-353.399H-353.404H-353.409H-353.415H-353.42H-353.425H-353.431H-353.436H-353.441H-353.447H-353.452H-353.457H-353.463H-353.468H-353.473H-353.479H-353.484H-353.49H-353.495H-353.5H-353.506H-353.511H-353.517H-353.522H-353.527H-353.533H-353.538H-353.544H-353.549H-353.555H-353.56H-353.566H-353.571H-353.577H-353.582H-353.588H-353.593H-353.599H-353.604H-353.61H-353.615H-353.621H-353.627H-353.632H-353.638H-353.643H-353.649H-353.655H-353.66H-353.666H-353.671H-353.677H-353.683H-353.688H-353.694H-353.7H-353.705H-353.711H-353.716H-353.722H-353.728H-353.733H-353.739H-353.745H-353.751H-353.756H-353.762H-353.768H-353.773H-353.779H-353.785H-353.791H-353.796H-353.802H-353.808H-353.814H-353.819H-353.825H-353.831H-353.837H-353.843H-353.848H-353.854H-353.86H-353.866H-353.872H-353.877H-353.883H-353.889H-353.895H-353.901H-353.907H-353.913H-353.918H-353.924H-353.93H-353.936H-353.942H-353.948H-353.954H-353.96H-353.966H-353.971H-353.977H-353.983H-353.989H-353.995H-354.001H-354.007H-354.013H-354.019H-354.025H-354.031H-354.037H-354.043H-354.049H-354.055H-354.061H-354.067H-354.073H-354.079H-354.085H-354.091H-354.097H-354.103H-354.109H-354.115H-354.121H-354.127H-354.133H-354.139H-354.145H-354.151H-354.157H-354.164H-354.17H-354.176H-354.182H-354.188H-354.194H-354.2H-354.206H-354.212H-354.218H-354.225H-354.231H-354.237H-354.243H-354.249H-354.255H-354.261H-354.268H-354.274H-354.28H-354.286H-354.292H-354.299H-354.305H-354.311H-354.317H-354.323H-354.329H-354.336H-354.342H-354.348H-354.354H-354.361H-354.367H-354.373H-354.379H-354.386H-354.392H-354.398H-354.404H-354.411H-354.417H-354.423H-354.429H-354.436H-354.442H-354.448H-354.454H-354.461H-354.467H-354.473H-354.48H-354.486H-354.492H-354.499H-354.505H-354.511H-354.518H-354.524H-354.53H-354.537H-354.543H-354.549H-354.556H-354.562H-354.568H-354.575H-354.581H-354.587H-354.594H-354.6H-354.607H-354.613H-354.619H-354.626H-354.632H-354.639H-354.645H-354.651H-354.658H-354.664H-354.671H-354.677H-354.683H-354.69H-354.696H-354.703H-354.709H-354.716H-354.722H-354.728H-354.735H-354.741H-354.748H-354.754H-354.761H-354.767H-354.774H-354.78H-354.787H-354.793H-354.8H-354.806H-354.813H-354.819H-354.826H-354.832H-354.839H-354.845H-354.852H-354.858H-354.865H-354.871H-354.878H-354.884H-354.891H-354.897H-354.904H-354.91H-354.917H-354.923H-354.93H-354.936H-354.943H-354.95H-354.956H-354.963H-354.969H-354.976H-354.982H-354.989H-354.995H-355.002H-355.009H-355.015H-355.022H-355.028H-355.035H-355.041H-355.048H-355.055H-355.061H-355.068H-355.074H-355.081H-355.088H-355.094H-355.101H-355.107H-355.114H-355.121H-355.127H-355.134H-355.141H-355.147H-355.151M165.907 234.46L-355.151 466.687M-355.151 466.687C-354.976 466.493 -354.752 466.318 -354.487 466.154C-354.077 465.901 -353.623 465.704 -353.159 465.503C-353.013 465.44 -352.865 465.376 -352.718 465.31L-352.701 465.302L-352.685 465.294C-333.456 454.925 -314.222 444.555 -295.372 433.924C-292.361 432.404 -289.759 431.656 -286.024 431.908L-286.011 431.909L-285.998 431.909C-283.002 431.953 -280.016 432.004 -277.037 432.055C-262.432 432.307 -247.984 432.555 -233.273 431.909C-233.272 431.909 -233.271 431.908 -233.27 431.908L-233.291 431.409M-355.151 466.687L91.3668 276.371C46.3609 340.149 -25.1871 385.52 -120.969 413.52M-233.291 431.409C-194.056 430.113 -156.743 424.15 -120.969 413.52M-233.291 431.409C-247.987 432.055 -262.418 431.807 -277.024 431.556C-280.004 431.504 -282.992 431.453 -285.991 431.409M-233.291 431.409H-285.991M-120.969 413.52L-120.829 414M-120.969 413.52L-120.827 413.999C-120.827 413.999 -120.828 414 -120.829 414M-120.829 414C-24.9738 385.978 46.6857 340.556 91.7754 276.66L91.7772 276.657C112.211 247.294 123.414 216.079 122.255 183.538L122.255 183.538C120.709 142.124 99.4426 105.948 54.7098 77.0986C24.6288 57.6044 -11.6037 45.9198 -52.426 39.9498L-52.4301 39.9493C-69.3761 37.6131 -86.7064 36.3153 -104.036 36.0557L-104.039 36.0557C-135.198 35.7964 -166.354 35.5372 -197.124 35.0186H-197.133H-197.137C-197.967 35.0186 -198.792 35.0186 -200.056 34.9204M-120.829 414L-200.056 34.9204M-285.991 431.409C-289.837 431.15 -292.53 431.927 -295.607 433.483C-314.456 444.113 -333.689 454.483 -352.923 464.853L-285.991 431.409ZM-200.056 34.9204C-198.193 33.9129 -196.46 32.9391 -194.791 32.0007C-194.559 31.8704 -194.329 31.7409 -194.099 31.612C-191.791 30.3157 -189.588 29.089 -187.291 27.9279L-187.282 27.9234C-173.346 20.5434 -159.124 12.7777 -145.112 5.12693C-142.877 3.90634 -140.647 2.68867 -138.424 1.47596L-138.404 1.46474L-138.384 1.45166L-138.375 1.44565C-138.034 1.21598 -137.651 0.957472 -137.267 0.5H-137.266H-137.239H-137.212H-137.185H-137.158H-137.131H-137.104H-137.077H-137.05H-137.023H-136.996H-136.969H-136.942H-136.915H-136.888H-136.86H-136.833H-136.806H-136.779H-136.752H-136.725H-136.698H-136.671H-136.644H-136.617H-136.59H-136.563H-136.536H-136.509H-136.482H-136.455H-136.428H-136.401H-136.374H-136.347H-136.32H-136.292H-136.265H-136.238H-136.211H-136.184H-136.157H-136.13H-136.103H-136.076H-136.049H-136.022H-135.995H-135.968H-135.941H-135.914H-135.887H-135.86H-135.833H-135.806H-135.779H-135.752H-135.724H-135.697H-135.67H-135.643H-135.616H-135.589H-135.562H-135.535H-135.508H-135.481H-135.454H-135.427H-135.4H-135.373H-135.346H-135.319H-135.292H-135.265H-135.238H-135.211H-135.184H-135.157H-135.129H-135.102H-135.075H-135.048H-135.021H-134.994H-134.967H-134.94H-134.913H-134.886H-134.859H-134.832H-134.805H-134.778H-134.751H-134.724H-134.697H-134.67H-134.643H-134.616H-134.589H-134.561H-134.534H-134.507H-134.48H-134.453H-134.426H-134.399H-134.372H-134.345H-134.318H-134.291H-134.264H-134.237H-134.21H-134.183H-134.156H-134.129H-134.102H-134.075H-134.048H-134.021H-133.993H-133.966H-133.939H-133.912H-133.885H-133.858H-133.831H-133.804H-133.777H-133.75H-133.723H-133.696H-133.669H-133.642H-133.615H-133.588H-133.561H-133.534H-133.507H-133.48H-133.453H-133.426H-133.398H-133.371H-133.344H-133.317H-133.29H-133.263H-133.236H-133.209H-133.182H-133.155H-133.128H-133.101H-133.074H-133.047H-133.02H-132.993H-132.966H-132.939H-132.912H-132.885H-132.858H-132.83H-132.803H-132.776H-132.749H-132.722H-132.695H-132.668H-132.641H-132.614H-132.587H-132.56H-132.533H-132.506H-132.479H-132.452H-132.425H-132.398H-132.371H-132.344H-132.317H-132.29H-132.262H-132.235H-132.208H-132.181H-132.154H-132.127H-132.1H-132.073H-132.046H-132.019H-131.992H-131.965H-131.938H-131.911H-131.884H-131.857H-131.83H-131.803H-131.776H-131.749H-131.722H-131.695H-131.667H-131.64H-131.613H-131.586H-131.559H-131.532H-131.505H-131.478H-131.451H-131.424H-131.397H-131.37H-131.343H-131.316H-131.289H-131.262H-131.235H-131.208H-131.181H-131.154H-131.127H-131.099H-131.072H-131.045H-131.018H-130.991H-130.964H-130.937H-130.91H-130.883H-130.856H-130.829H-130.802H-130.775H-130.748H-130.721H-130.694H-130.667H-130.64H-130.613H-130.586H-130.559H-130.531H-130.504H-130.477H-130.45H-130.423H-130.396H-130.369H-130.342H-130.315H-130.288H-130.261H-130.234H-130.207H-130.18H-130.153H-130.126H-130.099H-130.072H-130.045H-130.018H-129.991H-129.964H-129.936H-129.909H-129.882H-129.855H-129.828H-129.801H-129.774H-129.747H-129.72H-129.693H-129.666H-129.639H-129.612H-129.585H-129.558H-129.531H-129.504H-129.477H-129.45H-129.423H-129.396H-129.368H-129.341H-129.314H-129.287H-129.26H-129.233H-129.206H-129.179H-129.152H-129.125H-129.098H-129.071H-129.044H-129.017H-128.99H-128.963H-128.936H-128.909H-128.882H-128.855H-128.828H-128.801H-128.773H-128.746H-128.719H-128.692H-128.665H-128.638H-128.611H-128.584H-128.557H-128.53H-128.503H-128.476H-128.449H-128.422H-128.395H-128.368H-128.341H-128.314H-128.287H-128.26H-128.233H-128.205H-128.178H-128.151H-128.124H-128.097H-128.07H-128.043H-128.016H-127.989H-127.962H-127.935H-127.908H-127.881H-127.854H-127.827H-127.8H-127.773H-127.746H-127.719H-127.692H-127.665H-127.637H-127.61H-127.583H-127.556H-127.529H-127.502H-127.475H-127.448H-127.421H-127.394H-127.367H-127.34H-127.313H-127.286H-127.259H-127.232H-127.205H-127.178H-127.151H-127.124H-127.097H-127.07H-127.042H-127.015H-126.988H-126.961H-126.934H-126.907H-126.88H-126.853H-126.826H-126.799H-126.772H-126.745H-126.718H-126.691H-126.664H-126.637H-126.61H-126.583H-126.556H-126.529H-126.502H-126.474H-126.447H-126.42H-126.393H-126.366H-126.339H-126.312H-126.285H-126.258H-126.231H-126.204H-126.177H-126.15H-126.123H-126.096H-126.069H-126.042H-126.015H-125.988H-125.961H-125.934H-125.906H-125.879H-125.852H-125.825H-125.798H-125.771H-125.744H-125.717H-125.69H-125.663H-125.636H-125.609H-125.582H-125.555H-125.528H-125.501H-125.474H-125.447H-125.42H-125.393H-125.366H-125.339H-125.311H-125.284H-125.257H-125.23H-125.203H-125.176H-125.149H-125.122H-125.095H-125.068H-125.041H-125.014H-124.987H-124.96H-124.933H-124.906H-124.879H-124.852H-124.825H-124.798H-124.771H-124.743H-124.716H-124.689H-124.662H-124.635H-124.608H-124.581H-124.554H-124.527H-124.5H-124.473H-124.446H-124.419H-124.392H-124.365H-124.338H-124.311H-124.284H-124.257H-124.23H-124.203H-124.175H-124.148H-124.121H-124.094H-124.067H-124.04H-124.013H-123.986H-123.959H-123.932H-123.905H-123.878H-123.851H-123.824H-123.797H-123.77H-123.743H-123.716H-123.707C-121.549 0.890858 -119.308 0.888345 -117.108 0.823861C-116.653 0.81055 -116.201 0.794652 -115.752 0.778849C-113.993 0.716968 -112.275 0.656519 -110.614 0.758325L-110.598 0.759261H-110.583H-110.556H-110.529H-110.502H-110.475H-110.448H-110.421H-110.394H-110.367H-110.34H-110.313H-110.286H-110.259H-110.232H-110.205H-110.178H-110.151H-110.124H-110.098H-110.071H-110.044H-110.017H-109.99H-109.963H-109.936H-109.909H-109.883H-109.856H-109.829H-109.802H-109.775H-109.749H-109.722H-109.695H-109.668H-109.641H-109.615H-109.588H-109.561H-109.534H-109.508H-109.481H-109.454H-109.428H-109.401H-109.374H-109.348H-109.321H-109.294H-109.268H-109.241H-109.214H-109.188H-109.161H-109.134H-109.108H-109.081H-109.055H-109.028H-109.001H-108.975H-108.948H-108.922H-108.895H-108.868H-108.842H-108.815H-108.789H-108.762H-108.736H-108.709H-108.683H-108.656H-108.63H-108.603H-108.577H-108.55H-108.524H-108.497H-108.471H-108.444H-108.418H-108.392H-108.365H-108.339H-108.312H-108.286H-108.259H-108.233H-108.207H-108.18H-108.154H-108.127H-108.101H-108.075H-108.048H-108.022H-107.996H-107.969H-107.943H-107.917H-107.89H-107.864H-107.838H-107.811H-107.785H-107.759H-107.732H-107.706H-107.68H-107.653H-107.627H-107.601H-107.575H-107.548H-107.522H-107.496H-107.47H-107.443H-107.417H-107.391H-107.365H-107.338H-107.312H-107.286H-107.26H-107.233H-107.207H-107.181H-107.155H-107.129H-107.102H-107.076H-107.05H-107.024H-106.998H-106.972H-106.945H-106.919H-106.893H-106.867H-106.841H-106.815H-106.789H-106.762H-106.736H-106.71H-106.684H-106.658H-106.632H-106.606H-106.58H-106.553H-106.527H-106.501H-106.475H-106.449H-106.423H-106.397H-106.371H-106.345H-106.319H-106.293H-106.266H-106.24H-106.214H-106.188H-106.162H-106.136H-106.11H-106.084H-106.058H-106.032H-106.006H-105.98H-105.954H-105.928H-105.902H-105.876H-105.85H-105.824H-105.798H-105.772H-105.746H-105.72H-105.694H-105.668H-105.642H-105.616H-105.59H-105.564H-105.538H-105.512H-105.486H-105.46H-105.434H-105.408H-105.382H-105.356H-105.33H-105.304H-105.278H-105.252H-105.226H-105.2H-105.174H-105.148H-105.122H-105.096H-105.07H-105.044H-105.018H-104.992H-104.966H-104.94H-104.914H-104.888H-104.863H-104.837H-104.811H-104.785H-104.759H-104.733H-104.707H-104.681H-104.655H-104.629H-104.603H-104.577H-104.551H-104.525H-104.499H-104.473H-104.448H-104.422H-104.396H-104.37H-104.344H-104.318H-104.292H-104.266H-104.24H-104.214H-104.188H-104.162H-104.136H-104.11H-104.085H-104.059H-104.033H-104.007H-103.981H-103.955H-103.929H-103.903H-103.877H-103.851H-103.825H-103.799H-103.774H-103.748H-103.722H-103.696H-103.67H-103.644H-103.618H-103.592H-103.566H-103.54H-103.514H-103.488H-103.462H-103.437H-103.411H-103.385H-103.359H-103.333H-103.307H-103.281H-103.255H-103.229H-103.203H-103.177H-103.151H-103.125H-103.099H-103.074H-103.048H-103.022H-102.996H-102.97H-102.944H-102.918H-102.892H-102.866H-102.84H-102.814H-102.788H-102.762H-102.736H-102.71H-102.684H-102.658H-102.632H-102.607H-102.581H-102.555H-102.529H-102.503H-102.477H-102.451H-102.425H-102.399H-102.373H-102.347H-102.321H-102.295H-102.269H-102.243H-102.217H-102.191H-102.165H-102.139H-102.113H-102.087H-102.061H-102.035H-102.009H-101.983H-101.957H-101.931H-101.905H-101.879H-101.853H-101.827H-101.801H-101.775H-101.749H-101.723H-101.697H-101.671H-101.645H-101.619H-101.592H-101.566H-101.54H-101.514H-101.488H-101.462H-101.436H-101.41H-101.384H-101.358H-101.332H-101.306H-101.28H-101.254H-101.227H-101.201H-101.175H-101.149H-101.123H-101.097H-101.071H-101.045H-101.019H-100.992H-100.966H-100.94H-100.914H-100.888H-100.862H-100.836H-100.809H-100.783H-100.757H-100.731H-100.705H-100.679H-100.652H-100.626H-100.6H-100.574H-100.548H-100.522H-100.495H-100.469H-100.443H-100.417H-100.39H-100.364H-100.338H-100.312H-100.286H-100.259H-100.233H-100.207H-100.181H-100.154H-100.128H-100.102H-100.075H-100.049H-100.023H-99.9966H-99.9703H-99.944H-99.9177H-99.8913H-99.865H-99.8387H-99.8123H-99.786H-99.7597H-99.7333H-99.707H-99.6806H-99.6543H-99.6279H-99.6015H-99.5751H-99.5488H-99.5224H-99.496H-99.4696H-99.4431H-99.4167H-99.3903H-99.3639H-99.3375H-99.311H-99.2846H-99.2581H-99.2317H-99.2052H-99.1787H-99.1523H-99.1258H-99.0993H-99.0728H-99.0463H-99.0198H-98.9933H-98.9668H-98.9402H-98.9137H-98.8872H-98.8607H-98.8341H-98.8076H-98.781H-98.7544H-98.7278H-98.7012H-98.6747H-98.6481H-98.6215H-98.5948H-98.5682H-98.5416H-98.515H-98.4883H-98.4617H-98.435H-98.4084H-98.3817H-98.355H-98.3283H-98.3017H-98.275H-98.2483H-98.2216H-98.1948H-98.1681H-98.1414H-98.1146H-98.0879H-98.0611H-98.0344H-98.0076H-97.9808H-97.954H-97.9272H-97.9004H-97.8736H-97.8468H-97.82H-97.7932H-97.7663H-97.7394H-97.7126H-97.6857H-97.6588H-97.632H-97.6051H-97.5782H-97.5513H-97.5244H-97.4974H-97.4705H-97.4436H-97.4166H-97.3896H-97.3627H-97.3357H-97.3087H-97.2817H-97.2548H-97.2278H-97.2007H-97.1737H-97.1467H-97.1196H-97.1016H-97.0836H-97.0655H-97.0475H-97.0295H-97.0114H-96.9934H-96.9754H-96.9573H-96.9393H-96.9213H-96.9033H-96.8852H-96.8672H-96.8492H-96.8311H-96.8131H-96.7951H-96.777H-96.759H-96.741H-96.7229H-96.7049H-96.6869H-96.6689H-96.6508H-96.6328H-96.6147H-96.5967H-96.5787H-96.5607H-96.5426H-96.5246H-96.5066H-96.4885H-96.4705H-96.4525H-96.4344H-96.4164H-96.3984H-96.3803H-96.3623H-96.3443H-96.3263H-96.3082H-96.2902H-96.2722H-96.2541H-96.2361H-96.2181H-96.2H-96.182H-96.164H-96.1459H-96.1279H-96.1099H-96.0919H-96.0738H-96.0558H-96.0378H-96.0197H-96.0017H-95.9837H-95.9656H-95.9476H-95.9296H-95.9115H-95.8935H-95.8755H-95.8575H-95.8394H-95.8214H-95.8033H-95.7853H-95.7673H-95.7493H-95.7312H-95.7132H-95.6952H-95.6771H-95.6591H-95.6411H-95.623H-95.605H-95.587H-95.5689H-95.5509H-95.5329H-95.5149H-95.4968H-95.4788H-95.4608H-95.4427H-95.4247H-95.4067H-95.3886H-95.3706H-95.3526H-95.3345H-95.3165H-95.2985H-95.2805H-95.2624H-95.2444H-95.2263H-95.2083H-95.1903H-95.1723H-95.1542H-95.1362H-95.1182H-95.1001H-95.0821H-95.0641H-95.0461H-95.028H-95.01H-94.9919H-94.9739H-94.9559H-94.9379H-94.9198H-94.9018H-94.8838H-94.8657H-94.8477H-94.8297H-94.8116H-94.7936H-94.7756H-94.7575H-94.7395H-94.7215H-94.7035H-94.6854H-94.6674H-94.6494H-94.6313H-94.6133H-94.5953H-94.5772H-94.5592H-94.5412H-94.5231H-94.5051H-94.4871H-94.4691H-94.451H-94.433H-94.4149H-94.3969H-94.3789H-94.3609H-94.3428H-94.3248H-94.3068H-94.2887H-94.2707H-94.2527H-94.2346H-94.2166H-94.1986H-94.1805H-94.1625H-94.1445H-94.1265H-94.1084H-94.0904H-94.0724H-94.0543H-94.0363H-94.0182H-94.0002H-93.9822H-93.9642H-93.9461H-93.9281H-93.9101H-93.8921H-93.874H-93.856H-93.838H-93.8199H-93.8019H-93.7838H-93.7658H-93.7478H-93.7298H-93.7117H-93.6937H-93.6757H-93.6577H-93.6396H-93.6216H-93.6035H-93.5855H-93.5675H-93.5494H-93.5314H-93.5134H-93.4954H-93.4773H-93.4593H-93.4413H-93.4232H-93.4052H-93.3872H-93.3691H-93.3511H-93.3331H-93.3151H-93.297H-93.279H-93.261H-93.2429H-93.2249H-93.2068H-93.1888H-93.1708H-93.1528H-93.1347H-93.1167H-93.0987H-93.0807H-93.0626H-93.0446H-93.0266H-93.0085H-92.9905H-92.9724H-92.9544H-92.9364H-92.9184H-92.9003H-92.8823H-92.8643H-92.8463H-92.8282H-92.8102H-92.7921H-92.7741H-92.7561H-92.738H-92.72H-92.702H-92.684H-92.6659H-92.6479H-92.6299H-92.6118H-92.5938H-92.5758H-92.5577H-92.5397H-92.5217H-92.5037H-92.4856H-92.4676H-92.4496H-92.4315H-92.4135H-92.3954H-92.3774H-92.3594H-92.3414H-92.3233H-92.3053H-92.2873H-92.2693H-92.2512H-92.2332H-92.2151H-92.1971H-92.1791H-92.161H-92.143H-92.125H-92.107H-92.0889H-92.0709H-92.0529H-92.0349H-92.0168H-91.9988H-91.9807H-91.9627H-91.9447H-91.9266H-91.9086H-91.8906H-91.8726H-91.8545H-91.8365H-91.8185H-91.8004H-91.7824H-91.7644H-91.7463H-91.7283H-91.7103H-91.6922H-91.6742H-91.6562H-91.6382H-91.6201H-91.6021H-91.584H-91.566H-91.548H-91.53H-91.5119H-91.4939H-91.4759H-91.4579H-91.4398H-91.4218H-91.4037H-91.3857H-91.3677H-91.3496H-91.3316H-91.3136H-91.2956H-91.2775H-91.2595H-91.2415H-91.2234H-91.2054H-91.1874H-91.1693H-91.1513H-91.1333H-91.1152H-91.0972H-91.0792H-91.0612H-91.0431H-91.0251H-91.007H-90.989H-90.971H-90.953H-90.9349H-90.9169H-90.8989H-90.8808H-90.8628H-90.8448H-90.8268H-90.8087H-90.7907H-90.7726H-90.7546H-90.7366H-90.7186H-90.7005H-90.6825H-90.6645H-90.6464H-90.6284H-90.6104H-90.5923H-90.5743H-90.5563H-90.5382H-90.5202H-90.5022H-90.4842H-90.4661H-90.4481H-90.4301H-90.412H-90.394H-90.376H-90.3579H-90.3399H-90.3219H-90.3038H-90.2858H-90.2678H-90.2498H-90.2317H-90.2137H-90.1956H-90.1776H-90.1596H-90.1416H-90.1235H-90.1055H-90.0875H-90.0694H-90.0514H-90.0334H-90.0154H-89.9973H-89.9793H-89.9612H-89.9432H-89.9252H-89.9072H-89.8891H-89.8711H-89.8531H-89.835H-89.817H-89.799H-89.7809H-89.7629H-89.7449H-89.7268H-89.7088H-89.6908H-89.6728H-89.6547H-89.6367H-89.6187H-89.6006H-89.5826H-89.5646H-89.5465H-89.5285H-89.5105H-89.4924H-89.4744H-89.4564H-89.4384H-89.4203H-89.4023H-89.3842H-89.3662H-89.3482H-89.3302H-89.3121H-89.2941H-89.2761H-89.258H-89.24H-89.222H-89.2039H-89.1859H-89.1679H-89.1498H-89.1318H-89.1138H-89.0958H-89.0777H-89.0597H-89.0417H-89.0236H-89.0056H-88.9876H-88.9695H-88.9515H-88.9335H-88.9154H-88.8974H-88.8794H-88.8614H-88.8433H-88.8253H-88.8073H-88.7892H-88.7712H-88.7532H-88.7351H-88.7171H-88.6991H-88.681H-88.663H-88.645H-88.627H-88.6089H-88.5909H-88.5728H-88.5548H-88.5368H-88.5188H-88.5007H-88.4827H-88.4647H-88.4466H-88.4286H-88.4106H-88.3925H-88.3745H-88.3565H-88.3384H-88.3204H-88.3024H-88.2844H-88.2663H-88.2483H-88.2303H-88.2122H-88.1942H-88.1762H-88.1581H-88.1401H-88.1221H-88.104H-88.086H-88.068H-88.05H-88.0319H-88.0139H-87.9958H-87.9778H-87.9598H-87.9418H-87.9237H-87.9208L-200.056 34.9204Z" stroke="#FD5D63"/>
<path d="M234.16 1.01733L234.184 1.01404L234.118 0.518521C235.079 0.388891 236.041 0.388891 237.003 0.388891C237.964 0.388891 238.926 0.388891 239.888 0.259261L234.16 1.01733ZM234.16 1.01733L234.135 1.01821M234.16 1.01733L234.135 1.01821M234.135 1.01821C197.62 2.31352 162.659 6.71709 129.245 16.5538C52.4066 39.3408 4.09848 78.6661 -16.2162 133.175L-16.2163 133.176M234.135 1.01821L-16.2163 133.176M-16.2163 133.176C-28.859 167.001 -26.1859 200.838 -13.907 234.459L-13.9067 234.46M-16.2163 133.176L-13.9067 234.46M-13.9067 234.46C4.129 284.118 40.5946 327.081 91.3168 364.375C146.266 404.518 211.596 434.566 288.469 452.7C331.899 462.802 376.48 467.983 422.214 467.465H422.215C435.609 467.339 448.913 467.214 462.215 467.088L463.566 467.076C477.318 466.946 491.07 466.816 504.918 466.687H504.923H504.927H504.932H504.936H504.941H504.945H504.95H504.954H504.959H504.964H504.968H504.973H504.977H504.982H504.987H504.991H504.996H505.001H505.005H505.01H505.015H505.019H505.024H505.029H505.033H505.038H505.043H505.048H505.052H505.057H505.062H505.067H505.071H505.076H505.081H505.086H505.091H505.095H505.1H505.105H505.11H505.115H505.12H505.124H505.129H505.134H505.139H505.144H505.149H505.154H505.159H505.164H505.169H505.174H505.178H505.183H505.188H505.193H505.198H505.203H505.208H505.213H505.218H505.223H505.228H505.233H505.239H505.244H505.249H505.254H505.259H505.264H505.269H505.274H505.279H505.284H505.289H505.295H505.3H505.305H505.31H505.315H505.32H505.326H505.331H505.336H505.341H505.346H505.351H505.357H505.362H505.367H505.372H505.378H505.383H505.388H505.393H505.399H505.404H505.409H505.415H505.42H505.425H505.431H505.436H505.441H505.447H505.452H505.457H505.463H505.468H505.473H505.479H505.484H505.49H505.495H505.5H505.506H505.511H505.517H505.522H505.527H505.533H505.538H505.544H505.549H505.555H505.56H505.566H505.571H505.577H505.582H505.588H505.593H505.599H505.604H505.61H505.615H505.621H505.627H505.632H505.638H505.643H505.649H505.655H505.66H505.666H505.671H505.677H505.683H505.688H505.694H505.7H505.705H505.711H505.716H505.722H505.728H505.733H505.739H505.745H505.751H505.756H505.762H505.768H505.773H505.779H505.785H505.791H505.796H505.802H505.808H505.814H505.819H505.825H505.831H505.837H505.843H505.848H505.854H505.86H505.866H505.872H505.877H505.883H505.889H505.895H505.901H505.907H505.913H505.918H505.924H505.93H505.936H505.942H505.948H505.954H505.96H505.966H505.971H505.977H505.983H505.989H505.995H506.001H506.007H506.013H506.019H506.025H506.031H506.037H506.043H506.049H506.055H506.061H506.067H506.073H506.079H506.085H506.091H506.097H506.103H506.109H506.115H506.121H506.127H506.133H506.139H506.145H506.151H506.157H506.164H506.17H506.176H506.182H506.188H506.194H506.2H506.206H506.212H506.218H506.225H506.231H506.237H506.243H506.249H506.255H506.261H506.268H506.274H506.28H506.286H506.292H506.299H506.305H506.311H506.317H506.323H506.329H506.336H506.342H506.348H506.354H506.361H506.367H506.373H506.379H506.386H506.392H506.398H506.404H506.411H506.417H506.423H506.429H506.436H506.442H506.448H506.454H506.461H506.467H506.473H506.48H506.486H506.492H506.499H506.505H506.511H506.518H506.524H506.53H506.537H506.543H506.549H506.556H506.562H506.568H506.575H506.581H506.587H506.594H506.6H506.607H506.613H506.619H506.626H506.632H506.639H506.645H506.651H506.658H506.664H506.671H506.677H506.683H506.69H506.696H506.703H506.709H506.716H506.722H506.728H506.735H506.741H506.748H506.754H506.761H506.767H506.774H506.78H506.787H506.793H506.8H506.806H506.813H506.819H506.826H506.832H506.839H506.845H506.852H506.858H506.865H506.871H506.878H506.884H506.891H506.897H506.904H506.91H506.917H506.923H506.93H506.936H506.943H506.95H506.956H506.963H506.969H506.976H506.982H506.989H506.995H507.002H507.009H507.015H507.022H507.028H507.035H507.041H507.048H507.055H507.061H507.068H507.074H507.081H507.088H507.094H507.101H507.107H507.114H507.121H507.127H507.134H507.141H507.147H507.151M-13.9067 234.46L507.151 466.687M507.151 466.687C506.976 466.493 506.752 466.318 506.487 466.154C506.077 465.901 505.623 465.704 505.159 465.503C505.013 465.44 504.865 465.376 504.718 465.31L504.701 465.302L504.685 465.294C485.456 454.925 466.222 444.555 447.372 433.924C444.361 432.404 441.759 431.656 438.024 431.908L438.011 431.909L437.998 431.909C435.002 431.953 432.016 432.004 429.037 432.055C414.432 432.307 399.984 432.555 385.273 431.909C385.272 431.909 385.271 431.908 385.27 431.908L385.291 431.409M507.151 466.687L60.6332 276.371C105.639 340.149 177.187 385.52 272.969 413.52M385.291 431.409C346.056 430.113 308.743 424.15 272.969 413.52M385.291 431.409C399.987 432.055 414.418 431.807 429.024 431.556C432.004 431.504 434.992 431.453 437.991 431.409M385.291 431.409H437.991M272.969 413.52L272.829 414M272.969 413.52L272.827 413.999C272.827 413.999 272.828 414 272.829 414M272.829 414C176.974 385.978 105.314 340.556 60.2246 276.66L60.2228 276.657C39.7895 247.294 28.5862 216.079 29.7449 183.538L29.7449 183.538C31.2908 142.124 52.5574 105.948 97.2902 77.0986C127.371 57.6044 163.604 45.9198 204.426 39.9498L204.43 39.9493C221.376 37.6131 238.706 36.3153 256.036 36.0557L256.039 36.0557C287.198 35.7964 318.354 35.5372 349.124 35.0186H349.133H349.137C349.967 35.0186 350.792 35.0186 352.056 34.9204M272.829 414L352.056 34.9204M437.991 431.409C441.837 431.15 444.53 431.927 447.607 433.483C466.456 444.113 485.689 454.483 504.923 464.853L437.991 431.409ZM352.056 34.9204C350.193 33.9129 348.46 32.9391 346.791 32.0007C346.559 31.8704 346.329 31.7409 346.099 31.612C343.791 30.3157 341.588 29.089 339.291 27.9279L339.282 27.9234C325.346 20.5434 311.124 12.7777 297.112 5.12693C294.877 3.90634 292.647 2.68867 290.424 1.47596L290.404 1.46474L290.384 1.45166L290.375 1.44565C290.034 1.21598 289.651 0.957472 289.267 0.5H289.266H289.239H289.212H289.185H289.158H289.131H289.104H289.077H289.05H289.023H288.996H288.969H288.942H288.915H288.888H288.86H288.833H288.806H288.779H288.752H288.725H288.698H288.671H288.644H288.617H288.59H288.563H288.536H288.509H288.482H288.455H288.428H288.401H288.374H288.347H288.32H288.292H288.265H288.238H288.211H288.184H288.157H288.13H288.103H288.076H288.049H288.022H287.995H287.968H287.941H287.914H287.887H287.86H287.833H287.806H287.779H287.752H287.724H287.697H287.67H287.643H287.616H287.589H287.562H287.535H287.508H287.481H287.454H287.427H287.4H287.373H287.346H287.319H287.292H287.265H287.238H287.211H287.184H287.157H287.129H287.102H287.075H287.048H287.021H286.994H286.967H286.94H286.913H286.886H286.859H286.832H286.805H286.778H286.751H286.724H286.697H286.67H286.643H286.616H286.589H286.561H286.534H286.507H286.48H286.453H286.426H286.399H286.372H286.345H286.318H286.291H286.264H286.237H286.21H286.183H286.156H286.129H286.102H286.075H286.048H286.021H285.993H285.966H285.939H285.912H285.885H285.858H285.831H285.804H285.777H285.75H285.723H285.696H285.669H285.642H285.615H285.588H285.561H285.534H285.507H285.48H285.453H285.426H285.398H285.371H285.344H285.317H285.29H285.263H285.236H285.209H285.182H285.155H285.128H285.101H285.074H285.047H285.02H284.993H284.966H284.939H284.912H284.885H284.858H284.83H284.803H284.776H284.749H284.722H284.695H284.668H284.641H284.614H284.587H284.56H284.533H284.506H284.479H284.452H284.425H284.398H284.371H284.344H284.317H284.29H284.262H284.235H284.208H284.181H284.154H284.127H284.1H284.073H284.046H284.019H283.992H283.965H283.938H283.911H283.884H283.857H283.83H283.803H283.776H283.749H283.722H283.695H283.667H283.64H283.613H283.586H283.559H283.532H283.505H283.478H283.451H283.424H283.397H283.37H283.343H283.316H283.289H283.262H283.235H283.208H283.181H283.154H283.127H283.099H283.072H283.045H283.018H282.991H282.964H282.937H282.91H282.883H282.856H282.829H282.802H282.775H282.748H282.721H282.694H282.667H282.64H282.613H282.586H282.559H282.531H282.504H282.477H282.45H282.423H282.396H282.369H282.342H282.315H282.288H282.261H282.234H282.207H282.18H282.153H282.126H282.099H282.072H282.045H282.018H281.991H281.964H281.936H281.909H281.882H281.855H281.828H281.801H281.774H281.747H281.72H281.693H281.666H281.639H281.612H281.585H281.558H281.531H281.504H281.477H281.45H281.423H281.396H281.368H281.341H281.314H281.287H281.26H281.233H281.206H281.179H281.152H281.125H281.098H281.071H281.044H281.017H280.99H280.963H280.936H280.909H280.882H280.855H280.828H280.801H280.773H280.746H280.719H280.692H280.665H280.638H280.611H280.584H280.557H280.53H280.503H280.476H280.449H280.422H280.395H280.368H280.341H280.314H280.287H280.26H280.233H280.205H280.178H280.151H280.124H280.097H280.07H280.043H280.016H279.989H279.962H279.935H279.908H279.881H279.854H279.827H279.8H279.773H279.746H279.719H279.692H279.665H279.637H279.61H279.583H279.556H279.529H279.502H279.475H279.448H279.421H279.394H279.367H279.34H279.313H279.286H279.259H279.232H279.205H279.178H279.151H279.124H279.097H279.07H279.042H279.015H278.988H278.961H278.934H278.907H278.88H278.853H278.826H278.799H278.772H278.745H278.718H278.691H278.664H278.637H278.61H278.583H278.556H278.529H278.502H278.474H278.447H278.42H278.393H278.366H278.339H278.312H278.285H278.258H278.231H278.204H278.177H278.15H278.123H278.096H278.069H278.042H278.015H277.988H277.961H277.934H277.906H277.879H277.852H277.825H277.798H277.771H277.744H277.717H277.69H277.663H277.636H277.609H277.582H277.555H277.528H277.501H277.474H277.447H277.42H277.393H277.366H277.339H277.311H277.284H277.257H277.23H277.203H277.176H277.149H277.122H277.095H277.068H277.041H277.014H276.987H276.96H276.933H276.906H276.879H276.852H276.825H276.798H276.771H276.743H276.716H276.689H276.662H276.635H276.608H276.581H276.554H276.527H276.5H276.473H276.446H276.419H276.392H276.365H276.338H276.311H276.284H276.257H276.23H276.203H276.175H276.148H276.121H276.094H276.067H276.04H276.013H275.986H275.959H275.932H275.905H275.878H275.851H275.824H275.797H275.77H275.743H275.716H275.707C273.549 0.890858 271.308 0.888345 269.108 0.823861C268.653 0.81055 268.201 0.794652 267.752 0.778849C265.993 0.716968 264.275 0.656519 262.614 0.758325L262.598 0.759261H262.583H262.556H262.529H262.502H262.475H262.448H262.421H262.394H262.367H262.34H262.313H262.286H262.259H262.232H262.205H262.178H262.151H262.124H262.098H262.071H262.044H262.017H261.99H261.963H261.936H261.909H261.883H261.856H261.829H261.802H261.775H261.749H261.722H261.695H261.668H261.641H261.615H261.588H261.561H261.534H261.508H261.481H261.454H261.428H261.401H261.374H261.348H261.321H261.294H261.268H261.241H261.214H261.188H261.161H261.134H261.108H261.081H261.055H261.028H261.001H260.975H260.948H260.922H260.895H260.868H260.842H260.815H260.789H260.762H260.736H260.709H260.683H260.656H260.63H260.603H260.577H260.55H260.524H260.497H260.471H260.444H260.418H260.392H260.365H260.339H260.312H260.286H260.259H260.233H260.207H260.18H260.154H260.127H260.101H260.075H260.048H260.022H259.996H259.969H259.943H259.917H259.89H259.864H259.838H259.811H259.785H259.759H259.732H259.706H259.68H259.653H259.627H259.601H259.575H259.548H259.522H259.496H259.47H259.443H259.417H259.391H259.365H259.338H259.312H259.286H259.26H259.233H259.207H259.181H259.155H259.129H259.102H259.076H259.05H259.024H258.998H258.972H258.945H258.919H258.893H258.867H258.841H258.815H258.789H258.762H258.736H258.71H258.684H258.658H258.632H258.606H258.58H258.553H258.527H258.501H258.475H258.449H258.423H258.397H258.371H258.345H258.319H258.293H258.266H258.24H258.214H258.188H258.162H258.136H258.11H258.084H258.058H258.032H258.006H257.98H257.954H257.928H257.902H257.876H257.85H257.824H257.798H257.772H257.746H257.72H257.694H257.668H257.642H257.616H257.59H257.564H257.538H257.512H257.486H257.46H257.434H257.408H257.382H257.356H257.33H257.304H257.278H257.252H257.226H257.2H257.174H257.148H257.122H257.096H257.07H257.044H257.018H256.992H256.966H256.94H256.914H256.888H256.863H256.837H256.811H256.785H256.759H256.733H256.707H256.681H256.655H256.629H256.603H256.577H256.551H256.525H256.499H256.473H256.448H256.422H256.396H256.37H256.344H256.318H256.292H256.266H256.24H256.214H256.188H256.162H256.136H256.11H256.085H256.059H256.033H256.007H255.981H255.955H255.929H255.903H255.877H255.851H255.825H255.799H255.774H255.748H255.722H255.696H255.67H255.644H255.618H255.592H255.566H255.54H255.514H255.488H255.462H255.437H255.411H255.385H255.359H255.333H255.307H255.281H255.255H255.229H255.203H255.177H255.151H255.125H255.099H255.074H255.048H255.022H254.996H254.97H254.944H254.918H254.892H254.866H254.84H254.814H254.788H254.762H254.736H254.71H254.684H254.658H254.632H254.607H254.581H254.555H254.529H254.503H254.477H254.451H254.425H254.399H254.373H254.347H254.321H254.295H254.269H254.243H254.217H254.191H254.165H254.139H254.113H254.087H254.061H254.035H254.009H253.983H253.957H253.931H253.905H253.879H253.853H253.827H253.801H253.775H253.749H253.723H253.697H253.671H253.645H253.619H253.592H253.566H253.54H253.514H253.488H253.462H253.436H253.41H253.384H253.358H253.332H253.306H253.28H253.254H253.227H253.201H253.175H253.149H253.123H253.097H253.071H253.045H253.019H252.992H252.966H252.94H252.914H252.888H252.862H252.836H252.809H252.783H252.757H252.731H252.705H252.679H252.652H252.626H252.6H252.574H252.548H252.522H252.495H252.469H252.443H252.417H252.39H252.364H252.338H252.312H252.286H252.259H252.233H252.207H252.181H252.154H252.128H252.102H252.075H252.049H252.023H251.997H251.97H251.944H251.918H251.891H251.865H251.839H251.812H251.786H251.76H251.733H251.707H251.681H251.654H251.628H251.602H251.575H251.549H251.522H251.496H251.47H251.443H251.417H251.39H251.364H251.337H251.311H251.285H251.258H251.232H251.205H251.179H251.152H251.126H251.099H251.073H251.046H251.02H250.993H250.967H250.94H250.914H250.887H250.861H250.834H250.808H250.781H250.754H250.728H250.701H250.675H250.648H250.621H250.595H250.568H250.542H250.515H250.488H250.462H250.435H250.408H250.382H250.355H250.328H250.302H250.275H250.248H250.222H250.195H250.168H250.141H250.115H250.088H250.061H250.034H250.008H249.981H249.954H249.927H249.9H249.874H249.847H249.82H249.793H249.766H249.739H249.713H249.686H249.659H249.632H249.605H249.578H249.551H249.524H249.497H249.471H249.444H249.417H249.39H249.363H249.336H249.309H249.282H249.255H249.228H249.201H249.174H249.147H249.12H249.102H249.084H249.066H249.048H249.029H249.011H248.993H248.975H248.957H248.939H248.921H248.903H248.885H248.867H248.849H248.831H248.813H248.795H248.777H248.759H248.741H248.723H248.705H248.687H248.669H248.651H248.633H248.615H248.597H248.579H248.561H248.543H248.525H248.507H248.489H248.47H248.452H248.434H248.416H248.398H248.38H248.362H248.344H248.326H248.308H248.29H248.272H248.254H248.236H248.218H248.2H248.182H248.164H248.146H248.128H248.11H248.092H248.074H248.056H248.038H248.02H248.002H247.984H247.966H247.948H247.93H247.912H247.893H247.875H247.857H247.839H247.821H247.803H247.785H247.767H247.749H247.731H247.713H247.695H247.677H247.659H247.641H247.623H247.605H247.587H247.569H247.551H247.533H247.515H247.497H247.479H247.461H247.443H247.425H247.407H247.389H247.371H247.353H247.335H247.316H247.298H247.28H247.262H247.244H247.226H247.208H247.19H247.172H247.154H247.136H247.118H247.1H247.082H247.064H247.046H247.028H247.01H246.992H246.974H246.956H246.938H246.92H246.902H246.884H246.866H246.848H246.83H246.812H246.794H246.776H246.758H246.74H246.721H246.703H246.685H246.667H246.649H246.631H246.613H246.595H246.577H246.559H246.541H246.523H246.505H246.487H246.469H246.451H246.433H246.415H246.397H246.379H246.361H246.343H246.325H246.307H246.289H246.271H246.253H246.235H246.217H246.199H246.181H246.163H246.144H246.126H246.108H246.09H246.072H246.054H246.036H246.018H246H245.982H245.964H245.946H245.928H245.91H245.892H245.874H245.856H245.838H245.82H245.802H245.784H245.766H245.748H245.73H245.712H245.694H245.676H245.658H245.64H245.622H245.604H245.586H245.567H245.549H245.531H245.513H245.495H245.477H245.459H245.441H245.423H245.405H245.387H245.369H245.351H245.333H245.315H245.297H245.279H245.261H245.243H245.225H245.207H245.189H245.171H245.153H245.135H245.117H245.099H245.081H245.063H245.045H245.027H245.009H244.99H244.972H244.954H244.936H244.918H244.9H244.882H244.864H244.846H244.828H244.81H244.792H244.774H244.756H244.738H244.72H244.702H244.684H244.666H244.648H244.63H244.612H244.594H244.576H244.558H244.54H244.522H244.504H244.486H244.468H244.45H244.432H244.413H244.395H244.377H244.359H244.341H244.323H244.305H244.287H244.269H244.251H244.233H244.215H244.197H244.179H244.161H244.143H244.125H244.107H244.089H244.071H244.053H244.035H244.017H243.999H243.981H243.963H243.945H243.927H243.909H243.891H243.873H243.855H243.836H243.818H243.8H243.782H243.764H243.746H243.728H243.71H243.692H243.674H243.656H243.638H243.62H243.602H243.584H243.566H243.548H243.53H243.512H243.494H243.476H243.458H243.44H243.422H243.404H243.386H243.368H243.35H243.332H243.314H243.296H243.278H243.259H243.241H243.223H243.205H243.187H243.169H243.151H243.133H243.115H243.097H243.079H243.061H243.043H243.025H243.007H242.989H242.971H242.953H242.935H242.917H242.899H242.881H242.863H242.845H242.827H242.809H242.791H242.773H242.755H242.737H242.719H242.701H242.682H242.664H242.646H242.628H242.61H242.592H242.574H242.556H242.538H242.52H242.502H242.484H242.466H242.448H242.43H242.412H242.394H242.376H242.358H242.34H242.322H242.304H242.286H242.268H242.25H242.232H242.214H242.196H242.178H242.16H242.142H242.124H242.105H242.087H242.069H242.051H242.033H242.015H241.997H241.979H241.961H241.943H241.925H241.907H241.889H241.871H241.853H241.835H241.817H241.799H241.781H241.763H241.745H241.727H241.709H241.691H241.673H241.655H241.637H241.619H241.601H241.583H241.565H241.547H241.529H241.51H241.492H241.474H241.456H241.438H241.42H241.402H241.384H241.366H241.348H241.33H241.312H241.294H241.276H241.258H241.24H241.222H241.204H241.186H241.168H241.15H241.132H241.114H241.096H241.078H241.06H241.042H241.024H241.006H240.988H240.97H240.952H240.933H240.915H240.897H240.879H240.861H240.843H240.825H240.807H240.789H240.771H240.753H240.735H240.717H240.699H240.681H240.663H240.645H240.627H240.609H240.591H240.573H240.555H240.537H240.519H240.501H240.483H240.465H240.447H240.429H240.411H240.393H240.375H240.356H240.338H240.32H240.302H240.284H240.266H240.248H240.23H240.212H240.194H240.176H240.158H240.14H240.122H240.104H240.086H240.068H240.05H240.032H240.014H239.996H239.978H239.96H239.942H239.924H239.921L352.056 34.9204Z" stroke="#FD5D63"/>
</svg>
