<svg width="46" height="46" viewBox="0 0 46 46" fill="none" xmlns="http://www.w3.org/2000/svg">
<path d="M23.4306 40.9951C24.6731 40.9658 25.7036 41.9493 25.7328 43.1917C25.7619 44.4339 24.7784 45.4647 23.5362 45.4937L23 45.5L22.4638 45.4937C21.2216 45.4647 20.2381 44.4339 20.2672 43.1917C20.2964 41.9493 21.3269 40.9658 22.5694 40.9951L23 41L23.4306 40.9951ZM35.4607 39.121C36.1085 40.1814 35.7739 41.5661 34.7135 42.2139C34.4093 42.3997 34.1002 42.5786 33.7865 42.7503C32.6964 43.3468 31.3291 42.9467 30.7326 41.8566C30.1361 40.7664 30.5362 39.3991 31.6263 38.8027C31.8772 38.6654 32.1244 38.5223 32.3679 38.3736C33.4283 37.7258 34.8132 38.0604 35.4607 39.121ZM13.6321 38.3736C13.8756 38.5223 14.1229 38.6654 14.3737 38.8027C15.4638 39.3991 15.864 40.7664 15.2675 41.8566C14.671 42.9467 13.3037 43.3468 12.2136 42.7503C11.8999 42.5786 11.5908 42.3997 11.2865 42.2139C10.226 41.5661 9.89143 40.1814 10.5392 39.121C11.1869 38.0604 12.5717 37.7258 13.6321 38.3736ZM23 9.5C30.4558 9.5 36.5 15.5442 36.5 23C36.5 30.4558 30.4558 36.5 23 36.5C15.5442 36.5 9.5 30.4558 9.5 23C9.5 15.5442 15.5442 9.5 23 9.5ZM41.8566 30.7326C42.9467 31.3291 43.3468 32.6964 42.7503 33.7865C42.5786 34.1002 42.3997 34.4093 42.2139 34.7135C41.5661 35.7739 40.1814 36.1085 39.121 35.4607C38.0604 34.8132 37.7258 33.4283 38.3736 32.3679C38.5223 32.1244 38.6654 31.8772 38.8027 31.6263C39.3991 30.5362 40.7664 30.1361 41.8566 30.7326ZM7.19735 31.6263C7.3346 31.8772 7.47766 32.1244 7.62638 32.3679C8.27411 33.4283 7.93954 34.8132 6.87907 35.4607C5.81862 36.1085 4.43383 35.7739 3.78608 34.7135C3.60021 34.4093 3.42133 34.1002 3.24968 33.7865C2.65318 32.6964 3.05334 31.3291 4.14347 30.7326C5.23359 30.1361 6.60085 30.5362 7.19735 31.6263ZM23 14C18.0294 14 14 18.0294 14 23C14 27.9705 18.0294 32 23 32C27.9705 32 32 27.9705 32 23C32 18.0294 27.9705 14 23 14ZM23 18.5C25.4853 18.5 27.5 20.5147 27.5 23C27.5 25.4853 25.4853 27.5 23 27.5C20.5147 27.5 18.5 25.4853 18.5 23C18.5 20.5147 20.5147 18.5 23 18.5ZM2.80836 20.2672C4.05066 20.2964 5.03416 21.3269 5.00504 22.5694L5 23C5 23.144 5.00169 23.2875 5.00504 23.4306C5.03416 24.6731 4.05066 25.7036 2.80836 25.7328C1.56605 25.7619 0.53537 24.7784 0.506277 23.5362L0.5 23C0.5 22.8209 0.502092 22.642 0.506277 22.4638C0.53537 21.2216 1.56605 20.2381 2.80836 20.2672ZM43.1917 20.2672C44.4339 20.2381 45.4647 21.2216 45.4937 22.4638L45.5 23L45.4937 23.5362C45.4647 24.7784 44.4339 25.7619 43.1917 25.7328C41.9493 25.7036 40.9658 24.6731 40.9951 23.4306L41 23L40.9951 22.5694C40.9658 21.3269 41.9493 20.2964 43.1917 20.2672ZM42.2139 11.2865C42.3997 11.5908 42.5786 11.8999 42.7503 12.2136C43.3468 13.3037 42.9467 14.671 41.8566 15.2675C40.7664 15.864 39.3991 15.4638 38.8027 14.3737C38.6654 14.1229 38.5223 13.8756 38.3736 13.6321C37.7258 12.5717 38.0604 11.1869 39.121 10.5392C40.1814 9.89143 41.5661 10.226 42.2139 11.2865ZM6.87907 10.5392C7.93954 11.1869 8.27411 12.5717 7.62636 13.6321C7.47766 13.8756 7.3346 14.1229 7.19735 14.3737C6.60085 15.4638 5.23359 15.864 4.14347 15.2675C3.05334 14.671 2.65318 13.3037 3.24968 12.2136C3.42133 11.8999 3.60021 11.5908 3.78608 11.2865C4.43383 10.226 5.81862 9.89143 6.87907 10.5392ZM33.7865 3.24968C34.1002 3.42133 34.4093 3.60021 34.7135 3.78608C35.7739 4.43383 36.1085 5.81862 35.4607 6.87907C34.8132 7.93954 33.4283 8.27411 32.3679 7.62636C32.1244 7.47766 31.8772 7.3346 31.6263 7.19735C30.5362 6.60085 30.1361 5.23359 30.7326 4.14347C31.3291 3.05334 32.6964 2.65318 33.7865 3.24968ZM15.2675 4.14347C15.864 5.23359 15.4638 6.60085 14.3737 7.19735C14.1229 7.3346 13.8756 7.47766 13.6321 7.62638C12.5717 8.27411 11.1869 7.93954 10.5392 6.87907C9.89143 5.81862 10.226 4.43383 11.2865 3.78608C11.5908 3.60021 11.8999 3.42133 12.2136 3.24968C13.3037 2.65318 14.671 3.05334 15.2675 4.14347ZM23.5362 0.506277C24.7784 0.53537 25.7619 1.56605 25.7328 2.80836C25.7036 4.05066 24.6731 5.03416 23.4306 5.00504L23 5L22.5694 5.00504C21.3269 5.03416 20.2964 4.05066 20.2672 2.80836C20.2381 1.56605 21.2216 0.53537 22.4638 0.506277L23 0.5L23.5362 0.506277Z" fill="#FD5D63"/>
</svg>
