<svg width="20" height="21" viewBox="0 0 20 21" fill="none" xmlns="http://www.w3.org/2000/svg">
<path d="M19.9864 4.83468V4.72475C19.9974 4.20928 19.9042 3.69689 19.7124 3.2183C19.5206 2.73971 19.2341 2.30477 18.8702 1.93954C18.5063 1.57431 18.0724 1.28631 17.5945 1.0928C17.1166 0.899291 16.6045 0.804251 16.089 0.81338C12.2369 0.80472 8.38221 0.80472 4.52481 0.81338C4.00937 0.806054 3.49781 0.903446 3.02112 1.09965C2.54443 1.29585 2.11254 1.58678 1.7516 1.95482C1.39066 2.32286 1.1082 2.76034 0.921318 3.24076C0.734438 3.72118 0.64703 4.23454 0.664395 4.74974C0.664395 8.63513 0.715363 12.5125 0.647409 16.3979C0.630851 16.9337 0.722607 17.4673 0.917186 17.9668C1.11176 18.4663 1.40516 18.9214 1.7798 19.3048C2.15443 19.6882 2.6026 19.9921 3.09745 20.1981C3.59231 20.4042 4.12367 20.5083 4.65971 20.5041C8.45716 20.4872 12.2616 20.5121 16.063 20.4962C16.5878 20.5039 17.1086 20.4046 17.5937 20.2045C18.0789 20.0044 18.5182 19.7076 18.8849 19.3322C19.2516 18.9568 19.538 18.5106 19.7267 18.0209C19.9154 17.5312 20.0024 17.0083 19.9824 16.4839C19.9904 14.5372 19.9824 12.5815 19.9824 10.6338L19.9864 4.83468ZM13.5357 18.1257C12.4605 18.1507 11.3852 18.1337 10.3099 18.1337C9.23464 18.1337 8.15935 18.1587 7.08408 18.1257C6.0014 18.0662 4.98007 17.6042 4.2204 16.8305C3.46074 16.0568 3.01757 15.0271 2.97784 13.9436C2.93587 11.734 2.93587 9.53252 2.97784 7.323C3.02651 6.239 3.47616 5.21174 4.23955 4.4406C5.00294 3.66945 6.02561 3.20943 7.10907 3.14981C9.25962 3.10784 11.4182 3.10784 13.5687 3.14981C14.6631 3.19907 15.6981 3.66161 16.4649 4.4441C17.2316 5.2266 17.673 6.27079 17.6999 7.36598C17.7339 9.53352 17.7419 11.7091 17.6999 13.8756C17.6725 14.9795 17.2275 16.0319 16.4547 16.8206C15.6819 17.6094 14.6388 18.0758 13.5357 18.1257Z" fill="#707272"/>
<path d="M13.4432 4.14795C11.3859 4.10531 9.32333 4.10531 7.25538 4.14795C6.36925 4.16599 5.52548 4.53058 4.90505 5.16352C4.28462 5.79647 3.93695 6.64736 3.93662 7.53367C3.90264 9.60728 3.90264 11.6899 3.93662 13.7645C3.93922 14.2123 4.03031 14.6552 4.20467 15.0676C4.37903 15.4801 4.63321 15.8541 4.9526 16.168C5.27198 16.4819 5.65026 16.7295 6.06569 16.8967C6.48113 17.0639 6.92551 17.1474 7.3733 17.1422H10.2774C11.2847 17.1422 12.284 17.1502 13.2913 17.1422C13.7479 17.1419 14.1999 17.0505 14.6207 16.8733C15.0415 16.6961 15.4228 16.4368 15.7421 16.1104C16.0614 15.784 16.3124 15.3971 16.4803 14.9725C16.6482 14.5479 16.7297 14.0941 16.72 13.6376V7.6276C16.7341 7.18377 16.6605 6.74152 16.5033 6.3262C16.3461 5.91089 16.1085 5.53069 15.8041 5.20741C15.4997 4.88413 15.1344 4.62413 14.7293 4.44233C14.3241 4.26052 13.8871 4.16048 13.4432 4.14795ZM10.3193 14.417C9.56666 14.4291 8.8275 14.2166 8.19626 13.8065C7.56503 13.3964 7.07037 12.8074 6.77553 12.1148C6.48068 11.4222 6.39903 10.6574 6.54099 9.91817C6.68295 9.17893 7.04209 8.4988 7.57251 7.96467C8.10293 7.43055 8.78055 7.0667 9.51878 6.9196C10.257 6.7725 11.0224 6.84884 11.717 7.13887C12.4116 7.42889 13.004 7.91942 13.4185 8.5478C13.833 9.17617 14.0507 9.91384 14.0438 10.6666C14.0474 11.1579 13.9537 11.6451 13.7681 12.1C13.5825 12.5549 13.3087 12.9687 12.9625 13.3173C12.6163 13.6659 12.2044 13.9426 11.7508 14.1313C11.2972 14.3201 10.8107 14.4172 10.3193 14.417ZM14.5095 7.50869C14.2551 7.49756 14.015 7.38807 13.8397 7.20332C13.6645 7.01857 13.5678 6.77299 13.5701 6.51835C13.5666 6.38736 13.5903 6.25706 13.6396 6.13566C13.689 6.01426 13.7629 5.90438 13.8568 5.81295C13.9506 5.72152 14.0624 5.65051 14.1851 5.6044C14.3077 5.55828 14.4386 5.53806 14.5695 5.545C14.8241 5.55593 15.0649 5.66372 15.2427 5.84632C15.4204 6.02892 15.5217 6.27254 15.5258 6.52735C15.5193 6.79163 15.409 7.04271 15.2188 7.22634C15.0286 7.40997 14.7738 7.51139 14.5095 7.50869Z" fill="#707272"/>
<path d="M10.3526 7.83856C9.79742 7.82097 9.24959 7.96899 8.77885 8.26378C8.30811 8.55857 7.93576 8.98679 7.70919 9.49391C7.48263 10.001 7.41211 10.5641 7.50663 11.1114C7.60115 11.6588 7.85642 12.1656 8.23993 12.5673C8.62345 12.9691 9.11787 13.2476 9.66021 13.3675C10.2026 13.4873 10.7683 13.443 11.2854 13.2403C11.8025 13.0375 12.2475 12.6855 12.5639 12.2289C12.8802 11.7724 13.0535 11.232 13.0618 10.6767C13.0712 10.3122 13.0085 9.94941 12.8773 9.60924C12.746 9.26906 12.5489 8.95817 12.2971 8.69444C12.0454 8.4307 11.744 8.21932 11.4103 8.07244C11.0766 7.92556 10.7171 7.84608 10.3526 7.83856Z" fill="#707272"/>
</svg>
