<svg width="524" height="335" viewBox="0 0 524 335" fill="none" xmlns="http://www.w3.org/2000/svg">
<path fill-rule="evenodd" clip-rule="evenodd" d="M431.536 156.163C430.883 156.163 430.354 156.693 430.354 157.346C430.354 157.977 430.846 158.492 431.466 158.528L431.536 158.53H482.293C511.636 158.53 532.474 181.922 529.304 211.039L529.201 211.923L519.593 288.702C519.511 289.351 519.97 289.943 520.618 290.024C521.242 290.103 521.813 289.678 521.926 289.066L521.937 288.997L531.545 212.217C535.376 181.589 513.794 156.666 483.222 156.17L482.293 156.163H431.536Z" fill="#5C4C8B"/>
<path fill-rule="evenodd" clip-rule="evenodd" d="M396.703 131.398C396.205 131.324 395.715 131.574 395.482 132.021L394.105 134.663C394.054 134.759 394.018 134.862 393.995 134.969L393.981 135.049L392.327 146.965C392.29 147.236 392.348 147.512 392.49 147.745L392.535 147.814L398.835 156.691C399.213 157.224 399.951 157.348 400.482 156.97C400.994 156.605 401.128 155.908 400.802 155.381L400.761 155.319L394.732 146.825L396.293 135.579L397.186 133.866L397.312 133.886C412.661 136.291 422.266 140.68 426.668 146.708L426.802 146.895C430.628 152.297 430.335 159.08 426.345 167.075C425.995 167.775 426.408 168.616 427.175 168.766C453.106 173.841 474.209 195.63 486.799 226.914C498.142 255.1 500.693 287.19 493.348 307.785L492.155 311.162C489.63 318.274 488.099 321.728 485.82 324.798C482.891 328.744 479.26 330.743 474.249 330.791C473.597 330.797 473.073 331.332 473.079 331.985C473.085 332.639 473.619 333.164 474.271 333.158C480.051 333.103 484.361 330.73 487.715 326.211L487.906 325.952C490.201 322.788 491.757 319.298 494.176 312.532L495.524 308.721C495.54 308.674 495.557 308.627 495.573 308.581C503.132 287.387 500.535 254.714 488.99 226.029C476.385 194.709 455.321 172.592 429.231 166.779L429.117 166.753L429.196 166.578C432.786 158.599 432.869 151.524 428.86 145.712L428.729 145.525C423.853 138.641 413.346 133.878 396.703 131.398Z" fill="#5C4C8B"/>
<path fill-rule="evenodd" clip-rule="evenodd" d="M381.842 187.924C381.842 187.845 381.842 187.766 381.842 187.687C379.991 187.885 378.179 187.885 376.407 186.385C372.076 182.637 370.54 181.493 370.54 181.493C370.54 181.493 370.146 181.966 369.438 182.755C368.571 181.177 367.705 179.52 366.799 177.863C385.504 163.344 399.798 156.005 399.798 156.005L400.861 155.255L407.712 163.659C407.712 163.659 396.529 171.353 381.842 187.924Z" fill="#FD5D63"/>
<path fill-rule="evenodd" clip-rule="evenodd" d="M291.431 324.123C291.431 324.123 321.358 243.477 317.538 218.502C315.451 204.85 318.72 189.423 323.209 177.469L331.793 178.021L342.07 202.325C341.401 202.483 340.731 202.641 340.062 202.72C340.062 202.72 340.456 205.284 341.44 211.124C342.11 215.03 340.968 215.464 340.101 218.186C338.96 220.001 338.093 222.053 339.038 225.248C339.353 226.274 340.101 236.059 341.795 249.316C338.644 255.984 335.652 263.086 332.817 270.661C314.664 319.151 316.554 324.438 316.554 324.438L291.431 324.123Z" fill="#FD5D63"/>
<path fill-rule="evenodd" clip-rule="evenodd" d="M329.17 134.119C328.958 133.5 328.287 133.17 327.669 133.382C315.704 137.489 307.352 143.975 301.902 152.444C297.952 158.582 295.85 164.971 294.456 173.044L294.4 173.378L293.602 173.988C255.479 203.242 228.238 236.228 210.136 270.837L209.585 271.897C202.78 285.056 197.653 297.793 193.97 309.829C191.38 318.292 189.772 325.487 188.906 331.164C188.808 331.81 189.251 332.414 189.896 332.513C190.541 332.612 191.143 332.168 191.242 331.522L191.334 330.93C192.203 325.457 193.764 318.579 196.229 310.523C199.871 298.62 204.945 286.016 211.683 272.986C229.805 237.943 257.358 204.535 296.202 174.979C296.442 174.796 296.604 174.527 296.653 174.229C297.997 166.067 300.015 159.745 303.888 153.727C309.048 145.709 316.968 139.558 328.435 135.622C329.052 135.41 329.381 134.737 329.17 134.119Z" fill="#5C4C8B"/>
<path fill-rule="evenodd" clip-rule="evenodd" d="M310.354 212.703C309.511 212.734 308.847 213.423 308.836 214.259L308.838 214.361L308.846 214.622C308.853 214.862 308.86 215.144 308.866 215.466C309.044 224.354 308.598 235.112 307.009 245.402C306.29 250.062 305.365 254.322 304.219 258.088C303.965 258.922 304.434 259.804 305.266 260.058C306.098 260.312 306.978 259.842 307.232 259.009C308.426 255.087 309.381 250.684 310.122 245.884C311.713 235.58 312.179 224.869 312.026 215.918L312.002 214.794L311.985 214.222C311.954 213.377 311.267 212.712 310.432 212.702L310.354 212.703Z" fill="#5C4C8B"/>
<path fill-rule="evenodd" clip-rule="evenodd" d="M296.669 173.72C296.393 175.417 296.157 176.956 295.96 178.297C293.558 194 298.716 204.456 302.142 211.676C292.967 205.166 286.746 192.777 283.635 183.347C287.376 180.349 292.534 176.798 296.669 173.72Z" fill="#5C4C8B"/>
<path fill-rule="evenodd" clip-rule="evenodd" d="M426.456 166.895C432.875 168.197 443.428 171.432 451.067 176.679C445.751 179.599 419.408 195.381 397.908 204.85C397.75 204.771 396.569 202.799 395.978 202.009C407.87 192.58 420.392 179.086 426.456 166.895Z" fill="#5C4C8B"/>
<path fill-rule="evenodd" clip-rule="evenodd" d="M409.441 102.901C408.811 102.729 408.162 103.101 407.99 103.732C407.825 104.34 408.165 104.967 408.753 105.164L408.96 105.226C409.022 105.245 409.101 105.27 409.195 105.301C409.516 105.407 409.876 105.539 410.265 105.697C411.379 106.15 412.492 106.722 413.525 107.419C417.872 110.352 419.436 114.372 416.765 120.029C415.088 123.583 412.746 125.092 409.756 125.077C407.375 125.065 404.73 124.11 401.838 122.465C401.271 122.142 400.55 122.341 400.227 122.909C399.905 123.478 400.104 124.2 400.671 124.523C403.884 126.351 406.872 127.43 409.745 127.444C413.661 127.463 416.835 125.419 418.9 121.041C422.121 114.221 420.087 108.992 414.844 105.455C413.665 104.66 412.41 104.014 411.154 103.504C410.397 103.196 409.8 102.998 409.441 102.901Z" fill="#5C4C8B"/>
<path fill-rule="evenodd" clip-rule="evenodd" d="M371.464 49.1679C373.918 49.6609 376.021 50.2478 377.772 50.8398L378.009 50.9205C392.886 55.995 401.88 64.8875 405.953 76.4816C408.937 84.9786 409.027 93.9954 407.398 102.409C407.193 103.466 406.974 104.428 406.754 105.282L406.657 105.651L406.591 105.895C406.548 106.049 406.509 106.186 406.475 106.305L406.411 106.52C406.367 107.29 405.601 107.82 404.858 107.572L400.812 106.221L400.757 106.263C397.385 108.905 388.326 120.336 385.407 125.899C385.084 126.516 384.302 126.72 383.719 126.341L383.371 126.122L383.013 125.901C382.886 125.824 382.75 125.742 382.607 125.656L382.31 125.479C381.135 124.782 379.751 124.004 378.17 123.166C373.645 120.765 368.449 118.363 362.665 116.12L361.923 115.835C357.215 114.037 352.318 112.425 347.254 111.045L346.459 110.831L345.627 110.647C345.438 110.606 345.239 110.563 345.031 110.519L344.603 110.429C343.135 110.12 341.579 109.811 340.004 109.522C338.75 109.293 337.536 109.086 336.379 108.908L335.588 108.789C332.737 108.373 330.432 108.168 328.883 108.224C328.155 108.251 327.577 107.618 327.668 106.894C329.547 91.8258 333.11 76.4091 338.215 63.4431C342.126 53.5014 349.928 48.8185 360.149 48.2551C363.848 48.0512 367.667 48.4049 371.464 49.1679ZM360.279 50.6188C350.913 51.135 343.953 55.3127 340.413 64.3115L340.182 64.9023C335.51 76.9499 332.166 91.1316 330.28 105.125L330.182 105.861L330.213 105.862C331.947 105.923 334.151 106.17 336.739 106.568C337.918 106.75 339.154 106.961 340.428 107.194C341.826 107.449 343.207 107.721 344.527 107.994L345.523 108.204C345.804 108.264 346.069 108.321 346.316 108.375L347.018 108.53L347.06 108.541C352.763 110.063 358.258 111.873 363.518 113.912C369.392 116.19 374.671 118.631 379.276 121.073L379.911 121.413C381.264 122.141 382.467 122.821 383.513 123.442L383.93 123.69L383.973 123.615C387.759 117.116 396.892 105.807 400.009 103.9L400.079 103.861C400.362 103.713 400.693 103.686 400.998 103.788L404.405 104.925C404.634 104.062 404.863 103.067 405.078 101.958C406.635 93.9221 406.549 85.3095 403.724 77.2676C399.93 66.4686 391.609 58.1699 377.668 53.3067L377.244 53.1604C375.536 52.572 373.452 51.9818 371 51.4889C367.385 50.7627 363.76 50.4269 360.279 50.6188Z" fill="#5C4C8B"/>
<path fill-rule="evenodd" clip-rule="evenodd" d="M401 103.749C400.669 103.638 400.307 103.679 400.009 103.861C396.923 105.748 387.941 116.851 384.088 123.38L383.93 123.651L383.513 123.402L383.019 123.112C381.925 122.473 380.675 121.776 379.276 121.034C374.671 118.591 369.392 116.15 363.518 113.873C358.509 111.931 353.286 110.196 347.874 108.721L347.06 108.501L346.5 108.375L345.528 108.164L345.095 108.072C343.611 107.758 342.038 107.445 340.444 107.152C339.346 106.951 338.277 106.766 337.248 106.603L336.736 106.522C333.331 105.997 330.591 105.737 328.709 105.819C328.166 105.843 327.709 106.235 327.603 106.77L327.547 107.06L327.438 107.672C327.412 107.819 327.386 107.974 327.359 108.137L327.269 108.692C327.119 109.636 326.971 110.677 326.831 111.803C326.005 118.464 325.768 125.375 326.483 131.856C326.509 132.09 326.536 132.323 326.565 132.554C326.644 133.203 327.233 133.665 327.881 133.586C328.528 133.506 328.989 132.916 328.91 132.267C328.883 132.045 328.857 131.821 328.832 131.596C328.14 125.325 328.37 118.588 329.176 112.095L329.259 111.446C329.384 110.488 329.515 109.6 329.646 108.792L329.749 108.174L329.868 108.176C331.457 108.212 333.585 108.438 336.114 108.822L336.377 108.862C337.538 109.041 338.759 109.25 340.018 109.481C341.394 109.733 342.755 110.002 344.054 110.272L345.239 110.523L346.192 110.731L346.478 110.796L347.253 111.005C352.318 112.386 357.215 113.997 361.923 115.795L362.665 116.081C368.449 118.323 373.645 120.726 378.17 123.126L378.792 123.458C380.015 124.116 381.11 124.733 382.072 125.299L382.607 125.617C382.75 125.702 382.886 125.784 383.013 125.862L383.631 126.245C383.669 126.269 383.698 126.288 383.719 126.302C384.302 126.681 385.084 126.476 385.407 125.86C388.296 120.352 397.204 109.093 400.654 106.305L400.811 106.181L407.316 108.364L405.129 112.799L403.45 116.182C402.192 118.712 400.94 121.214 399.724 123.629L398.039 126.961C394.482 133.967 391.791 139.075 390.318 141.548C385.612 149.421 382.84 151.766 372.201 155.966C368.626 157.353 364.07 158.135 359.396 158.135C358.744 158.135 358.215 158.665 358.215 159.319C358.215 159.973 358.744 160.503 359.396 160.503C364.351 160.503 369.195 159.671 373.06 158.171L374.041 157.78C384.168 153.697 387.387 150.952 392.049 143.255L392.346 142.763C393.835 140.261 396.488 135.232 399.997 128.326L401.026 126.294C402.628 123.126 404.303 119.778 405.984 116.393L407.428 113.482L410.033 108.194C410.337 107.572 410.046 106.829 409.414 106.575L409.348 106.55L401 103.749Z" fill="#5C4C8B"/>
<path fill-rule="evenodd" clip-rule="evenodd" d="M407.949 111.263C407.949 111.263 415.47 102.504 420.904 92.0484C426.023 82.2241 423.897 70.0325 415.43 62.9306C408.343 56.9729 401.57 58.5511 401.57 58.5511C401.57 58.5511 413.816 46.0833 404.169 29.9068C400.782 24.2253 395.151 20.1219 388.654 18.7016C372.824 15.2295 364.634 27.3028 364.634 27.3028C364.634 27.3028 355.538 -7.89109 316.475 1.81484C312.538 2.80121 307.34 6.98344 304.583 9.98202C287.927 28.1708 319.271 62.4966 338.33 69.3618C359.239 76.9371 372.706 76.5426 380.936 72.9916C374.99 74.8065 374.793 108.225 407.949 111.263Z" fill="#5C4C8B"/>
<path fill-rule="evenodd" clip-rule="evenodd" d="M348.139 98.8964C347.35 98.5987 346.473 98.9762 346.14 99.7416L346.11 99.8169L338.707 119.505C338.326 120.517 339.051 121.596 340.116 121.638L340.189 121.64L347.789 121.6C348.658 121.596 349.36 120.885 349.355 120.014C349.351 119.169 348.684 118.482 347.851 118.445L347.772 118.444L342.462 118.471L349.057 100.93C349.355 100.14 348.978 99.2605 348.214 98.927L348.139 98.8964Z" fill="#5C4C8B"/>
<path fill-rule="evenodd" clip-rule="evenodd" d="M351.639 137.106C349.573 137.106 347.898 135.428 347.898 133.358C347.898 131.288 349.573 129.609 351.639 129.609C353.705 129.609 355.38 131.288 355.38 133.358C355.38 135.428 353.705 137.106 351.639 137.106Z" fill="#5C4C8B"/>
<path fill-rule="evenodd" clip-rule="evenodd" d="M338.839 101.964C337.7 101.678 337.136 100.007 337.579 98.2315C338.023 96.4558 339.306 95.2479 340.445 95.5334C341.584 95.819 342.148 97.49 341.705 99.2657C341.262 101.041 339.979 102.249 338.839 101.964Z" fill="#5C4C8B"/>
<path fill-rule="evenodd" clip-rule="evenodd" d="M358.879 106.624C357.74 106.338 357.176 104.667 357.619 102.891C358.062 101.116 359.345 99.9078 360.485 100.193C361.624 100.479 362.188 102.15 361.745 103.926C361.301 105.701 360.018 106.909 358.879 106.624Z" fill="#5C4C8B"/>
<path fill-rule="evenodd" clip-rule="evenodd" d="M364.784 83.5332C363.918 83.4498 363.149 84.0855 363.066 84.9531C362.982 85.8207 363.617 86.5917 364.483 86.6751C366.643 86.8833 368.328 87.752 369.633 89.0829C370.163 89.6234 370.593 90.204 370.927 90.7811L371.016 90.9399C371.141 91.1661 371.222 91.3373 371.261 91.4337L371.272 91.4631C371.58 92.2782 372.49 92.6887 373.303 92.3799C374.117 92.0712 374.526 91.1601 374.218 90.345C374.12 90.0853 373.936 89.6879 373.652 89.1975C373.192 88.4025 372.606 87.611 371.88 86.8708C370.078 85.0322 367.718 83.8159 364.784 83.5332Z" fill="#5C4C8B"/>
<path fill-rule="evenodd" clip-rule="evenodd" d="M345.078 78.0432C343.645 77.5446 342.164 77.3286 340.715 77.5759C338.926 77.881 337.41 78.878 336.354 80.6139C335.902 81.3583 336.137 82.3293 336.88 82.7827C337.623 83.2361 338.592 83.0002 339.045 82.2558C339.616 81.316 340.337 80.8422 341.244 80.6875C342.091 80.5429 343.07 80.6858 344.045 81.025C344.298 81.113 344.529 81.2069 344.731 81.2995L344.908 81.384L344.94 81.4008C345.704 81.8173 346.661 81.5344 347.077 80.7688C347.492 80.0032 347.21 79.0448 346.446 78.6282L346.31 78.5569C346.018 78.408 345.599 78.224 345.078 78.0432Z" fill="#5C4C8B"/>
<path fill-rule="evenodd" clip-rule="evenodd" d="M112.698 222.289H265.797C267.805 222.289 269.538 223.67 270.01 225.643L291.313 315.916H346.796C346.796 315.916 349.867 331.816 331.951 331.816C322.854 331.816 136.482 331.816 136.482 331.816C134.474 331.816 132.741 330.435 132.268 328.463L108.485 227.616C107.855 224.893 109.902 222.289 112.698 222.289Z" fill="#5C4C8B"/>
<path fill-rule="evenodd" clip-rule="evenodd" d="M173.457 88.6157H174.678C175.781 88.6157 176.647 87.7477 176.647 86.6429V83.526C176.647 82.4212 175.781 81.5532 174.678 81.5532H173.457C172.355 81.5532 171.489 82.4212 171.489 83.526V86.6429C171.489 87.7477 172.355 88.6157 173.457 88.6157Z" fill="#FD5D63"/>
<path fill-rule="evenodd" clip-rule="evenodd" d="M180.585 88.6157H212.008C213.11 88.6157 213.977 87.7477 213.977 86.6429V83.526C213.977 82.4212 213.11 81.5532 212.008 81.5532H180.585C179.482 81.5532 178.616 82.4212 178.616 83.526V86.6429C178.616 87.7477 179.482 88.6157 180.585 88.6157Z" fill="#5C4C8B"/>
<path fill-rule="evenodd" clip-rule="evenodd" d="M177.356 121.403H211.968C213.071 121.403 213.937 120.535 213.937 119.43V116.313C213.937 115.208 213.071 114.34 211.968 114.34H177.356C176.253 114.34 175.387 115.208 175.387 116.313V119.43C175.387 120.535 176.292 121.403 177.356 121.403Z" fill="#5C4C8B"/>
<path fill-rule="evenodd" clip-rule="evenodd" d="M146.366 110.474H202.242C203.345 110.474 204.211 109.606 204.211 108.501V105.384C204.211 104.279 203.345 103.411 202.242 103.411H146.366C145.263 103.411 144.397 104.279 144.397 105.384V108.501C144.397 109.606 145.263 110.474 146.366 110.474Z" fill="#FD5D63"/>
<path fill-rule="evenodd" clip-rule="evenodd" d="M110.729 110.474H139.081C140.184 110.474 141.05 109.606 141.05 108.501V105.384C141.05 104.279 140.184 103.411 139.081 103.411H110.729C109.627 103.411 108.76 104.279 108.76 105.384V108.501C108.76 109.606 109.627 110.474 110.729 110.474Z" fill="#FD5D63"/>
<path fill-rule="evenodd" clip-rule="evenodd" d="M99.7826 99.5842H101.003C102.106 99.5842 102.972 98.7162 102.972 97.6114V94.4945C102.972 93.3897 102.106 92.5217 101.003 92.5217H99.7826C98.68 92.5217 97.8137 93.3897 97.8137 94.4945V97.6114C97.8137 98.6767 98.68 99.5842 99.7826 99.5842Z" fill="#5C4C8B"/>
<path fill-rule="evenodd" clip-rule="evenodd" d="M154.084 99.5446H212.008C213.11 99.5446 213.977 98.6766 213.977 97.5719V94.4549C213.977 93.3502 213.11 92.4822 212.008 92.4822H154.084C152.981 92.4822 152.115 93.3502 152.115 94.4549V97.5719C152.115 98.6766 152.981 99.5446 154.084 99.5446Z" fill="#5C4C8B"/>
<path fill-rule="evenodd" clip-rule="evenodd" d="M135.813 88.6157H167.236C168.338 88.6157 169.205 87.7477 169.205 86.6429V83.526C169.205 82.4212 168.338 81.5532 167.236 81.5532H135.813C134.71 81.5532 133.844 82.4212 133.844 83.526V86.6429C133.844 87.7477 134.749 88.6157 135.813 88.6157Z" fill="#5C4C8B"/>
<path fill-rule="evenodd" clip-rule="evenodd" d="M107.697 99.5841H147.39C148.492 99.5841 149.358 98.7161 149.358 97.6113V94.4549C149.358 93.3502 148.492 92.4822 147.39 92.4822H107.697C106.595 92.4822 105.728 93.3502 105.728 94.4549V97.6113C105.728 98.6766 106.595 99.5841 107.697 99.5841Z" fill="#FD5D63"/>
<path fill-rule="evenodd" clip-rule="evenodd" d="M180.585 159.398H212.008C213.11 159.398 213.977 158.53 213.977 157.425V154.308C213.977 153.203 213.11 152.335 212.008 152.335H180.585C179.482 152.335 178.616 153.203 178.616 154.308V157.425C178.616 158.53 179.482 159.398 180.585 159.398Z" fill="#5C4C8B"/>
<path fill-rule="evenodd" clip-rule="evenodd" d="M177.356 192.185H211.968C213.071 192.185 213.937 191.317 213.937 190.212V187.095C213.937 185.991 213.071 185.123 211.968 185.123H177.356C176.253 185.123 175.387 185.991 175.387 187.095V190.212C175.387 191.278 176.292 192.185 177.356 192.185Z" fill="#5C4C8B"/>
<path fill-rule="evenodd" clip-rule="evenodd" d="M146.366 181.256H202.242C203.345 181.256 204.211 180.388 204.211 179.283V176.166C204.211 175.061 203.345 174.193 202.242 174.193H146.366C145.263 174.193 144.397 175.061 144.397 176.166V179.283C144.397 180.388 145.263 181.256 146.366 181.256Z" fill="#FD5D63"/>
<path fill-rule="evenodd" clip-rule="evenodd" d="M110.729 181.256H139.081C140.184 181.256 141.05 180.388 141.05 179.283V176.166C141.05 175.061 140.184 174.193 139.081 174.193H110.729C109.627 174.193 108.76 175.061 108.76 176.166V179.283C108.76 180.388 109.627 181.256 110.729 181.256Z" fill="#FD5D63"/>
<path fill-rule="evenodd" clip-rule="evenodd" d="M99.7826 170.366H101.003C102.106 170.366 102.972 169.498 102.972 168.394V165.277C102.972 164.172 102.106 163.304 101.003 163.304H99.7826C98.68 163.304 97.8137 164.172 97.8137 165.277V168.394C97.8137 169.459 98.68 170.366 99.7826 170.366Z" fill="#5C4C8B"/>
<path fill-rule="evenodd" clip-rule="evenodd" d="M90.8046 159.398H92.0253C93.1278 159.398 93.9941 158.53 93.9941 157.425V154.308C93.9941 153.203 93.1278 152.335 92.0253 152.335H90.8046C89.702 152.335 88.8357 153.203 88.8357 154.308V157.425C88.8357 158.53 89.702 159.398 90.8046 159.398Z" fill="#5C4C8B"/>
<path fill-rule="evenodd" clip-rule="evenodd" d="M154.084 170.327H212.008C213.11 170.327 213.977 169.459 213.977 168.354V165.237C213.977 164.132 213.11 163.264 212.008 163.264H154.084C152.981 163.264 152.115 164.132 152.115 165.237V168.354C152.115 169.459 152.981 170.327 154.084 170.327Z" fill="#5C4C8B"/>
<path fill-rule="evenodd" clip-rule="evenodd" d="M135.813 159.398H174.639C175.741 159.398 176.607 158.53 176.607 157.425V154.308C176.607 153.203 175.741 152.335 174.639 152.335H135.813C134.71 152.335 133.844 153.203 133.844 154.308V157.425C133.844 158.53 134.749 159.398 135.813 159.398Z" fill="#FD5D63"/>
<path fill-rule="evenodd" clip-rule="evenodd" d="M97.735 159.398H129.158C130.261 159.398 131.127 158.53 131.127 157.425V154.308C131.127 153.203 130.261 152.335 129.158 152.335H97.735C96.6325 152.335 95.7661 153.203 95.7661 154.308V157.425C95.7661 158.53 96.6325 159.398 97.735 159.398Z" fill="#FD5D63"/>
<path fill-rule="evenodd" clip-rule="evenodd" d="M173.457 148.824H174.678C175.781 148.824 176.647 147.956 176.647 146.851V143.734C176.647 142.629 175.781 141.761 174.678 141.761H173.457C172.355 141.761 171.489 142.629 171.489 143.734V146.851C171.489 147.916 172.355 148.824 173.457 148.824Z" fill="#FD5D63"/>
<path fill-rule="evenodd" clip-rule="evenodd" d="M180.585 148.824H212.008C213.11 148.824 213.977 147.956 213.977 146.851V143.734C213.977 142.629 213.11 141.761 212.008 141.761H180.585C179.482 141.761 178.616 142.629 178.616 143.734V146.851C178.616 147.916 179.482 148.824 180.585 148.824Z" fill="#5C4C8B"/>
<path fill-rule="evenodd" clip-rule="evenodd" d="M135.813 148.824H167.236C168.338 148.824 169.205 147.956 169.205 146.851V143.734C169.205 142.629 168.338 141.761 167.236 141.761H135.813C134.71 141.761 133.844 142.629 133.844 143.734V146.851C133.844 147.916 134.749 148.824 135.813 148.824Z" fill="#5C4C8B"/>
<path fill-rule="evenodd" clip-rule="evenodd" d="M107.697 170.366H147.39C148.492 170.366 149.358 169.498 149.358 168.394V165.237C149.358 164.132 148.492 163.264 147.39 163.264H107.697C106.595 163.264 105.728 164.132 105.728 165.237V168.394C105.728 169.459 106.595 170.366 107.697 170.366Z" fill="#FD5D63"/>
<path fill-rule="evenodd" clip-rule="evenodd" d="M483.573 261.655C483.023 261.351 482.337 261.532 482.005 262.057L481.968 262.119L476.573 271.904C476.258 272.476 476.465 273.196 477.036 273.512C477.586 273.816 478.273 273.635 478.605 273.11L478.641 273.048L484.036 263.264C484.352 262.691 484.144 261.971 483.573 261.655Z" fill="#5C4C8B"/>
<path fill-rule="evenodd" clip-rule="evenodd" d="M362.249 138.788C360.533 136.444 357.464 137.067 354.334 140.308C351.286 143.469 349.328 147.663 348.246 152.219C348.094 152.855 348.486 153.493 349.121 153.645C349.756 153.796 350.393 153.404 350.544 152.768C351.537 148.589 353.323 144.764 356.032 141.953C358.286 139.62 359.716 139.33 360.344 140.188C361.109 141.234 361.008 143.612 359.875 145.892L359.804 146.032C358.16 149.219 357.7 155.495 357.94 163.262C357.96 163.915 358.505 164.429 359.158 164.408C359.81 164.388 360.322 163.842 360.302 163.189L360.279 162.36C360.113 155.506 360.561 149.848 361.851 147.223L361.903 147.119C363.475 144.076 363.642 140.691 362.249 138.788Z" fill="#5C4C8B"/>
<path fill-rule="evenodd" clip-rule="evenodd" d="M309.545 133.279C315.874 133.279 321.004 138.419 321.004 144.76C321.004 151.101 315.874 156.242 309.545 156.242C303.217 156.242 298.086 151.101 298.086 144.76C298.086 138.419 303.217 133.279 309.545 133.279ZM309.545 135.646C304.521 135.646 300.449 139.727 300.449 144.76C300.449 149.794 304.521 153.874 309.545 153.874C314.569 153.874 318.641 149.794 318.641 144.76C318.641 139.727 314.569 135.646 309.545 135.646Z" fill="#5C4C8B"/>
<path fill-rule="evenodd" clip-rule="evenodd" d="M370.878 182.427C370.38 182.067 369.695 182.15 369.297 182.607L369.083 182.877C368.939 183.058 368.769 183.268 368.574 183.505C368.014 184.187 367.363 184.947 366.631 185.767C364.538 188.11 362.212 190.454 359.719 192.638C353.733 197.885 347.773 201.362 342.236 202.261C341.779 202.335 341.408 202.67 341.286 203.117L341.26 203.218C341.22 203.388 341.174 203.636 341.131 203.966C340.899 205.714 340.937 208.122 341.412 211.231L341.455 211.507C341.701 213.051 341.327 214.134 340.084 216.043L339.463 216.983C338.561 218.364 338.115 219.21 337.782 220.333C337.303 221.949 337.32 223.659 337.905 225.58L337.912 225.616C338.054 226.407 339.227 237.835 339.787 242.748L339.839 243.194C341.327 256.021 343.113 267.993 345.418 279.333C348.456 294.282 352.141 306.734 356.599 316.031C361.972 327.238 368.359 333.61 375.965 334.18C376.616 334.229 377.183 333.74 377.231 333.088C377.28 332.436 376.792 331.868 376.141 331.82C369.652 331.333 363.89 325.645 358.88 315.32L358.728 315.006C354.371 305.917 350.736 293.635 347.733 278.86C345.505 267.9 343.763 256.329 342.306 243.954L342.088 242.068C341.544 237.212 340.361 225.723 340.174 224.925L340.169 224.903C339.371 222.28 339.774 220.819 341.541 218.126L341.955 217.501C343.575 215.046 344.157 213.449 343.788 211.134C343.335 208.286 343.272 206.106 343.44 204.553L343.452 204.445L343.671 204.4C349.319 203.2 355.168 199.722 361.002 194.659L361.275 194.42C363.845 192.167 366.238 189.756 368.392 187.346C369.009 186.655 369.57 186.004 370.072 185.404L370.381 185.031L370.916 185.46C371.947 186.293 373.263 187.39 374.892 188.784C375.931 189.674 377.065 190.146 378.347 190.291L378.541 190.312C379.339 190.386 380.019 190.343 381.383 190.186L381.55 190.166C384.77 189.787 386.096 190.044 387.833 191.995L387.923 192.097C389.039 193.373 394.741 202.525 403.443 216.895L406.2 221.454L407.326 223.322C409.97 227.708 412.716 232.28 415.483 236.902L422.251 248.233L423.984 251.145C424.318 251.706 425.043 251.89 425.604 251.556C426.143 251.234 426.334 250.548 426.049 249.996L424.062 246.654L420.479 240.65C416.914 234.683 413.336 228.716 409.917 223.041L405.705 216.066C396.667 201.136 390.966 191.985 389.701 190.539C388.367 189.007 386.925 188.14 385.305 187.805C384.23 187.583 383.377 187.586 381.821 187.753L380.95 187.852C378.531 188.117 377.582 187.974 376.427 186.985L375.438 186.142C374.237 185.123 373.228 184.287 372.396 183.616L371.779 183.122C371.628 183.002 371.491 182.895 371.366 182.798L370.958 182.487C370.924 182.461 370.898 182.442 370.878 182.427Z" fill="#5C4C8B"/>
<path fill-rule="evenodd" clip-rule="evenodd" d="M341.401 211.163C340.417 205.284 340.023 202.759 340.023 202.759C355.065 200.431 370.54 181.493 370.54 181.493C370.54 181.493 372.076 182.637 376.408 186.385C378.14 187.885 379.952 187.885 381.842 187.687C383.18 204.14 353.687 218.778 339.747 219.488C340.614 215.543 342.149 215.621 341.401 211.163Z" fill="#5C4C8B"/>
<path fill-rule="evenodd" clip-rule="evenodd" d="M427.002 231.313C422.591 230.753 418.706 231.779 415.608 234.681C415.132 235.128 415.107 235.877 415.552 236.354C415.998 236.832 416.745 236.857 417.222 236.411C419.768 234.025 422.95 233.185 426.705 233.661C430.113 234.094 433.817 235.586 437.572 237.808C439.174 238.756 440.675 239.773 442.031 240.788L442.376 241.05C442.6 241.22 442.809 241.384 443.005 241.539L443.288 241.766C443.389 241.848 443.479 241.922 443.558 241.988L443.719 242.124C444.214 242.551 444.959 242.496 445.386 242.001C445.812 241.506 445.757 240.758 445.263 240.331L445.099 240.193C445.03 240.135 444.947 240.067 444.85 239.987L444.474 239.685C444.163 239.438 443.82 239.173 443.446 238.893C442.025 237.828 440.454 236.764 438.774 235.77C434.765 233.398 430.779 231.792 427.002 231.313Z" fill="#5C4C8B"/>
<path fill-rule="evenodd" clip-rule="evenodd" d="M328.39 139.201L328.493 139.213C330.077 139.442 334.437 141.927 340.581 145.895L341.838 146.712C347.423 150.36 352.916 154.232 354.738 155.822L354.838 155.913C356.472 157.453 360.156 163.521 365.55 173.213L365.89 173.823C366.206 174.392 366.526 174.971 366.85 175.559L367.806 177.296C369.567 180.507 371.38 183.861 373.184 187.237L374.75 190.178C375.323 191.256 375.862 192.275 376.361 193.222L377.415 195.226C377.708 195.788 377.508 196.481 376.962 196.799L347.192 214.12L347.128 214.155C346.523 214.459 345.778 214.191 345.511 213.557L330.929 179.001L330.728 178.997C324.567 178.856 320.447 177.221 318.587 174.586C316.798 172.051 317.657 168.805 320.32 168.595L320.391 168.59C320.737 168.567 321.198 168.566 321.766 168.587L322.128 168.602L322.084 168.588C318.507 167.398 316.354 165.586 315.672 163.378C314.902 160.885 316.363 158.276 318.568 158.138L318.619 158.134C319.145 158.105 320.102 158.213 321.464 158.445L321.678 158.483L321.599 158.44C319.636 157.362 318.344 155.74 317.928 153.911C317.398 151.589 318.447 149.387 320.585 148.824L320.65 148.808C321.88 148.539 325.113 149.175 329.562 150.424L330.037 150.558L329.821 150.433C328.433 149.624 327.248 148.899 326.3 148.274C323.709 146.565 322.82 144.245 323.727 142.111C324.502 140.288 326.488 139.038 328.39 139.201ZM325.9 143.039C325.472 144.046 325.907 145.18 327.599 146.297L327.911 146.5C329.034 147.227 330.483 148.093 332.195 149.07L333.052 149.555C333.258 149.671 333.467 149.788 333.679 149.907C335.338 150.833 337.104 151.79 338.882 152.733L340.065 153.358L341.928 154.33L342.215 154.478C343.522 155.148 342.679 157.131 341.291 156.65L340.415 156.348C331.004 153.12 322.515 150.767 321.183 151.114C320.392 151.322 319.965 152.218 320.231 153.384C320.565 154.849 321.867 156.196 324.003 156.917L324.196 156.981L340.223 162.702C341.614 163.199 341.015 165.263 339.608 164.981L339.482 164.951L337.254 164.399L336.7 164.263C334.546 163.736 332.343 163.21 330.22 162.718L329.289 162.504L327.966 162.204C323 161.087 319.536 160.436 318.733 160.499C318.154 160.536 317.582 161.556 317.929 162.678C318.488 164.489 320.964 166.152 325.651 167.07L327.223 167.371C335.519 168.98 338.479 170.037 338.937 171.069C339.304 171.898 338.645 172.806 337.76 172.73L335.627 172.443C334.043 172.233 332.398 172.024 330.777 171.828L329.944 171.728L328.084 171.514C324.25 171.087 321.517 170.875 320.506 170.955C319.939 170.999 319.669 172.019 320.516 173.219C321.957 175.261 325.696 176.656 331.711 176.64L331.79 176.642C332.234 176.671 332.628 176.948 332.803 177.362L347.165 211.398L374.796 195.321L372.854 191.646C372.603 191.174 372.346 190.689 372.082 190.194L371.101 188.355C368.974 184.374 366.835 180.423 364.783 176.704L363.825 174.974L362.864 173.25C357.933 164.437 354.398 158.665 353.187 157.608C348.885 153.853 330.267 141.739 328.188 141.56C327.323 141.486 326.283 142.14 325.9 143.039Z" fill="#5C4C8B"/>
<path fill-rule="evenodd" clip-rule="evenodd" d="M309.703 164.724L311.868 130.951L355.341 133.752L353.844 156.597C349.986 153.282 331.006 140.578 328.249 140.341C325.493 140.104 322.185 144.129 326.91 147.246C331.636 150.363 341.638 155.492 341.638 155.492C333.329 152.572 322.815 149.416 320.846 149.929C317.854 150.718 318.051 156.242 323.76 158.056L339.787 163.777C339.787 163.777 321.122 159.082 318.602 159.28C316.082 159.477 313.877 166.026 325.611 168.236C337.345 170.485 337.818 171.511 337.818 171.511C337.818 171.511 323.366 169.459 320.374 169.735C317.381 170.011 317.302 177.823 331.675 177.784L331.754 177.981L320.689 177.271C314.231 176.877 309.269 171.234 309.703 164.724Z" fill="#5C4C8B"/>
</svg>
