<svg width="21" height="22" viewBox="0 0 21 22" fill="none" xmlns="http://www.w3.org/2000/svg">
<g clip-path="url(#clip0_193_81)">
<g clip-path="url(#clip1_193_81)">
<path d="M4.81578 7.52441H0.674805V21.0501H4.81578V7.52441Z" fill="#707272"/>
<path d="M2.74893 5.67754C2.26484 5.68548 1.78933 5.54918 1.38295 5.28601C0.976564 5.02284 0.657677 4.64468 0.466898 4.1997C0.276119 3.75472 0.222073 3.26303 0.311632 2.78723C0.401192 2.31143 0.630316 1.87304 0.969826 1.52787C1.30933 1.1827 1.74387 0.94637 2.21813 0.848958C2.69238 0.751546 3.18491 0.797462 3.63299 0.980861C4.08106 1.16426 4.46442 1.47684 4.73428 1.87882C5.00413 2.2808 5.14826 2.75399 5.14833 3.23814C5.15163 3.55605 5.09211 3.87147 4.97319 4.16631C4.85427 4.46115 4.67829 4.7296 4.45535 4.95625C4.23242 5.18291 3.9669 5.3633 3.67407 5.48708C3.38123 5.61086 3.06684 5.67558 2.74893 5.67754Z" fill="#707272"/>
<path d="M20.2972 21.0491H16.1643V14.4687C16.1643 12.9021 16.1393 10.8866 14.0128 10.8866C11.8613 10.8866 11.5314 12.5972 11.5314 14.3587V21.0491H7.39844V7.52441H11.3625V9.37095H11.4214C11.8115 8.6833 12.3829 8.11588 13.0732 7.73053C13.7635 7.34517 14.5464 7.15665 15.3365 7.18549C19.5204 7.18549 20.2992 9.9848 20.2992 13.6309L20.2972 21.0491Z" fill="#707272"/>
</g>
</g>
<defs>
<clipPath id="clip0_193_81">
<rect width="19.95" height="20.25" fill="white" transform="translate(0.349609 0.799805)"/>
</clipPath>
<clipPath id="clip1_193_81">
<rect width="19.9451" height="20.25" fill="white" transform="translate(0.352539 0.799805)"/>
</clipPath>
</defs>
</svg>
