<svg width="55" height="55" viewBox="0 0 55 55" fill="none" xmlns="http://www.w3.org/2000/svg">
<path d="M49.969 27.2567C49.969 31.7491 48.6369 36.1405 46.141 39.8758C43.6452 43.611 40.0978 46.5222 35.9474 48.2413C31.7969 49.9604 27.23 50.4102 22.824 49.5337C18.4179 48.6572 14.3708 46.4939 11.1943 43.3172C8.01778 40.1406 5.85461 36.0933 4.97831 31.6873C4.10202 27.2812 4.55197 22.7143 6.27125 18.5639C7.99054 14.4136 10.9019 10.8663 14.6373 8.37064C18.3726 5.87497 22.7642 4.54302 27.2565 4.54321C33.2803 4.54348 39.0573 6.93662 43.3167 11.1962C47.5761 15.4558 49.969 21.2329 49.969 27.2567Z" stroke="#FD5D63" stroke-width="1.49997" stroke-linecap="round" stroke-linejoin="round"/>
<path opacity="0.75" d="M19.2378 24.3936L27.2552 32.392L35.2726 24.3936" stroke="#FD5D63" stroke-width="1.49997" stroke-linecap="round" stroke-linejoin="round"/>
</svg>
