<svg width="50" height="50" viewBox="0 0 50 50" fill="none" xmlns="http://www.w3.org/2000/svg">
<path d="M8.3335 7.29175C9.95787 7.29175 11.2928 8.53109 11.4442 10.1158L11.4585 10.4167V36.4584H41.6668C43.3927 36.4584 44.7918 37.8576 44.7918 39.5834C44.7918 41.2077 43.5524 42.5427 41.9678 42.6941L41.6668 42.7084H8.3335C6.70912 42.7084 5.37423 41.469 5.2228 39.8844L5.2085 39.5834V10.4167C5.2085 8.69085 6.6076 7.29175 8.3335 7.29175ZM42.0697 13.1626C44.8725 13.1626 46.2758 16.5512 44.2941 18.5329L32.6918 30.1351C31.3902 31.437 29.2795 31.437 27.9779 30.1351L22.9693 25.1265L17.8134 30.2826C16.593 31.503 14.6144 31.503 13.394 30.2826C12.1736 29.0622 12.1735 27.0836 13.3939 25.8632L20.6121 18.6447C21.9139 17.3429 24.0245 17.3429 25.3262 18.6446L30.335 23.6534L34.8802 19.1081C33.8287 18.6049 33.1025 17.5311 33.1025 16.2876C33.1025 14.5617 34.5016 13.1626 36.2275 13.1626H42.0697Z" fill="#FD5D63"/>
</svg>
