<svg width="25" height="22" viewBox="0 0 25 22" fill="none" xmlns="http://www.w3.org/2000/svg">
<g clip-path="url(#clip0_193_65)">
<g clip-path="url(#clip1_193_65)">
<path d="M7.83927 21.0162C16.9917 21.0162 21.9963 13.311 21.9963 6.62334C21.9963 6.40345 21.9883 6.18256 21.9793 5.97166C22.954 5.25249 23.7939 4.36661 24.4601 3.35496C23.556 3.76775 22.5933 4.03751 21.6065 4.15456C22.6478 3.51503 23.4236 2.52136 23.7914 1.35594C22.8159 1.94152 21.7478 2.3566 20.6329 2.58334C20.1711 2.07997 19.6098 1.67793 18.9846 1.40266C18.3594 1.12738 17.6839 0.98487 17.0007 0.984131C15.6705 0.994959 14.399 1.53338 13.4655 2.48112C12.532 3.42886 12.0129 4.70839 12.0222 6.03863C12.0195 6.4258 12.0604 6.81204 12.1442 7.19006C10.1585 7.08491 8.21776 6.5596 6.45016 5.64884C4.68257 4.73808 3.12836 3.4626 1.89022 1.90667C1.25054 3.01905 1.05392 4.33176 1.33961 5.58274C1.62531 6.83372 2.3723 7.93093 3.43146 8.65533C2.64033 8.63044 1.86727 8.41256 1.17958 8.02065V8.08962C1.17424 9.24863 1.56763 10.3742 2.29375 11.2776C3.01987 12.181 4.03455 12.8072 5.1676 13.0512C4.43667 13.2552 3.66797 13.2843 2.92371 13.1361C3.23366 14.1345 3.84889 15.0106 4.68281 15.641C5.51673 16.2714 6.52734 16.6244 7.57241 16.6504C5.81772 18.0533 3.63807 18.8178 1.39147 18.8183C0.995395 18.817 0.59968 18.7943 0.206055 18.7503C2.47483 20.2315 5.12583 21.0199 7.83528 21.0192" fill="#707272"/>
</g>
</g>
<defs>
<clipPath id="clip0_193_65">
<rect width="24.25" height="20.4" fill="white" transform="translate(0.209961 0.799805)"/>
</clipPath>
<clipPath id="clip1_193_65">
<rect width="24.25" height="20.0331" fill="white" transform="translate(0.209961 0.983154)"/>
</clipPath>
</defs>
</svg>
