<svg width="55" height="54" viewBox="0 0 55 54" fill="none" xmlns="http://www.w3.org/2000/svg">
<path d="M42.96 9C45.4453 9 47.46 11.0147 47.46 13.5V40.5C47.46 42.9854 45.4453 45 42.96 45H11.46C8.97468 45 6.95996 42.9854 6.95996 40.5V13.5C6.95996 11.0147 8.97468 9 11.46 9H42.96ZM42.96 27H11.46V40.5H42.96V27ZM42.96 13.5H11.46V22.5H42.96V13.5ZM15.96 15.75C17.2026 15.75 18.21 16.7574 18.21 18C18.21 19.2426 17.2026 20.25 15.96 20.25C14.7173 20.25 13.71 19.2426 13.71 18C13.71 16.7574 14.7173 15.75 15.96 15.75ZM22.71 15.75C23.9526 15.75 24.96 16.7574 24.96 18C24.96 19.2426 23.9526 20.25 22.71 20.25C21.4673 20.25 20.46 19.2426 20.46 18C20.46 16.7574 21.4673 15.75 22.71 15.75ZM29.46 15.75C30.7026 15.75 31.71 16.7574 31.71 18C31.71 19.2426 30.7026 20.25 29.46 20.25C28.2173 20.25 27.21 19.2426 27.21 18C27.21 16.7574 28.2173 15.75 29.46 15.75Z" fill="#FD5D63"/>
</svg>
