<svg width="575" height="482" viewBox="0 0 575 482" fill="none" xmlns="http://www.w3.org/2000/svg">
<g clip-path="url(#clip0_234_1310)">
<path d="M376.573 140.513C332.111 98.8387 279.966 88.146 266.243 85.9527C275.575 61.0031 289.846 23.8529 293.414 18.3695C294.512 18.2324 296.845 17.9583 300.412 17.9583C310.567 17.9583 332.112 20.0145 363.536 34.1343C408.821 54.423 420.897 77.3163 423.229 82.9368L376.573 140.513Z" fill="white"/>
<path d="M300.275 20.7C310.155 20.7 331.425 22.7563 362.163 36.6019C403.057 54.9714 416.23 75.5342 419.798 82.5256L376.16 136.537C349.813 112.684 321.545 99.3871 301.921 92.5328C288.062 87.5977 276.809 84.9931 269.948 83.7593C280.24 56.2051 291.355 27.9655 295.06 20.8371C296.295 20.8371 298.079 20.7 300.275 20.7ZM300.275 15.2166C294.786 15.2166 291.904 15.7649 291.904 15.7649C288.748 16.8616 262.4 88.1461 262.4 88.1461C262.4 88.1461 324.975 94.452 376.709 144.488L426.111 83.3481C426.111 83.3481 417.877 55.5197 364.359 31.5297C333.209 17.547 311.39 15.2166 300.275 15.2166Z" fill="#A0C6F4"/>
<path d="M271.595 93.7666C271.595 93.7666 333.072 99.9355 370.946 134.755" stroke="#2A1E17" stroke-miterlimit="10" stroke-linecap="round" stroke-linejoin="round"/>
<path d="M324.701 90.7508L347.618 46.198L371.221 92.67L324.701 90.7508Z" fill="#A0C6F4"/>
<path d="M329.229 90.0653L352.146 45.5125L375.612 91.9845L329.229 90.0653Z" stroke="#2A1E17" stroke-miterlimit="10" stroke-linecap="round" stroke-linejoin="round"/>
<path d="M307.685 12.4749C307.685 12.4749 376.572 18.6437 419.523 69.5024" stroke="#2A1E17" stroke-miterlimit="10" stroke-linecap="round" stroke-linejoin="round"/>
<path d="M342.814 209.878C338.972 207.136 336.502 205.217 336.502 205.217C337.6 203.846 354.204 186.162 363.81 171.905C363.81 172.042 344.461 211.112 342.814 209.878Z" fill="#2A1E17"/>
<path d="M107.747 81.2917C109.531 84.3076 110.354 83.0739 115.706 82.6626C121.058 82.2513 128.605 86.0897 131.35 92.6698C134.094 99.2499 133.134 100.21 131.762 101.032C130.389 101.855 120.097 103.088 119.686 105.145" stroke="#2A1E17" stroke-miterlimit="10" stroke-linecap="round" stroke-linejoin="round"/>
<path d="M246.07 414.958L241.267 406.87L224.389 435.109L228.78 438.537L246.07 414.958Z" fill="#F9865F"/>
<path d="M133.408 344.907C133.408 344.907 124.626 330.65 128.331 323.659L156.325 326.675L133.408 344.907Z" fill="#F9865F"/>
<path d="M133.408 344.907L135.054 348.746L129.84 368.897C129.154 371.502 129.977 374.107 132.035 375.889L157.697 338.053C160.167 334.489 159.618 329.554 156.462 326.675L150.698 321.329L133.408 344.907Z" fill="#455273"/>
<path d="M108.951 82.2891C109.006 82.2329 109.053 82.1884 109.088 82.1557C117.559 79.9273 123.594 82.5 127.786 86.3712C132.022 90.284 134.388 95.5419 135.404 98.5856C135.872 99.9875 135.633 100.988 134.975 101.756C134.283 102.564 133.069 103.181 131.454 103.635C128.258 104.533 123.804 104.71 119.768 104.78C119.729 104.762 119.664 104.729 119.568 104.67C119.326 104.523 118.903 104.225 118.231 103.637C116.885 102.461 114.571 100.152 110.736 95.6375C106.973 91.1394 106.665 87.7339 107.204 85.5044C107.476 84.3751 107.973 83.5144 108.401 82.9367C108.615 82.6481 108.811 82.4315 108.951 82.2891Z" fill="#2A1E33" stroke="#455273"/>
<path d="M160.304 326.949C160.304 326.949 146.582 286.509 158.246 268.688C167.852 254.02 199.139 277.873 203.393 281.025L225.761 240.585C225.761 240.585 220.546 233.32 207.922 226.328C195.297 219.337 142.877 198.089 118.176 236.884C109.119 251.278 108.982 312.829 126.41 336.408L160.304 326.949Z" fill="#E4ECFF"/>
<path d="M160.304 326.949C160.304 326.949 146.581 286.509 158.245 268.688C167.851 254.02 199.139 277.872 203.393 281.025" stroke="#2A1E17" stroke-miterlimit="10" stroke-linecap="round" stroke-linejoin="round"/>
<path d="M225.761 240.859C215.606 251.552 185.416 303.645 178.555 328.594C169.498 361.906 172.929 389.597 222.742 443.746L246.893 408.652C246.893 408.652 229.877 382.88 233.034 358.616C237.562 323.522 262.537 289.525 275.299 268.002L225.761 240.859Z" fill="#E4ECFF"/>
<path d="M229.604 245.383L269.673 276.776L281.749 258.543L229.604 245.383Z" fill="#2A1E17"/>
<path d="M460.005 212.208C466.317 213.579 470.983 215.91 474.276 219.337C477.57 222.764 476.06 224.546 474.825 225.643C473.59 226.74 469.062 225.506 464.945 221.942C460.828 218.377 460.005 212.208 460.005 212.208Z" fill="#FDC0AC"/>
<path d="M336.639 205.217C337.736 203.846 354.341 186.162 363.947 171.905C363.947 171.905 393.038 204.395 396.057 205.491C397.292 205.902 404.291 205.765 413.211 205.628C428.168 205.491 448.066 205.354 452.457 207.547C459.456 210.975 463.71 212.757 465.356 217.692C467.14 222.627 467.826 225.78 463.572 226.054C458.632 226.465 455.476 220.159 455.476 220.159C455.476 220.159 451.497 222.627 441.205 226.465C441.205 226.465 404.016 240.859 379.179 233.868C372.317 232.086 336.639 205.217 336.639 205.217Z" fill="#FFB096"/>
<path d="M111.041 75.5342C107.884 76.7679 105.963 78.1388 107.747 81.2918C109.531 84.3077 110.354 83.0739 115.706 82.6626C121.058 82.2514 128.605 86.0898 131.35 92.6699C134.094 99.25 133.134 100.21 131.762 101.032C130.389 101.855 120.097 103.088 119.686 105.145C119.274 107.201 123.802 113.233 133.271 112.821L135.467 112.41C135.467 112.41 155.364 131.739 158.246 134.618C161.128 137.497 182.261 151.754 193.925 154.633C202.707 156.826 220.684 153.947 231.387 151.891C236.602 150.931 240.17 149.972 240.17 149.972C240.17 149.972 232.074 135.441 230.427 113.096C230.427 113.096 211.078 116.249 198.316 118.99C198.316 118.99 168.401 102.266 153.718 94.8632C153.718 94.8632 140.956 79.2355 135.055 77.1792C129.154 75.5342 115.432 73.8891 111.041 75.5342Z" fill="#FFB096"/>
<path d="M231.387 152.028C236.602 151.068 240.169 150.109 240.169 150.109C240.169 150.109 230.426 137.771 228.78 115.426C228.78 115.426 224.388 120.224 225.761 132.836C227.545 148.875 231.387 152.028 231.387 152.028Z" fill="#2A1E17"/>
<path d="M228.368 113.095C228.368 113.095 228.643 140.375 235.916 151.754L238.523 150.657C238.523 150.657 203.942 190.96 192.827 217.418C191.043 221.667 264.459 268.688 275.3 268.002C275.3 268.002 311.115 213.442 323.329 197.266L336.502 207.41C336.502 207.41 362.301 181.227 363.673 172.042C363.673 172.042 338.698 141.746 318.388 132.836C297.942 123.925 279.691 108.709 257.872 109.12C238.935 109.531 228.368 113.095 228.368 113.095Z" fill="#452F70"/>
<path d="M336.639 207.41L323.466 197.129L325.524 191.509L336.639 207.41Z" fill="#2A1E17"/>
<path d="M356.674 99.3871C354.341 106.516 347.754 127.215 340.344 129.82C332.934 132.425 325.249 129.135 325.249 129.135L317.29 133.11C316.467 135.715 310.154 138.045 302.058 138.319C296.157 138.594 292.452 130.917 294.236 125.296C295.06 122.692 298.079 110.217 298.079 110.217C298.079 110.217 304.528 86.6382 310.429 81.8402C316.33 77.0422 321.819 72.1071 337.6 78.5501C361.477 88.4203 356.674 99.3871 356.674 99.3871Z" fill="#FFB096"/>
<path d="M308.919 100.347C307.822 104.733 303.293 113.507 300.274 111.999C297.255 110.354 296.157 106.378 298.353 98.5645C300.549 90.7506 302.195 73.2037 308.233 70.0507C314.271 66.8977 316.879 70.5991 316.879 70.5991C316.879 70.5991 314.271 57.713 321.956 56.068C321.956 56.068 324.563 54.8342 323.603 63.6077C323.603 63.6077 326.622 55.5196 336.227 56.6163C345.833 57.713 349.264 71.1474 349.264 71.1474C349.264 71.1474 349.95 67.4461 354.341 67.4461C358.732 67.4461 365.456 73.8891 363.81 81.1546C363.81 81.1546 375.062 77.5904 381.1 86.6381C387.138 95.5486 386.315 105.419 371.906 109.394C356.811 113.507 356.948 95.8228 354.616 93.6294C352.283 91.299 349.813 88.6944 341.442 91.8473C332.934 95.0003 324.151 85.6785 324.151 85.6785C324.151 85.6785 322.779 96.9195 321.27 98.0162C319.897 99.1129 317.016 100.484 317.702 95.1374C318.388 89.9281 319.349 90.3394 318.8 88.9685C318.251 87.5977 315.918 83.0738 310.841 87.0493C305.489 91.4361 308.919 100.347 308.919 100.347Z" fill="#061742"/>
<path d="M311.389 102.403C308.096 99.5242 305.763 94.5891 308.645 89.654C311.664 84.7189 316.467 84.0335 317.976 85.9527C319.486 87.8719 320.035 91.0249 318.662 94.7262" stroke="#2A1E33" stroke-miterlimit="10" stroke-linecap="round" stroke-linejoin="round"/>
<path d="M228.78 438.537L230.426 442.375L225.212 462.527C224.526 465.131 225.349 467.736 227.407 469.518L253.069 431.682C255.539 428.118 254.99 423.183 251.834 420.304L246.07 414.958L228.78 438.537Z" fill="#455273"/>
<path d="M316.879 70.7362C316.879 70.7362 314.957 64.2932 309.057 62.6482" stroke="#2A1E33" stroke-miterlimit="10" stroke-linecap="round" stroke-linejoin="round"/>
<path d="M192.141 215.499L263.086 116.386" stroke="#2A1E17" stroke-miterlimit="10" stroke-linecap="round" stroke-linejoin="round"/>
<path d="M292.453 123.24C289.845 126.53 288.748 140.924 300.549 141.747C312.35 142.706 319.898 137.497 319.898 137.497" stroke="#2A1E17" stroke-miterlimit="10" stroke-linecap="round" stroke-linejoin="round"/>
<path d="M135.055 77.5903C135.055 77.5903 143.151 88.283 144.386 92.1214" stroke="#2A1E17" stroke-miterlimit="10" stroke-linecap="round" stroke-linejoin="round"/>
<path d="M439.284 221.53C439.284 221.53 444.773 226.054 455.477 220.159C459.456 218.103 456.575 213.168 451.634 214.402C446.694 215.636 440.794 213.716 440.794 213.716" stroke="#2A1E17" stroke-miterlimit="10" stroke-linecap="round" stroke-linejoin="round"/>
<path d="M461.926 212.894C461.926 212.894 467.14 218.926 467.003 222.627" stroke="#FFB096" stroke-miterlimit="10" stroke-linecap="round" stroke-linejoin="round"/>
<path d="M385.217 212.208C385.217 212.208 389.882 205.902 395.92 205.491" stroke="#2A1E17" stroke-miterlimit="10" stroke-linecap="round" stroke-linejoin="round"/>
<path d="M186.789 129.409C186.789 129.409 189.534 120.909 198.316 119.264" stroke="#2A1E17" stroke-miterlimit="10" stroke-linecap="round" stroke-linejoin="round"/>
<path d="M210.666 259.092L200.099 279.106C200.099 279.106 165.519 337.642 177.183 375.477" stroke="#2A1E17" stroke-miterlimit="10" stroke-linecap="round" stroke-linejoin="round"/>
<path d="M241.268 326.264L275.3 267.865C275.3 267.865 320.035 203.161 324.564 193.976L340.344 164.777" stroke="#2A1E17" stroke-miterlimit="10" stroke-linecap="round" stroke-linejoin="round"/>
<path d="M196.807 221.667C196.807 221.667 257.46 265.809 275.437 268.002" stroke="#2A1E17" stroke-miterlimit="10" stroke-linecap="round" stroke-linejoin="round"/>
<path d="M228.368 113.096C228.368 113.096 228.368 140.787 235.778 152.165" stroke="#2A1E17" stroke-miterlimit="10" stroke-linecap="round" stroke-linejoin="round"/>
<path d="M361.888 167.656C359.967 179.034 334.718 203.024 334.718 203.024" stroke="#2A1E17" stroke-miterlimit="10" stroke-linecap="round" stroke-linejoin="round"/>
<path d="M173.066 309.813C175.036 309.813 176.634 308.217 176.634 306.249C176.634 304.28 175.036 302.685 173.066 302.685C171.095 302.685 169.498 304.28 169.498 306.249C169.498 308.217 171.095 309.813 173.066 309.813Z" fill="#2A1E17"/>
<g opacity="0.3">
<path d="M510.779 383.428L508.721 369.72L520.522 377.534L514.347 378.767L510.779 383.428Z" stroke="#455273" stroke-miterlimit="10" stroke-linecap="round" stroke-linejoin="round"/>
<path d="M121.332 148.738C99.1019 129.135 62.3254 178.074 196.807 333.666C274.476 423.457 335.405 431.545 343.638 400.29C358.458 344.222 304.94 330.102 324.838 352.036C353.793 383.977 436.128 390.694 497.468 360.946C557.985 331.61 520.796 285.96 517.091 283.219" stroke="#455273" stroke-miterlimit="10" stroke-linecap="round" stroke-linejoin="round"/>
<path d="M498.566 364.099C500.536 364.099 502.134 362.503 502.134 360.535C502.134 358.566 500.536 356.971 498.566 356.971C496.595 356.971 494.998 358.566 494.998 360.535C494.998 362.503 496.595 364.099 498.566 364.099Z" fill="#455273"/>
<path d="M446.283 389.871L552.908 329.828" stroke="#455273" stroke-miterlimit="10" stroke-linecap="round" stroke-linejoin="round"/>
<path d="M123.666 155.181C125.636 155.181 127.233 153.585 127.233 151.617C127.233 149.648 125.636 148.052 123.666 148.052C121.695 148.052 120.098 149.648 120.098 151.617C120.098 153.585 121.695 155.181 123.666 155.181Z" fill="#455273"/>
</g>
<path d="M215.331 85.1302C219.575 85.1302 223.016 81.6932 223.016 77.4534C223.016 73.2136 219.575 69.7766 215.331 69.7766C211.087 69.7766 207.646 73.2136 207.646 77.4534C207.646 81.6932 211.087 85.1302 215.331 85.1302Z" fill="#D8F5FB"/>
<path d="M75.2246 18.5066C73.3034 18.5066 71.7939 20.0145 71.7939 21.9337C71.7939 23.8529 73.3034 25.3609 75.2246 25.3609C77.1457 25.3609 78.6552 23.8529 78.6552 21.9337C78.6552 20.0145 77.1457 18.5066 75.2246 18.5066Z" fill="#A0C6F4"/>
<path d="M529.99 439.633C531.885 439.633 533.421 438.099 533.421 436.206C533.421 434.313 531.885 432.779 529.99 432.779C528.096 432.779 526.56 434.313 526.56 436.206C526.56 438.099 528.096 439.633 529.99 439.633Z" fill="#FAD8B0"/>
<path d="M469.336 283.219L432.834 266.083C429.952 264.712 429.952 260.462 432.971 259.229L500.898 229.344C501.858 228.933 502.956 228.933 503.917 229.344L550.574 249.359L469.336 283.219Z" fill="#455273"/>
<path d="M467.141 226.877C467.278 241.956 469.336 283.082 469.336 283.082L550.437 249.221L548.653 191.92C548.515 188.355 544.948 186.162 541.654 187.533L471.806 219.337C468.925 220.845 467.141 223.724 467.141 226.877Z" fill="#C6CBCB"/>
<path d="M469.336 283.219L550.436 249.359L548.652 192.057C548.652 192.057 548.103 185.751 541.654 187.67" stroke="#2A1E17" stroke-miterlimit="10" stroke-linecap="round" stroke-linejoin="round"/>
<path d="M508.72 241.956L514.072 229.07" stroke="#2A1E17" stroke-miterlimit="10" stroke-linecap="round" stroke-linejoin="round"/>
<path d="M514.071 241.956L519.56 229.07" stroke="#2A1E17" stroke-miterlimit="10" stroke-linecap="round" stroke-linejoin="round"/>
<path d="M89.9072 383.154C91.8019 383.154 93.3378 381.62 93.3378 379.727C93.3378 377.834 91.8019 376.3 89.9072 376.3C88.0125 376.3 86.4766 377.834 86.4766 379.727C86.4766 381.62 88.0125 383.154 89.9072 383.154Z" fill="#FF6D66"/>
<path d="M376.023 401.112C378.6 401.112 380.689 399.026 380.689 396.451C380.689 393.877 378.6 391.791 376.023 391.791C373.446 391.791 371.357 393.877 371.357 396.451C371.357 399.026 373.446 401.112 376.023 401.112Z" fill="#FF6D66"/>
<path d="M125.037 429.9C130.526 432.505 146.581 439.222 167.851 439.085C168.949 439.085 169.91 440.044 169.773 441.278L166.754 464.72C166.616 465.542 166.067 466.228 165.244 466.365C159.206 467.462 135.055 470.752 116.941 455.535C116.392 455.124 116.117 454.301 116.392 453.616L122.43 431.271C122.704 430.037 123.939 429.489 125.037 429.9Z" fill="#FFE9DC"/>
<path d="M127.232 436.892C127.232 436.892 137.662 451.56 141.367 453.616C145.072 455.672 165.244 443.746 165.244 443.746" stroke="#2A1E17" stroke-miterlimit="10" stroke-linecap="round" stroke-linejoin="round"/>
<path d="M151.247 451.56L162.225 462.938" stroke="#2A1E17" stroke-miterlimit="10" stroke-linecap="round" stroke-linejoin="round"/>
<path d="M136.015 449.366L123.116 452.93" stroke="#2A1E17" stroke-miterlimit="10" stroke-linecap="round" stroke-linejoin="round"/>
<path d="M461.515 152.165H449.302V164.366H461.515V152.165Z" fill="#FFE1C0"/>
<path d="M450.948 317.627L454.653 324.07L458.358 330.376H450.948H443.675L447.38 324.07L450.948 317.627Z" fill="#D8F5FB"/>
<path d="M155.913 37.9726L156.874 9.3217C156.737 6.57999 157.834 5.75748 159.481 5.48331C167.303 3.70119 191.043 -1.50806 216.704 6.03165C219.998 6.99125 219.86 8.77336 219.86 10.4184L218.9 37.6984C218.9 39.7547 216.704 41.1255 214.371 40.8514C206.824 39.7547 196.669 39.3434 186.24 39.4805C175.536 39.6176 165.931 40.303 159.207 41.6739C156.737 42.0851 155.776 40.1659 155.913 37.9726Z" stroke="#455273" stroke-miterlimit="10" stroke-linecap="round" stroke-linejoin="round"/>
<path d="M164.559 33.723L179.516 16.176L196.12 32.4892C190.494 30.7071 164.559 33.723 164.559 33.723Z" stroke="#2A1E17" stroke-miterlimit="10" stroke-linecap="round" stroke-linejoin="round"/>
<path d="M188.71 24.264L200.923 14.668L211.078 21.9335L211.489 33.3116L196.12 32.6262" stroke="#2A1E17" stroke-miterlimit="10" stroke-linecap="round" stroke-linejoin="round"/>
<path d="M171.219 14.9443C171.357 13.5885 170.123 12.3535 168.464 12.186C166.806 12.0184 165.35 12.9817 165.212 14.3375C165.075 15.6934 166.309 16.9283 167.967 17.0959C169.626 17.2634 171.082 16.3002 171.219 14.9443Z" stroke="#2A1E17" stroke-miterlimit="10" stroke-linecap="round" stroke-linejoin="round"/>
<path d="M446.008 410.434L456.025 428.941C457.123 430.586 456.711 431.545 455.751 432.368C451.497 436.343 438.323 448.544 419.112 453.205C416.642 453.753 416.093 452.657 415.544 451.697L405.938 434.013C405.252 432.779 406.075 430.997 407.585 430.312C412.799 428.255 419.386 424.691 425.973 420.716C432.697 416.603 438.598 412.628 442.303 409.338C443.812 408.104 445.185 408.926 446.008 410.434Z" stroke="#455273" stroke-miterlimit="10" stroke-linecap="round" stroke-linejoin="round"/>
<path d="M442.029 416.329L439.01 433.053L422.405 428.804C426.659 427.844 442.029 416.329 442.029 416.329Z" stroke="#455273" stroke-miterlimit="10" stroke-linecap="round" stroke-linejoin="round"/>
<path d="M430.09 431.271L426.11 441.964L416.916 441.004L412.388 434.013L422.405 428.804" stroke="#455273" stroke-miterlimit="10" stroke-linecap="round" stroke-linejoin="round"/>
<path d="M447.573 431.404C448.676 430.9 449.238 429.766 448.828 428.871C448.419 427.976 447.193 427.659 446.09 428.162C444.987 428.666 444.425 429.8 444.834 430.695C445.244 431.59 446.47 431.907 447.573 431.404Z" stroke="#455273" stroke-miterlimit="10" stroke-linecap="round" stroke-linejoin="round"/>
<path d="M82.4968 102.951L80.4384 100.758L73.5771 106.927L75.6355 109.12C76.4589 110.08 77.9684 110.08 78.929 109.257L82.3596 106.241C83.1829 105.419 83.3202 103.911 82.4968 102.951Z" fill="#1D57FF"/>
<path d="M70.5586 88.4202L80.3017 98.9758C80.8506 99.5241 80.7133 100.347 80.1644 100.895L73.4404 107.064C72.8915 107.612 72.0681 107.475 71.5192 106.927L61.7762 96.3712C61.2273 95.8228 61.3645 95.0003 61.9134 94.452L68.6375 88.2831C69.1864 87.8719 70.0097 87.8719 70.5586 88.4202Z" stroke="#2A1E17" stroke-miterlimit="10" stroke-linecap="round" stroke-linejoin="round"/>
<path d="M51.758 144.488H39.5449V155.592H51.758V144.488Z" fill="#56CCF2"/>
<path d="M39.5454 137.36V144.488H32.2725" stroke="#2A1E17" stroke-miterlimit="10" stroke-linecap="round" stroke-linejoin="round"/>
<path d="M452.869 19.0549H440.656V30.1589H452.869V19.0549Z" fill="#FF6D66"/>
<path d="M440.656 11.9265V19.055H433.383" stroke="#2A1E17" stroke-miterlimit="10" stroke-linecap="round" stroke-linejoin="round"/>
<g opacity="0.5">
<path d="M111.177 87.7347C-15.0703 35.5051 -112.226 136.126 125.723 290.21C144.523 302.411 173.203 306.66 173.203 306.66" stroke="#455273" stroke-miterlimit="10" stroke-linecap="round" stroke-linejoin="round"/>
</g>
<path d="M11.6889 338.601L21.4319 389.049C21.7064 390.145 22.667 390.831 23.902 390.694L34.0567 388.5C35.1545 388.226 35.8406 387.267 35.5662 386.17L26.7837 335.311C26.6465 334.215 25.5487 333.392 24.3137 333.666L13.0612 336.134C12.1006 336.545 11.4145 337.505 11.6889 338.601Z" fill="white" stroke="#455273" stroke-miterlimit="10" stroke-linecap="round" stroke-linejoin="round"/>
<path d="M14.8447 339.561L17.5892 351.35L26.6461 349.979L24.725 337.23L14.8447 339.561Z" fill="#FF6D66"/>
<path d="M18.5498 355.874L20.7454 368.349L29.1162 366.978L27.0578 354.229L18.5498 355.874Z" fill="#1D57FF"/>
<path d="M21.2949 372.736L24.0394 384.525L31.5868 383.154L29.8029 371.091L21.2949 372.736Z" fill="#A0C6F4"/>
<path d="M292.452 465.131L333.894 454.027L335.541 458.551L293.55 469.381L292.452 465.131Z" stroke="#455273" stroke-miterlimit="10" stroke-linecap="round" stroke-linejoin="round"/>
<path d="M286.688 459.374L287.923 463.075" stroke="#455273" stroke-miterlimit="10" stroke-linecap="round" stroke-linejoin="round"/>
<path d="M285.591 461.841L289.021 460.607" stroke="#455273" stroke-miterlimit="10" stroke-linecap="round" stroke-linejoin="round"/>
<path d="M284.768 473.768L286.963 480.759" stroke="#455273" stroke-miterlimit="10" stroke-linecap="round" stroke-linejoin="round"/>
<path d="M282.847 478.154L289.022 476.235" stroke="#455273" stroke-miterlimit="10" stroke-linecap="round" stroke-linejoin="round"/>
<path d="M275.299 461.978L278.181 471.437" stroke="#455273" stroke-miterlimit="10" stroke-linecap="round" stroke-linejoin="round"/>
<path d="M272.28 467.873L281.063 465.131" stroke="#455273" stroke-miterlimit="10" stroke-linecap="round" stroke-linejoin="round"/>
<path d="M-2.0332 14.1199L-0.249264 9.45898" stroke="#455273" stroke-width="0.6707" stroke-miterlimit="10" stroke-linecap="round" stroke-linejoin="round"/>
<path d="M0.848217 12.6121L-3.26855 10.967" stroke="#455273" stroke-width="0.6707" stroke-miterlimit="10" stroke-linecap="round" stroke-linejoin="round"/>
<path d="M-2.17188 24.2643L0.298179 18.0955" stroke="#455273" stroke-width="0.6707" stroke-miterlimit="10" stroke-linecap="round" stroke-linejoin="round"/>
<path d="M1.80789 22.4823L-3.81836 20.1519" stroke="#455273" stroke-width="0.6707" stroke-miterlimit="10" stroke-linecap="round" stroke-linejoin="round"/>
<path d="M88.2611 236.61C69.7356 223.312 51.6218 202.612 59.5809 181.364C59.5809 181.364 72.3429 172.865 92.5151 183.42C112.687 193.976 112.687 193.976 112.687 193.976L88.2611 236.61Z" fill="#FFEEDB"/>
<path d="M79.8897 325.167C71.5189 321.191 35.9775 302.822 29.6651 271.155C24.1761 243.875 45.0344 207.136 55.6008 190.823C54.9146 212.345 76.5963 230.578 87.0254 238.118C97.5918 245.794 105.414 249.496 116.117 253.471L79.8897 325.167Z" fill="white"/>
<path d="M53.9539 197.403C56.2867 211.797 67.1275 226.602 85.7902 240.037C95.8077 247.302 103.355 251.003 113.235 254.842L78.9289 322.562C68.4998 317.353 37.4868 299.669 31.7233 270.881C26.9204 246.891 43.2503 215.087 53.9539 197.403ZM59.5801 181.364C59.5801 181.364 20.3336 234.416 27.7438 271.566C35.1539 308.717 80.8501 327.771 80.8501 327.771L119.136 252.374C107.197 247.988 99.3755 244.423 88.2603 236.472C69.7348 223.312 51.621 202.612 59.5801 181.364Z" fill="#FFEEDB"/>
<path d="M49.2891 212.208C49.2891 212.208 51.6219 233.594 72.8919 244.972" stroke="#2A1E17" stroke-miterlimit="10" stroke-linecap="round" stroke-linejoin="round"/>
<path d="M84.2812 252.648L105.688 264.027" stroke="#2A1E17" stroke-miterlimit="10" stroke-linecap="round" stroke-linejoin="round"/>
<path d="M52.3076 242.641C52.3076 242.641 59.1689 257.858 81.2622 267.728" stroke="#2A1E17" stroke-miterlimit="10" stroke-linecap="round" stroke-linejoin="round"/>
<path d="M34.7432 244.972C34.7432 244.972 35.5665 261.011 46.1329 266.357" stroke="#2A1E17" stroke-miterlimit="10" stroke-linecap="round" stroke-linejoin="round"/>
<path d="M59.1689 189.452C59.1689 189.452 57.2477 210.015 88.2607 236.61" stroke="#2A1E17" stroke-miterlimit="10" stroke-linecap="round" stroke-linejoin="round"/>
<path d="M70.5586 193.154C70.5586 193.154 80.4388 192.331 94.9848 203.024" stroke="#2A1E17" stroke-miterlimit="10" stroke-linecap="round" stroke-linejoin="round"/>
<path d="M24.0391 258.817C23.353 268.962 24.7252 305.975 78.2433 329.416" stroke="#2A1E17" stroke-miterlimit="10" stroke-linecap="round" stroke-linejoin="round"/>
<path d="M529.99 101.032H540.282" stroke="#FF6D66" stroke-miterlimit="10" stroke-linecap="round" stroke-linejoin="round"/>
<path d="M255.401 30.8442H265.556" stroke="#FAD8B0" stroke-miterlimit="10"/>
<path d="M549.613 154.084L559.631 155.866" stroke="#FAD8B0" stroke-miterlimit="10"/>
<path d="M147.268 409.337H157.56" stroke="#A0C6F4" stroke-miterlimit="10" stroke-linecap="round" stroke-linejoin="round"/>
<path d="M571.707 285.275C573.602 285.275 575.138 283.741 575.138 281.848C575.138 279.955 573.602 278.421 571.707 278.421C569.812 278.421 568.276 279.955 568.276 281.848C568.276 283.741 569.812 285.275 571.707 285.275Z" fill="#91BA83"/>
<path d="M263.773 194.798H133.545C129.429 194.798 125.998 191.371 125.998 187.259V169.712C125.998 165.599 129.429 162.172 133.545 162.172H263.773C267.889 162.172 271.32 165.599 271.32 169.712V187.259C271.32 191.371 267.889 194.798 263.773 194.798Z" fill="#E4ECFF"/>
<path d="M214.92 176.703H143.837C142.465 176.703 141.367 175.606 141.367 174.236C141.367 172.865 142.465 171.768 143.837 171.768H214.92C216.292 171.768 217.39 172.865 217.39 174.236C217.39 175.606 216.292 176.703 214.92 176.703Z" fill="#455273"/>
<path d="M142.19 183.146H262.949" stroke="#2A1E17" stroke-miterlimit="10" stroke-linecap="round" stroke-linejoin="round"/>
</g>
<defs>
<clipPath id="clip0_234_1310">
<rect width="644" height="481.444" fill="white" transform="translate(-69)"/>
</clipPath>
</defs>
</svg>
