<svg width="29" height="21" viewBox="0 0 29 21" fill="none" xmlns="http://www.w3.org/2000/svg">
<g clip-path="url(#clip0_193_70)">
<path d="M27.5938 3.8742C27.4396 3.28112 27.1324 2.73893 26.7028 2.30186C26.2733 1.8648 25.7366 1.54819 25.1463 1.38371C22.9867 0.798831 14.3304 0.798828 14.3304 0.798828C14.3304 0.798828 5.6742 0.798831 3.51464 1.38371C2.92433 1.54819 2.38757 1.8648 1.95804 2.30186C1.52852 2.73893 1.22131 3.28112 1.06714 3.8742C0.299236 8.35865 0.299236 12.941 1.06714 17.4255C1.22096 18.0181 1.52758 18.5599 1.95636 18.997C2.38514 19.434 2.92107 19.7509 3.51064 19.9159C5.6702 20.5008 14.3264 20.5008 14.3264 20.5008C14.3264 20.5008 22.9827 20.5008 25.1422 19.9159C25.7325 19.7515 26.2693 19.4349 26.6988 18.9978C27.1284 18.5607 27.4356 18.0185 27.5898 17.4255C28.3576 12.941 28.3576 8.35865 27.5898 3.8742H27.5938ZM11.561 14.872V6.42369L18.7515 10.6498L11.561 14.872Z" fill="#707272"/>
</g>
<defs>
<clipPath id="clip0_193_70">
<rect width="27.6784" height="19.7" fill="white" transform="translate(0.491211 0.799805)"/>
</clipPath>
</defs>
</svg>
