<svg width="48" height="56" viewBox="0 0 48 56" fill="none" xmlns="http://www.w3.org/2000/svg">
<path d="M26.6609 0.257045C29.5489 0.409545 32.3153 0.928045 34.9601 2.08704C41.0401 4.77105 44.8705 9.40704 46.4817 15.8425C47.4849 19.838 47.2721 23.8335 46.2993 27.7985C44.8705 33.6545 41.9825 38.7175 37.9697 43.1095C33.6225 47.837 28.4545 51.375 22.3745 53.51C18.9393 54.6995 15.4129 55.3095 11.7953 55.2485C9.60651 55.218 7.44811 55.1875 5.25931 55.157C5.19851 55.157 5.10731 55.157 5.01611 55.157C5.04651 55.0045 5.16811 54.9435 5.25931 54.8825C6.77931 53.6625 8.29931 52.4425 9.78891 51.192C10.0321 51.009 10.2449 50.9175 10.5489 50.948C11.9473 50.9785 13.3153 51.0396 14.7137 50.948C17.8145 50.7955 20.7633 50.094 23.5905 48.8435C31.1601 45.5495 36.8145 40.212 40.3713 32.709C41.9825 29.2625 42.8641 25.6025 42.7729 21.79C42.6513 16.9405 40.9793 12.701 37.4529 9.31554C35.0817 7.02804 32.2241 5.65554 29.0017 4.95404C27.6641 4.67954 26.2961 4.52704 24.9281 4.49654C22.4657 4.46604 20.0033 4.43554 17.5713 4.37455C17.4801 4.37455 17.3889 4.37454 17.2065 4.34404C17.6321 4.00854 17.9665 3.70354 18.3313 3.42904C19.6081 2.42254 20.9153 1.35504 22.1921 0.318045C22.2225 0.287545 22.2529 0.257045 22.2833 0.196045C22.6481 0.196045 23.0129 0.196045 23.3777 0.196045C23.7121 0.287545 24.0769 0.196045 24.4113 0.226545C24.7761 0.226545 25.1105 0.226545 25.4753 0.226545C25.7185 0.226545 25.9617 0.226545 26.2049 0.226545C26.3569 0.257045 26.5089 0.226545 26.6609 0.257045Z" fill="#FD5D63"/>
<path d="M0.972783 47.1966C1.27678 46.3731 1.39838 45.4886 1.61118 44.6346C1.85438 43.6891 1.82398 43.6891 2.76638 43.6891C9.97118 43.6891 17.176 43.6891 24.3504 43.6891C24.472 43.6891 24.624 43.6891 24.7456 43.6891C24.7456 43.8416 24.624 43.8416 24.5632 43.8721C21.2192 45.4581 17.6928 46.4951 14.0144 46.9831C12.4336 47.1966 10.8224 47.2881 9.21118 47.2576C6.44478 47.2576 3.67838 47.2576 0.942383 47.2576C0.972783 47.2576 0.972783 47.2271 0.972783 47.1966Z" fill="#5C4C8B"/>
<path d="M25.5057 0.257045C25.1409 0.257045 24.7761 0.257045 24.4113 0.257045C24.3809 0.257045 24.3809 0.226545 24.3809 0.226545C24.3809 0.196045 24.4113 0.196045 24.4113 0.196045C24.7761 0.196045 25.1409 0.196045 25.5057 0.196045C25.5361 0.226545 25.5361 0.226545 25.5057 0.257045Z" fill="#FDA3A7"/>
<path d="M24.411 0.196045C24.411 0.226545 24.411 0.226545 24.411 0.257045C24.0766 0.226545 23.7118 0.348545 23.3774 0.196045C23.7118 0.196045 24.0766 0.196045 24.411 0.196045Z" fill="#FD8489"/>
<path d="M25.5054 0.257045C25.5054 0.226545 25.5054 0.226545 25.5054 0.196045C25.7486 0.196045 25.9918 0.196045 26.235 0.196045C26.2654 0.196045 26.2654 0.226545 26.2654 0.226545C26.2654 0.226545 26.2654 0.257045 26.235 0.257045C25.9918 0.257045 25.7486 0.257045 25.5054 0.257045Z" fill="#FEC3C5"/>
<path d="M26.2354 0.257045C26.2354 0.226545 26.2354 0.226545 26.2354 0.196045C26.3874 0.196045 26.5393 0.196045 26.6609 0.196045C26.6609 0.226545 26.6609 0.226545 26.6609 0.257045C26.5089 0.257045 26.3874 0.257045 26.2354 0.257045Z" fill="#FEE6E7"/>
<path d="M38.8513 29.5066C38.4257 30.7571 37.8785 31.8856 37.2401 32.9836C37.1793 33.0751 37.1185 33.1056 37.0273 33.1056C36.9361 33.1056 36.8449 33.1056 36.7841 33.1056C26.1441 33.1056 15.5041 33.1056 4.86412 33.1056C4.40812 33.1056 4.40812 33.1056 4.49932 32.6786C4.74252 31.7026 4.98572 30.7571 5.19852 29.7811C5.22892 29.5981 5.32012 29.5066 5.50252 29.5371C5.56332 29.5371 5.65452 29.5371 5.71532 29.5371C16.5985 29.5371 27.5121 29.5371 38.3953 29.5371C38.5473 29.5066 38.6689 29.5066 38.8513 29.5066Z" fill="#5C4C8B"/>
<path d="M6.08008 25.9685C6.35368 24.8095 6.62728 23.742 6.87048 22.644C6.90088 22.461 6.96168 22.4 7.14408 22.4C7.20488 22.4 7.29608 22.4 7.35688 22.4C17.9969 22.4 28.6369 22.4 39.2769 22.4C39.6113 22.4 39.7329 22.4915 39.7633 22.827C39.8241 23.803 39.8545 24.779 39.7329 25.755C39.7025 25.9075 39.6721 25.999 39.4897 25.999C39.4289 25.999 39.3377 25.999 39.2769 25.999C28.3633 25.999 17.4193 25.999 6.50568 25.999C6.38408 25.9685 6.26248 25.9685 6.08008 25.9685Z" fill="#5C4C8B"/>
<path d="M34.5346 36.613C33.7746 37.4975 33.0146 38.2295 32.2242 38.931C31.7378 39.358 31.2818 39.9375 30.6738 40.151C30.1266 40.334 29.4578 40.212 28.8194 40.212C20.2466 40.212 11.6738 40.212 3.10099 40.212C2.79699 40.212 2.64499 40.1815 2.76659 39.8155C3.00979 38.87 3.22259 37.9245 3.43539 36.9485C3.49619 36.7045 3.58739 36.6435 3.86099 36.6435C13.9538 36.6435 24.0466 36.6435 34.1394 36.6435C34.261 36.613 34.3522 36.613 34.5346 36.613Z" fill="#5C4C8B"/>
<path d="M38.7295 18.8621C38.6079 18.8621 38.4559 18.8621 38.3343 18.8621C28.3023 18.8621 18.2399 18.8621 8.20794 18.8621C7.78234 18.8621 7.78234 18.8621 7.90394 18.4351C8.11674 17.4896 8.35994 16.5441 8.57274 15.5681C8.63354 15.3546 8.72474 15.2936 8.93754 15.2936C18.0879 15.2936 27.2383 15.2936 36.3887 15.2936C36.5103 15.2936 36.6319 15.2936 36.7535 15.4156C37.5743 16.4526 38.2431 17.5506 38.7295 18.7706C38.7295 18.7706 38.7295 18.8011 38.7295 18.8621Z" fill="#5C4C8B"/>
<path d="M32.4368 11.7556C32.3152 11.7556 32.224 11.7556 32.1024 11.7556C24.7152 11.7556 17.328 11.7556 9.94078 11.7556C9.48478 11.7556 9.48478 11.7556 9.57598 11.3286C9.78878 10.3831 10.032 9.40707 10.2448 8.46157C10.2752 8.27857 10.3664 8.18707 10.6096 8.18707C13.7104 8.18707 16.8112 8.15657 19.912 8.21757C24.2288 8.30907 28.3632 9.25457 32.1328 11.4811C32.2544 11.5421 32.3456 11.6336 32.4672 11.6946C32.4672 11.6946 32.4368 11.7251 32.4368 11.7556Z" fill="#5C4C8B"/>
</svg>
