<svg width="54" height="55" viewBox="0 0 54 55" fill="none" xmlns="http://www.w3.org/2000/svg">
<g clip-path="url(#clip0_234_1662)">
<path fill-rule="evenodd" clip-rule="evenodd" d="M27 9.70996C18.3015 9.70996 11.25 16.7615 11.25 25.46V29.96C11.25 31.2026 10.2426 32.21 9 32.21C7.75737 32.21 6.75 31.2026 6.75 29.96V25.46C6.75 14.2762 15.8162 5.20996 27 5.20996C38.1838 5.20996 47.25 14.2762 47.25 25.46V32.21C47.2495 32.7997 47.2248 33.3899 47.1942 33.9785C47.1393 35.0429 47.0291 36.5142 46.8074 38.1389C46.3826 41.2547 45.49 45.4316 43.425 48.185C42.6793 49.179 41.2691 49.3806 40.275 48.635C39.2809 47.8893 39.0794 46.479 39.825 45.485C41.135 43.7383 41.9299 40.6027 42.3488 37.531C42.5491 36.062 42.6499 34.7207 42.7003 33.746C42.7268 33.2344 42.7491 32.7214 42.75 32.2091V25.46C42.75 16.7615 35.6985 9.70996 27 9.70996ZM27 18.71C23.272 18.71 20.25 21.732 20.25 25.46V27.71C20.25 29.8256 19.5666 32.4368 18.2978 34.8157C17.022 37.2079 15.0376 39.5819 12.2562 40.9724C11.1448 41.5281 9.79326 41.0777 9.23753 39.9662C8.6818 38.8547 9.13232 37.5033 10.2438 36.9476C11.9624 36.0881 13.353 34.5245 14.3272 32.698C15.3084 30.8582 15.75 28.9693 15.75 27.71V25.46C15.75 19.2468 20.7868 14.21 27 14.21C33.2132 14.21 38.25 19.2468 38.25 25.46V27.71V27.9723C38.2513 34.5533 38.2531 43.3862 30.6904 49.6884C29.7358 50.484 28.3169 50.3551 27.5215 49.4004C26.726 48.4457 26.8549 47.0269 27.8096 46.2315C33.6458 41.3679 33.75 34.6028 33.75 27.71V25.46C33.75 21.732 30.728 18.71 27 18.71ZM29.25 26.585C29.25 25.3423 28.2427 24.335 27 24.335C25.7573 24.335 24.75 25.3423 24.75 26.585C24.75 29.2791 24.4766 32.6651 23.4592 35.7173C22.4439 38.7631 20.7718 41.246 18.1188 42.5726C17.0073 43.1283 16.5568 44.4797 17.1125 45.5912C17.6683 46.7027 19.0198 47.1531 20.1312 46.5974C24.2282 44.549 26.4935 40.8443 27.7283 37.1402C28.9609 33.4423 29.25 29.5158 29.25 26.585Z" fill="#FD5D63"/>
</g>
<defs>
<clipPath id="clip0_234_1662">
<rect width="54" height="54" fill="white" transform="translate(0 0.709961)"/>
</clipPath>
</defs>
</svg>
