<svg width="54" height="55" viewBox="0 0 54 55" fill="none" xmlns="http://www.w3.org/2000/svg">
<path fill-rule="evenodd" clip-rule="evenodd" d="M13.1108 29.9678C13.2607 29.6306 13.7393 29.6306 13.8892 29.9678L14.2717 30.8037C15.9083 34.1895 18.4865 37.0317 21.6963 38.9894L22.2923 39.3386C22.5693 39.4946 22.5693 39.8932 22.2923 40.049L21.6963 40.3984C18.4865 42.3561 15.9083 45.1981 14.2717 48.5839L13.8892 49.42C13.7393 49.757 13.2607 49.757 13.1108 49.42L12.7283 48.5839C11.0917 45.1981 8.51345 42.3561 5.30369 40.3984L4.70771 40.049C4.43076 39.8932 4.43076 39.4946 4.70771 39.3386L5.30369 38.9894C8.51345 37.0317 11.0917 34.1895 12.7283 30.8037C12.8615 30.5283 12.9863 30.248 13.1108 29.9678ZM13.4932 37.8125L13.0991 38.276C12.8189 38.5914 12.5304 38.8995 12.2339 39.1998L11.7832 39.6444L11.7224 39.698L12.2339 40.1997L12.6726 40.656L13.0991 41.1236L13.4932 41.5857L13.8881 41.1236C14.1683 40.8081 14.4568 40.5 14.7533 40.1997L15.2639 39.698L15.204 39.6444C14.8996 39.3519 14.6031 39.0515 14.3147 38.7435L13.8881 38.276L13.4932 37.8125ZM32.5636 6.85225C32.8259 6.26214 33.6634 6.26214 33.9257 6.85225L34.2643 7.60816L34.5951 8.31515L35.0356 9.19402L35.5439 10.1364L35.7961 10.5794C38.0392 14.4503 41.0177 17.8411 44.5593 20.5618L45.5204 21.2738C46.1914 21.753 46.881 22.2088 47.5882 22.6401C47.9317 22.8497 48.2794 23.0534 48.631 23.2514C49.1157 23.5238 49.1157 24.2218 48.631 24.4943C48.2794 24.6923 47.9317 24.8959 47.5882 25.1056C47.1167 25.393 46.6531 25.6914 46.1976 26.0004L45.3865 26.5679C41.4803 29.3858 38.2117 32.9975 35.7961 37.1663L35.5003 37.6874C35.1826 38.2584 34.8806 38.8398 34.5951 39.4304L34.2643 40.1374L33.9257 40.8934C33.6634 41.4833 32.8259 41.4833 32.5636 40.8934L32.2249 40.1374L31.8942 39.4304L31.4537 38.5515L30.9454 37.6091L30.6931 37.1663C28.4501 33.2952 25.4714 29.9046 21.9299 27.1838L20.9688 26.4718C20.2978 25.9925 19.6082 25.5367 18.9011 25.1056C18.5575 24.8959 18.2098 24.6923 17.8581 24.4943C17.3735 24.2218 17.3735 23.5238 17.8581 23.2514C18.2098 23.0534 18.5575 22.8497 18.9011 22.6401C19.3725 22.3526 19.8361 22.0542 20.2916 21.7452L21.1027 21.1777C25.0087 18.3599 28.2775 14.748 30.6931 10.5794L30.989 10.0583C31.3067 9.48707 31.6087 8.90585 31.8942 8.31515L32.2249 7.60816L32.5636 6.85225ZM33.2446 14.9861C30.9818 18.3611 28.2004 21.3607 25.0029 23.8728C28.2004 26.3849 30.9818 29.3844 33.2446 32.7594C35.5075 29.3844 38.2887 26.3849 41.4864 23.8728C38.2887 21.3607 35.5075 18.3611 33.2446 14.9861Z" fill="#FD5D63"/>
</svg>
