<svg width="54" height="55" viewBox="0 0 54 55" fill="none" xmlns="http://www.w3.org/2000/svg">
<g clip-path="url(#clip0_234_1656)">
<path d="M27 5.20996C27.8433 5.20996 28.6765 5.25645 29.4973 5.34717C30.7323 5.48372 31.6229 6.59565 31.4863 7.83076C31.3499 9.06588 30.238 9.95647 29.0027 9.81992C28.3459 9.74731 27.6777 9.70996 27 9.70996C17.0589 9.70996 9 17.7688 9 27.71C9 37.6511 17.0589 45.71 27 45.71C36.9412 45.71 45 37.6511 45 27.71C45 27.0323 44.9627 26.364 44.89 25.7072C44.7534 24.472 45.6442 23.36 46.8792 23.2237C48.1142 23.087 49.2262 23.9777 49.3627 25.2127C49.4534 26.0335 49.5 26.8667 49.5 27.71C49.5 40.1363 39.4263 50.21 27 50.21C14.5736 50.21 4.5 40.1363 4.5 27.71C4.5 15.2835 14.5736 5.20996 27 5.20996ZM26.9289 18.4326C27.2387 19.636 26.5142 20.8626 25.3109 21.1724C22.399 21.9218 20.25 24.5678 20.25 27.71C20.25 31.4378 23.272 34.46 27 34.46C30.1421 34.46 32.7881 32.3108 33.5374 29.399C33.8472 28.1955 35.0739 27.4712 36.2772 27.7808C37.4807 28.0907 38.2052 29.3174 37.8954 30.5207C36.6466 35.3723 32.2452 38.96 27 38.96C20.7868 38.96 15.75 33.9231 15.75 27.71C15.75 22.4647 19.3374 18.0632 24.1891 16.8144C25.3926 16.5047 26.6193 17.2292 26.9289 18.4326ZM41.634 5.49402C42.4748 5.8423 43.0232 6.66272 43.0232 7.57275V11.6867H47.1371C48.047 11.6867 48.8675 12.2349 49.2158 13.0757C49.5639 13.9164 49.3715 14.8842 48.728 15.5277L40.7732 23.4827C40.3511 23.9045 39.7789 24.1417 39.1819 24.1417H33.75L29.6361 28.2556C28.7575 29.1342 27.3328 29.1342 26.4541 28.2556C25.5755 27.377 25.5755 25.9523 26.4541 25.0736L30.5681 20.9597V15.5277C30.5681 14.931 30.8052 14.3587 31.2271 13.9367L39.1819 5.98178C39.8255 5.33828 40.7934 5.14577 41.634 5.49402ZM38.5232 13.0047L35.0681 16.4597V19.6417H38.25L41.7051 16.1867H40.7732C39.5305 16.1867 38.5232 15.1794 38.5232 13.9367V13.0047Z" fill="#FD5D63"/>
</g>
<defs>
<clipPath id="clip0_234_1656">
<rect width="54" height="54" fill="white" transform="translate(0 0.709961)"/>
</clipPath>
</defs>
</svg>
