<svg width="54" height="55" viewBox="0 0 54 55" fill="none" xmlns="http://www.w3.org/2000/svg">
<path fill-rule="evenodd" clip-rule="evenodd" d="M15.2947 7.19983C20.9646 4.92985 27.6947 6.08729 32.2928 10.6855C36.5671 14.9597 37.8683 21.0761 36.2071 26.4705L46.0943 34.8365C49.8729 38.034 50.1119 43.778 46.6118 47.2783C43.1115 50.7784 37.3674 50.5395 34.1699 46.7608L25.804 36.8736C20.4096 38.5348 14.2932 37.2336 10.0189 32.9593C5.42044 28.3608 4.26317 21.6301 6.53383 15.96C7.33919 13.9489 9.86255 13.6947 11.1764 15.1219L18.3792 22.9459L21.6339 22.2989L22.2846 19.0397L14.4577 11.8437C13.0292 10.5303 13.2826 8.00542 15.2947 7.19983ZM19.8106 10.6522L26.0288 16.3691C26.7515 17.0337 27.0755 18.0272 26.8833 18.9902L25.8263 24.2849C25.6037 25.3998 24.7316 26.2712 23.6165 26.4928L18.3276 27.5442C17.366 27.7355 16.3741 27.4119 15.71 26.6906L9.98614 20.473C9.58838 23.7856 10.662 27.2385 13.2009 29.7774C16.4677 33.0441 21.2474 33.885 25.2948 32.287C26.3836 31.857 27.6839 32.1286 28.4934 33.0855L37.6052 43.854C39.1022 45.623 41.7911 45.7348 43.4298 44.0961C45.0683 42.4577 44.9564 39.7687 43.1875 38.2718L32.419 29.16C31.4621 28.3504 31.1905 27.0501 31.6205 25.9614C33.2186 21.9139 32.3776 17.1342 29.1108 13.8674C26.573 11.3296 23.122 10.2558 19.8106 10.6522Z" fill="#FD5D63"/>
</svg>
